{"glyphs":{"0":{"ha":959,"x_min":34,"x_max":750,"o":"m 381 1305 q 441 1294 389 1305 l 468 1294 q 560 1267 538 1285 q 661 1188 635 1227 q 718 1112 693 1162 q 743 975 742 1073 l 740 975 l 743 970 l 743 935 q 745 792 743 920 l 747 787 q 745 757 747 781 q 747 673 747 707 l 745 673 l 747 667 q 750 597 747 650 q 747 534 747 547 l 750 524 q 745 488 747 488 q 747 480 745 486 q 735 202 747 361 q 642 27 731 113 q 576 -3 625 14 q 414 -27 576 -18 q 392 3 409 3 q 362 -22 362 -2 l 343 -22 q 297 -8 297 -22 q 273 5 297 5 q 251 -5 263 5 l 245 -5 q 145 35 205 -5 q 66 152 66 113 q 58 195 58 193 q 66 203 62 195 l 66 217 q 47 241 66 230 l 42 269 q 45 271 42 271 q 39 301 41 296 q 64 326 64 307 q 34 355 64 346 l 37 374 l 37 393 l 34 412 q 61 445 58 412 q 37 467 60 454 q 34 486 37 475 q 39 510 37 505 q 37 521 37 515 l 37 524 q 58 548 58 541 q 39 578 58 560 q 42 643 42 627 q 53 662 53 648 q 39 692 53 671 q 50 776 39 748 q 45 803 45 796 q 47 879 47 864 q 50 882 47 882 l 47 895 l 47 963 q 61 1023 47 977 l 61 1031 l 77 1034 l 77 1031 q 96 1053 94 1031 q 77 1080 96 1069 q 96 1137 96 1134 q 121 1177 102 1140 q 240 1272 121 1205 q 267 1286 246 1282 q 270 1283 267 1283 l 267 1270 l 267 1264 q 283 1248 267 1260 l 289 1251 l 294 1248 q 313 1270 313 1253 l 313 1272 q 305 1291 313 1281 q 381 1305 317 1298 m 381 1272 l 381 1256 q 400 1245 381 1250 l 416 1248 l 416 1289 q 395 1291 401 1291 q 381 1272 381 1287 m 213 1218 q 240 1194 213 1194 l 243 1194 q 259 1215 259 1200 l 259 1221 q 248 1240 259 1236 l 237 1240 q 213 1218 213 1240 m 324 1210 q 340 1191 330 1195 l 343 1191 q 373 1221 373 1191 q 351 1237 360 1237 q 324 1210 324 1237 m 159 1164 q 186 1139 159 1143 q 205 1161 202 1139 l 205 1166 q 191 1185 205 1180 l 183 1185 q 159 1164 159 1185 m 270 1161 q 300 1137 270 1137 l 302 1137 q 319 1164 313 1137 q 297 1183 319 1180 l 292 1183 q 270 1161 270 1180 m 384 1158 l 384 1147 q 403 1131 384 1143 q 416 1139 416 1135 l 416 1175 q 408 1180 416 1180 q 384 1158 384 1180 m 104 1104 q 123 1088 109 1088 l 140 1088 q 151 1107 151 1093 l 151 1109 q 137 1131 151 1124 l 129 1131 q 104 1104 104 1131 m 218 1109 l 218 1101 q 240 1082 218 1082 l 243 1082 q 264 1107 262 1082 q 240 1128 260 1128 q 218 1109 218 1128 m 330 1104 l 330 1101 q 349 1077 330 1086 q 376 1109 376 1077 q 357 1126 369 1126 q 330 1104 330 1126 m 164 1063 l 164 1047 q 189 1028 164 1028 q 208 1047 208 1028 l 208 1055 q 178 1074 208 1074 q 164 1063 165 1069 m 275 1050 l 275 1047 q 297 1025 275 1025 l 302 1025 q 321 1050 321 1025 q 302 1069 318 1069 l 294 1069 q 275 1050 275 1069 m 387 1044 q 416 1020 387 1020 l 416 1066 l 408 1066 q 387 1044 387 1066 m 107 993 q 126 974 113 974 q 156 996 156 974 q 123 1020 156 1020 q 107 993 111 1020 m 221 996 q 245 971 221 971 l 248 971 q 267 993 267 971 q 254 1015 267 1007 l 240 1015 q 221 996 221 1015 m 332 990 q 359 966 332 968 q 378 987 376 966 q 354 1012 378 1012 q 332 990 332 1012 m 53 941 q 77 920 53 924 q 102 944 102 920 q 77 966 94 966 q 53 941 53 964 m 167 941 l 167 936 q 186 914 170 914 q 213 936 213 918 q 189 963 213 956 q 167 941 167 959 m 278 936 q 302 911 278 916 q 324 925 316 911 l 324 944 q 300 958 319 958 q 278 936 278 958 m 392 936 l 392 922 q 414 909 399 909 l 416 909 l 416 949 q 411 955 416 955 q 392 936 392 951 m 113 887 l 113 876 q 129 860 113 874 q 159 887 159 860 q 137 909 159 900 q 113 887 113 905 m 224 873 q 245 857 230 857 q 270 879 270 859 q 240 903 270 903 q 224 873 224 903 m 338 882 l 338 873 q 359 854 338 854 l 362 854 q 381 865 377 854 l 381 882 q 354 901 381 901 q 338 882 338 897 m 58 833 q 80 806 58 806 q 104 830 104 811 q 94 852 101 852 l 77 852 q 58 833 58 852 m 170 827 q 194 803 173 803 q 216 825 216 806 l 216 833 q 194 849 209 849 l 191 849 q 170 827 170 849 m 281 819 q 302 800 281 803 q 330 819 330 802 q 300 846 330 846 q 281 819 281 841 m 395 822 l 395 819 q 416 798 395 798 l 416 841 l 414 841 q 395 822 395 841 m 115 773 q 142 749 115 749 q 161 770 159 749 q 137 795 161 795 q 115 773 115 795 m 227 765 q 251 746 235 746 q 275 776 275 746 q 251 792 261 792 q 227 765 227 792 m 340 768 l 340 762 q 357 741 340 749 q 387 765 387 741 q 362 789 381 789 q 340 768 340 785 m 61 719 q 88 694 61 694 q 107 716 104 694 l 107 719 q 85 741 107 741 l 83 741 q 61 719 61 741 m 172 716 q 189 692 172 700 l 199 692 q 218 711 218 692 l 218 719 q 194 738 218 738 q 172 716 172 732 m 283 711 q 305 686 293 686 q 332 716 332 686 q 308 735 326 730 q 283 711 292 735 m 397 705 q 416 684 401 684 l 416 730 l 414 730 q 397 705 401 730 m 118 667 q 142 637 118 637 l 145 637 q 164 648 160 637 l 164 670 q 142 684 164 677 q 118 667 125 681 m 232 659 q 256 632 232 632 q 278 659 275 632 q 259 678 278 678 l 256 678 q 232 659 232 678 m 343 648 q 368 629 351 629 q 389 651 389 629 l 389 654 q 365 675 389 675 q 343 648 343 675 m 64 605 q 85 583 66 583 l 91 583 q 110 602 110 583 l 110 608 q 83 629 110 629 q 64 605 68 629 m 178 605 q 205 578 178 578 q 224 608 224 583 q 210 624 220 619 l 202 624 q 178 605 178 624 m 289 600 q 319 575 289 575 q 335 597 335 581 l 335 602 q 313 621 335 621 q 289 600 289 620 m 400 591 q 414 575 404 581 l 416 575 l 416 616 l 414 616 q 400 591 406 616 m 123 551 l 123 537 q 134 526 123 533 l 151 526 q 170 540 163 526 q 148 570 170 570 l 142 570 q 123 551 123 570 m 235 545 q 264 521 235 521 q 281 534 276 525 l 281 545 q 259 567 279 567 q 235 545 235 566 m 346 543 q 376 518 346 518 l 381 518 q 392 529 385 518 l 392 553 q 376 564 392 558 q 346 543 346 561 m 66 494 q 91 469 71 469 q 115 494 115 473 q 91 518 115 510 q 66 494 75 518 m 180 491 q 208 467 180 467 l 213 467 q 227 488 227 473 l 227 491 q 199 513 227 513 q 180 491 183 513 m 292 488 q 316 464 296 464 l 327 464 q 338 475 331 464 l 338 496 q 324 510 338 499 q 292 488 292 507 m 406 486 l 406 483 l 411 464 l 416 464 l 416 502 l 414 502 q 406 486 406 499 m 126 431 l 126 426 q 151 412 131 412 q 172 434 172 412 q 148 458 172 458 q 126 431 126 458 m 240 442 l 240 420 q 251 410 240 416 l 273 410 q 283 420 277 410 l 283 434 q 256 456 283 456 q 240 442 245 452 m 351 431 l 351 426 q 370 407 351 407 l 387 407 q 397 434 395 407 q 376 450 392 450 l 370 450 q 351 431 351 450 m 72 382 l 72 380 q 102 358 72 358 q 118 380 118 363 l 118 382 q 99 404 116 404 q 72 382 72 404 m 183 374 q 202 355 183 355 l 205 355 q 232 374 232 357 q 210 401 232 392 q 183 374 183 399 m 297 377 l 297 363 q 319 350 297 357 q 343 366 336 350 q 321 396 343 396 l 311 396 q 297 377 297 391 m 408 372 q 414 353 414 355 l 416 353 l 416 388 q 408 372 408 385 m 129 320 q 151 301 134 301 l 156 301 q 178 326 174 301 q 159 347 178 338 q 129 320 129 347 m 243 323 l 243 315 q 267 296 243 296 q 289 320 289 301 l 289 323 q 273 342 284 335 l 256 342 q 243 323 243 336 m 354 317 q 376 293 354 293 l 378 293 q 400 315 400 293 l 400 317 q 373 339 400 339 q 354 317 354 334 m 75 266 q 96 247 80 247 l 110 247 q 121 266 121 252 l 121 271 q 104 293 121 285 q 75 266 75 293 m 189 269 l 189 263 q 210 241 191 241 q 235 271 235 241 l 235 274 q 213 288 228 288 l 202 288 q 189 269 189 282 m 300 258 q 324 239 300 239 q 346 260 346 241 l 346 269 q 319 285 338 285 q 300 258 302 285 m 414 271 l 414 244 l 416 244 l 416 271 l 414 271 m 134 214 l 134 209 q 156 187 137 187 q 180 214 180 187 q 159 233 180 231 q 134 214 134 233 m 245 209 l 245 201 q 267 184 252 184 l 270 184 q 292 206 292 184 l 292 209 q 278 231 292 224 l 270 231 q 245 209 245 231 m 357 198 q 381 182 360 182 l 384 182 q 406 206 406 182 q 381 228 398 224 q 357 198 357 222 m 80 160 l 80 155 q 102 133 81 133 q 126 160 126 133 q 99 179 126 177 q 80 160 80 179 m 191 155 q 216 130 191 130 q 237 152 237 130 l 237 155 q 210 176 237 176 q 191 155 191 171 m 302 146 q 330 125 311 125 q 351 152 351 133 q 327 174 351 169 q 302 146 306 174 m 137 100 q 159 76 137 76 l 161 76 q 183 98 183 76 q 156 122 183 122 q 137 100 137 117 m 248 95 q 275 71 248 77 q 294 92 294 76 l 294 98 q 275 117 294 117 q 248 95 248 117 m 362 90 q 389 68 362 68 l 392 68 q 408 98 408 73 q 387 114 403 114 q 362 90 362 114 m 194 41 q 216 19 197 19 l 221 19 q 240 30 236 19 l 240 43 q 229 62 240 58 l 216 62 q 194 41 194 61 m 308 41 l 308 35 q 332 14 308 14 q 354 38 354 14 q 332 60 352 60 q 308 41 308 60 z "},"1":{"ha":736,"x_min":34,"x_max":533,"o":"m 457 1275 q 481 1270 481 1274 l 487 1272 q 519 1259 519 1271 q 514 1242 514 1250 l 514 1234 q 533 1210 514 1223 l 533 1207 q 530 1147 530 1153 q 517 1128 517 1143 l 517 1126 q 525 1107 517 1117 l 525 1093 q 522 1085 525 1085 l 528 1036 q 519 1017 519 1023 q 528 996 519 1008 l 528 987 q 530 922 528 960 l 525 911 q 528 876 525 899 q 525 827 528 865 q 528 765 528 778 q 525 724 528 758 q 533 640 533 653 q 530 602 533 625 l 533 597 l 528 556 l 530 543 l 528 524 l 525 524 q 503 534 516 531 q 481 521 481 527 l 481 507 q 506 488 481 488 l 525 494 l 525 426 l 519 418 l 514 420 l 503 420 q 484 401 484 420 l 484 396 q 511 377 484 377 q 522 358 522 377 q 525 336 525 339 q 519 307 522 312 l 514 309 l 509 309 q 487 282 487 309 q 509 263 487 263 l 519 263 q 509 195 515 195 q 490 171 490 192 l 490 168 q 514 146 490 161 q 517 103 517 119 q 495 71 517 85 l 495 52 l 498 52 l 514 65 l 517 65 l 517 24 q 484 3 517 3 q 457 5 470 5 l 457 8 l 473 27 l 468 30 l 463 30 q 438 3 441 30 l 376 3 q 349 35 376 35 q 324 3 332 35 l 308 0 l 278 0 q 273 5 273 0 l 273 46 q 278 52 273 52 q 283 46 279 46 q 316 65 316 46 l 316 68 q 283 92 316 92 q 278 87 283 87 l 273 87 q 267 165 270 142 l 270 165 q 286 157 286 159 l 292 160 l 297 157 q 313 179 313 163 q 286 203 313 203 l 267 198 l 267 201 q 270 212 270 205 l 270 239 q 273 250 270 245 q 270 260 270 254 l 270 271 l 286 271 q 289 269 289 271 q 308 290 308 274 l 308 296 q 289 315 308 315 l 286 315 l 273 312 q 267 339 269 316 q 270 342 267 342 l 267 355 l 267 380 l 270 385 l 275 382 l 283 382 q 305 404 305 382 l 305 407 q 292 429 305 422 l 283 429 l 270 426 q 264 439 270 431 q 273 461 267 461 l 270 475 l 270 494 q 302 521 302 494 q 267 543 302 537 q 264 564 267 545 l 267 570 q 262 586 262 578 l 262 602 q 292 610 262 608 l 297 618 l 297 632 q 267 654 297 654 q 264 651 267 651 q 262 659 262 656 q 264 716 264 707 q 294 732 294 723 l 294 743 q 267 765 294 765 l 267 789 q 270 792 267 792 l 267 798 l 267 811 q 289 844 267 828 l 292 857 q 264 879 292 879 l 264 909 l 270 917 l 270 925 q 243 939 264 939 l 180 939 q 115 944 140 939 l 99 941 q 34 960 34 941 l 34 963 q 37 982 34 971 q 34 1009 34 996 l 34 1017 q 37 1020 34 1020 l 34 1025 l 37 1036 q 34 1047 34 1041 l 37 1047 l 34 1053 l 34 1061 q 107 1104 34 1074 q 205 1164 130 1124 l 254 1199 l 259 1199 l 259 1169 l 262 1169 q 281 1191 281 1169 q 273 1210 281 1198 l 300 1226 l 305 1223 l 316 1223 q 340 1248 329 1223 q 378 1270 364 1255 l 381 1270 q 389 1267 389 1270 l 425 1272 q 433 1270 430 1270 l 457 1275 m 400 1242 q 427 1218 400 1218 q 446 1240 446 1223 l 446 1253 q 427 1264 442 1264 l 422 1264 q 400 1242 400 1264 m 346 1188 q 373 1164 346 1166 q 392 1185 389 1164 q 368 1210 392 1210 q 346 1188 346 1210 m 457 1183 q 481 1161 464 1161 l 490 1161 q 506 1191 506 1168 q 484 1207 500 1207 q 457 1183 457 1207 m 292 1134 q 316 1109 292 1114 q 338 1123 330 1109 l 338 1142 q 313 1156 333 1156 q 292 1134 292 1156 m 406 1134 l 406 1120 q 427 1107 412 1107 l 430 1107 q 449 1118 445 1107 l 449 1134 q 435 1153 449 1146 l 430 1150 l 425 1153 q 406 1134 406 1149 m 259 1101 l 259 1055 q 283 1077 283 1057 q 259 1101 283 1101 m 351 1080 l 351 1072 q 373 1053 351 1053 l 376 1053 q 395 1063 391 1053 l 395 1080 q 368 1099 395 1099 q 351 1080 351 1095 m 463 1074 l 463 1072 q 484 1050 463 1050 l 495 1050 q 509 1077 509 1054 q 495 1093 505 1088 l 487 1093 q 463 1074 463 1093 m 294 1017 q 316 998 294 1001 q 343 1017 343 1000 q 313 1044 343 1044 q 294 1017 294 1039 m 408 1020 l 408 1017 q 433 996 408 996 l 435 996 q 454 1017 454 996 q 435 1039 454 1039 l 427 1039 q 408 1020 408 1039 m 259 990 l 259 944 l 264 944 q 289 974 289 944 q 262 990 276 990 l 259 990 m 354 966 l 354 960 q 370 939 354 947 q 400 963 400 939 q 376 987 395 987 q 354 966 354 983 m 465 958 q 487 936 470 936 q 495 939 492 939 l 495 936 q 511 949 507 940 l 511 958 q 484 982 511 982 l 481 982 q 465 958 469 982 m 297 909 q 319 884 307 884 q 346 914 346 884 q 321 933 340 928 q 297 909 305 933 m 411 903 q 433 882 414 882 q 457 903 457 883 q 427 928 457 928 q 411 903 414 928 m 357 846 q 381 827 365 827 q 403 849 403 827 l 403 852 q 378 873 403 873 q 357 846 357 873 m 468 844 q 490 825 468 827 q 517 846 517 825 q 490 871 511 871 q 468 844 472 871 m 302 798 q 332 773 302 773 q 349 795 349 779 l 349 800 q 327 819 349 819 q 302 798 302 818 m 414 789 q 438 770 422 770 q 463 795 463 770 q 444 817 457 810 q 414 789 414 814 m 359 741 q 389 716 359 716 l 395 716 q 406 727 399 716 l 406 751 q 389 762 406 756 q 359 741 359 759 m 473 738 l 473 735 q 498 711 477 711 q 519 735 519 716 l 519 743 q 498 757 509 757 l 487 757 q 473 738 473 751 m 305 686 q 330 662 309 662 l 340 662 q 351 673 345 662 l 351 694 q 338 708 351 697 q 305 686 305 705 m 419 684 l 419 681 q 444 656 419 661 q 465 684 464 656 q 441 703 465 703 l 438 703 q 419 684 419 703 m 365 629 l 365 624 q 384 605 365 605 l 400 605 q 411 632 409 605 q 389 648 406 648 l 384 648 q 365 629 365 648 m 476 624 q 506 600 476 600 q 522 621 522 605 l 522 627 q 495 646 522 646 q 476 624 476 640 m 311 575 l 311 562 q 332 548 311 555 q 357 564 350 548 q 335 594 357 594 l 324 594 q 311 575 311 589 m 422 570 q 446 545 425 545 q 468 567 468 545 l 468 570 q 446 591 468 591 q 422 570 422 591 m 368 515 q 389 491 368 491 l 392 491 q 414 513 414 491 l 414 515 q 387 537 414 537 q 368 515 368 532 m 313 456 q 338 437 313 437 q 359 458 359 439 l 359 467 q 332 483 352 483 q 313 456 315 483 m 427 467 l 427 445 q 446 434 432 434 l 452 434 q 471 445 467 434 l 471 467 q 452 477 467 477 l 446 477 q 427 467 432 477 m 370 396 q 395 380 374 380 l 397 380 q 419 404 419 380 q 395 426 412 422 q 370 396 370 420 m 316 345 q 343 323 324 323 q 365 350 365 331 q 340 372 365 367 q 316 345 319 372 m 430 342 l 430 334 q 449 320 433 324 q 476 342 476 320 q 452 366 476 366 q 430 342 430 366 m 376 288 q 403 266 376 266 l 406 266 q 422 296 422 271 q 400 312 416 312 q 376 288 376 312 m 321 239 l 321 233 q 346 212 321 212 q 368 236 368 212 q 346 258 366 258 q 321 239 321 258 m 433 233 l 433 231 q 454 209 433 209 q 479 233 479 209 l 479 241 q 457 255 472 255 l 449 255 q 433 233 433 248 m 378 179 q 400 155 380 155 q 425 179 425 155 q 406 201 422 201 q 378 179 378 201 m 324 125 q 351 100 324 100 q 370 119 370 100 l 370 125 q 351 146 370 142 l 346 144 l 343 144 q 340 146 340 144 q 324 125 324 141 m 435 119 q 463 95 442 95 q 481 117 481 100 l 481 130 q 463 141 477 141 l 457 141 q 435 119 435 140 m 384 76 l 384 62 q 395 43 384 48 l 408 43 q 427 54 423 43 l 427 68 q 403 87 427 87 q 384 76 389 87 z "},"2":{"ha":937,"x_min":34,"x_max":734,"o":"m 297 1321 q 300 1318 300 1321 l 313 1321 l 321 1321 q 324 1318 324 1321 l 330 1321 q 506 1299 456 1316 q 620 1245 595 1270 q 666 1202 621 1239 q 720 1063 720 1113 q 734 1012 724 1059 q 731 987 731 997 l 731 974 q 728 971 731 971 l 731 966 l 728 952 q 734 947 734 951 q 726 936 728 936 l 728 930 l 728 920 q 726 917 728 917 l 728 911 l 728 909 q 696 822 712 871 q 674 776 687 822 l 669 776 l 669 762 q 666 751 669 756 q 669 741 669 747 q 663 735 669 735 l 647 735 q 644 730 647 730 l 647 724 l 647 722 q 644 719 647 719 l 647 713 q 623 686 626 686 l 625 681 q 604 646 615 646 q 568 605 588 605 q 555 572 558 572 q 544 562 551 572 q 519 526 530 562 q 503 521 513 521 l 503 518 l 509 510 q 487 486 505 510 q 476 467 481 486 q 449 437 470 467 l 452 431 q 438 410 452 415 q 422 377 438 399 q 400 350 422 363 q 387 326 400 326 l 389 320 l 389 307 q 354 250 373 293 q 359 233 354 245 l 354 231 l 321 231 l 321 11 q 283 0 321 3 q 267 8 267 3 l 267 231 l 213 231 l 213 11 l 210 5 q 159 16 159 11 l 159 231 l 104 231 l 104 14 q 99 11 99 14 q 58 22 58 13 q 61 43 61 37 l 53 49 q 50 149 50 117 l 50 231 q 121 331 56 234 q 156 372 146 372 q 186 407 156 375 q 216 448 186 420 q 286 559 237 486 l 332 637 q 370 711 359 678 q 425 814 375 713 q 463 887 428 814 q 471 917 465 917 l 468 922 q 492 1015 491 969 l 490 1028 l 490 1072 q 438 1142 480 1116 q 406 1156 416 1149 l 384 1156 l 368 1158 q 354 1156 363 1156 q 351 1158 351 1156 q 338 1153 342 1153 q 330 1156 332 1156 q 313 1142 330 1152 l 300 1145 q 273 1118 273 1126 q 264 1082 273 1082 l 267 1077 q 251 1039 251 1044 q 256 1034 256 1038 l 248 1017 q 254 1012 254 1017 l 251 1006 q 254 998 251 1004 l 251 985 l 254 979 q 245 952 251 959 l 245 944 l 248 930 q 240 928 243 928 l 240 925 q 254 917 254 923 q 245 909 254 913 l 240 909 l 235 911 q 216 898 235 901 q 210 892 216 892 l 186 892 l 167 890 q 153 895 167 895 q 148 890 153 890 q 142 895 148 895 l 140 895 l 132 890 q 121 892 127 892 q 115 887 121 887 q 45 917 45 895 q 34 922 34 917 l 34 936 q 37 939 34 939 l 34 944 q 37 971 34 957 q 34 1025 34 1002 l 37 1042 q 34 1063 34 1053 l 34 1082 l 42 1099 q 39 1107 39 1104 q 56 1142 45 1142 l 56 1156 q 83 1202 60 1158 q 107 1234 91 1202 q 224 1305 177 1299 q 297 1321 288 1321 m 536 233 l 538 228 l 538 14 q 517 5 537 5 l 484 5 l 484 222 q 490 228 485 228 l 498 228 q 536 233 515 228 m 384 228 l 387 228 q 389 225 389 228 l 395 228 l 425 228 q 430 222 430 227 l 430 11 l 427 5 l 414 8 l 381 8 q 376 14 376 8 l 376 220 q 384 228 376 224 m 614 228 q 647 217 647 224 l 647 14 q 642 8 647 8 l 639 8 q 631 11 631 8 l 614 8 q 590 16 590 9 l 590 225 l 614 228 z "},"3":{"ha":948,"x_min":34,"x_max":745,"o":"m 278 1305 l 278 1302 l 283 1305 l 297 1305 q 395 1299 376 1305 l 400 1302 q 471 1291 471 1297 q 538 1218 471 1280 q 742 1009 742 1014 q 745 977 742 996 q 742 966 742 972 l 739 966 l 471 1232 l 471 1164 l 734 898 l 734 879 q 720 860 723 860 q 476 1107 476 1099 q 419 1145 460 1145 l 403 1142 l 403 1145 q 330 1077 330 1124 q 327 1069 327 1077 l 327 1039 l 324 1023 q 327 1020 324 1020 l 324 1006 q 327 944 327 957 q 294 920 321 920 q 259 917 259 920 q 240 920 248 920 q 161 917 210 920 l 142 920 l 129 917 l 118 920 q 99 917 107 917 l 99 920 l 94 917 l 91 917 q 50 914 77 917 q 42 952 45 919 q 45 985 45 971 q 39 1009 39 1002 l 39 1025 q 69 1188 53 1188 q 88 1215 75 1206 q 140 1267 88 1231 q 278 1305 194 1291 m 557 1291 q 601 1278 569 1282 q 712 1158 712 1167 q 726 1112 720 1118 q 720 1107 726 1107 q 541 1286 616 1208 l 541 1289 q 557 1291 543 1289 m 490 1015 l 495 1015 q 696 811 696 817 l 696 803 l 680 789 q 677 792 677 789 l 671 789 l 669 789 q 495 966 495 958 l 490 1015 m 492 890 l 498 890 q 633 754 502 890 l 633 751 q 623 730 623 751 q 674 689 623 726 l 685 675 q 709 635 697 661 l 709 629 l 707 629 l 487 846 q 492 890 492 869 m 468 800 q 655 610 468 797 q 734 524 734 536 q 739 494 739 513 l 739 477 l 736 477 l 471 741 l 471 675 l 739 404 l 739 401 q 731 382 731 391 l 731 366 l 726 366 q 473 621 473 616 l 471 621 l 471 572 l 468 572 q 435 600 435 596 l 422 600 q 316 618 422 610 q 300 659 300 644 l 300 667 q 302 670 300 670 l 300 675 l 300 708 l 302 724 l 300 730 l 302 741 l 300 754 q 316 779 303 779 q 362 781 325 779 q 368 776 363 776 q 403 784 375 781 l 403 781 l 408 784 l 427 784 q 449 789 446 789 l 463 789 q 468 800 463 800 m 715 624 q 720 618 720 623 l 715 618 l 715 624 m 490 532 l 734 290 l 728 241 l 726 241 q 500 469 500 462 q 490 529 500 481 l 490 532 m 237 510 q 251 507 242 507 q 259 510 256 510 q 297 423 281 510 q 302 418 302 422 l 302 415 l 300 410 q 305 404 305 409 l 305 399 q 302 388 305 393 l 308 361 q 300 263 304 277 q 311 206 306 263 q 308 203 308 206 q 335 163 313 203 q 376 138 341 163 q 387 136 382 138 l 403 138 l 406 138 l 414 133 l 430 136 q 438 133 435 133 l 484 165 l 487 165 q 612 41 490 165 l 612 35 q 582 22 605 35 l 576 22 q 471 127 576 25 l 471 62 l 517 14 l 517 11 q 465 0 469 5 l 449 3 q 414 0 431 0 l 397 3 q 381 0 393 0 l 370 3 q 368 0 368 3 q 316 8 317 5 l 311 5 q 161 38 212 14 q 75 117 126 51 q 42 252 66 117 q 45 263 45 257 q 34 334 40 263 q 37 361 34 347 q 34 412 34 387 l 34 450 l 39 458 q 34 464 34 458 l 34 491 q 102 505 34 501 l 118 502 l 142 502 q 148 507 148 502 l 164 505 l 237 510 m 500 393 l 503 393 q 723 174 605 295 l 723 171 q 715 165 723 165 l 718 152 l 704 141 l 557 288 l 498 350 l 498 380 l 500 393 m 495 277 l 498 277 q 680 95 583 195 l 680 90 q 661 79 680 86 q 655 71 661 71 l 492 231 l 495 244 l 495 277 z "},"4":{"ha":986,"x_min":34,"x_max":783,"o":"m 601 1259 q 598 1248 601 1253 q 614 1229 598 1237 q 631 1240 631 1234 l 631 1256 l 642 1256 q 663 1251 653 1256 q 661 1242 661 1245 q 666 1226 666 1234 l 666 1221 l 663 1221 q 650 1232 650 1230 q 631 1213 631 1226 q 642 1199 636 1200 l 655 1199 q 663 1215 663 1202 l 669 1215 l 669 1207 q 663 1177 663 1181 l 671 1166 l 671 1161 q 666 1156 671 1156 l 655 1169 q 633 1150 633 1169 l 633 1147 q 644 1137 633 1143 l 650 1137 q 669 1147 659 1137 l 671 1147 l 674 1134 q 666 1126 670 1134 l 666 1115 l 674 1101 l 671 1090 q 674 1080 674 1086 l 671 1080 l 674 1074 l 674 1072 q 666 1058 668 1058 q 677 1042 672 1042 q 674 1031 674 1037 l 671 1031 q 652 1044 659 1044 q 636 1028 644 1044 q 647 1012 642 1012 l 661 1012 l 669 1017 l 671 1017 q 669 993 671 1008 q 671 985 671 987 q 669 977 669 979 q 658 982 658 979 q 639 968 641 977 l 639 960 q 650 949 639 956 l 655 949 l 669 952 q 661 917 664 948 q 642 901 642 917 l 642 898 q 666 884 649 884 q 642 841 666 867 q 663 822 642 827 q 647 784 663 795 q 644 776 644 779 q 663 757 644 770 l 663 754 q 658 749 663 749 l 661 743 l 647 713 q 663 694 647 709 l 663 686 q 650 659 663 671 l 650 654 q 666 632 650 643 l 666 629 q 650 594 666 608 q 663 575 653 575 l 663 545 q 652 526 652 533 q 669 505 652 524 q 655 464 669 492 q 677 448 655 451 q 704 418 688 418 l 723 420 q 726 418 723 418 q 734 423 726 423 q 769 415 742 423 q 777 418 774 418 q 783 401 783 409 q 780 399 783 399 l 783 393 l 783 380 l 780 380 q 764 385 771 385 q 750 372 761 385 q 772 353 753 353 q 780 355 777 355 l 777 336 l 777 323 q 753 304 753 323 q 772 290 757 290 q 783 293 773 290 l 783 260 l 766 260 q 745 239 751 239 l 739 241 q 728 239 734 239 l 726 239 q 707 263 726 263 q 693 247 693 259 l 696 233 q 690 228 690 233 q 682 233 682 231 q 663 214 663 230 q 671 203 663 203 l 671 198 q 666 193 671 193 l 655 201 l 642 201 q 633 184 633 198 q 650 171 633 171 l 663 174 l 663 171 l 658 163 l 658 160 q 666 155 666 160 q 661 149 666 149 l 663 144 l 663 138 l 655 138 q 652 141 652 138 q 633 125 640 141 q 650 106 633 114 l 663 111 l 669 79 l 669 73 l 650 76 l 647 76 q 636 65 643 76 l 636 57 q 647 46 636 53 l 655 46 l 669 49 q 666 43 669 43 l 669 24 l 669 14 q 663 8 669 8 l 650 8 l 652 14 l 650 14 l 636 3 l 625 3 q 623 5 623 3 l 617 3 l 614 3 l 598 16 l 587 16 q 563 0 572 0 l 552 0 q 536 19 540 19 l 533 19 q 509 3 521 19 l 503 3 q 500 5 500 3 l 495 3 l 484 3 q 465 22 484 22 q 452 3 452 18 l 446 3 q 438 22 441 3 q 452 33 446 22 l 452 43 q 430 54 452 51 q 446 90 430 82 q 449 92 449 90 l 449 106 l 427 122 q 438 146 427 146 q 449 163 449 152 q 430 179 443 179 q 427 176 430 176 l 425 182 l 425 193 q 446 220 429 202 l 446 222 q 430 241 446 237 q 414 225 414 236 l 408 225 q 395 231 395 225 l 389 228 l 387 228 l 373 241 l 362 241 q 335 220 345 224 l 321 220 l 321 233 q 311 244 321 237 l 300 244 q 289 233 296 244 l 289 217 l 286 217 q 254 214 258 214 l 254 217 l 259 225 l 259 228 q 245 247 259 243 q 227 228 227 247 l 227 225 l 232 217 l 232 214 l 216 214 q 213 217 213 214 l 208 214 l 189 214 l 189 220 q 197 233 197 220 l 197 236 q 180 250 197 241 q 164 231 164 245 q 170 214 164 229 l 167 214 q 145 217 152 217 l 126 212 q 123 214 123 212 q 107 209 113 209 q 94 220 107 213 q 64 217 70 217 l 64 220 l 72 231 l 72 241 q 47 258 68 250 l 45 282 l 58 282 q 69 293 62 282 l 69 304 q 53 315 64 315 l 39 312 l 39 334 l 37 347 l 56 345 l 69 358 q 47 377 69 374 l 39 372 l 37 372 l 34 385 l 37 391 l 34 407 l 34 412 l 37 412 q 53 407 45 407 q 66 426 66 411 q 47 445 66 431 q 58 467 54 467 l 56 472 l 56 475 q 91 578 66 495 q 123 659 109 600 l 159 749 q 178 803 159 762 q 224 952 189 847 q 275 1156 251 1099 q 289 1210 275 1163 l 289 1226 q 321 1251 289 1239 l 370 1251 q 392 1245 389 1245 l 411 1245 l 422 1237 l 427 1237 q 452 1251 435 1237 q 471 1253 460 1251 q 492 1234 479 1234 l 495 1234 q 509 1253 509 1242 l 536 1253 q 549 1232 536 1238 l 557 1232 q 571 1256 571 1239 q 601 1259 583 1256 m 444 1223 l 444 1215 q 454 1204 444 1211 l 460 1204 q 476 1221 476 1204 q 457 1237 476 1237 q 444 1223 454 1237 m 408 1234 l 408 1210 l 411 1210 l 414 1223 l 414 1229 q 408 1234 414 1234 m 506 1215 q 525 1202 510 1202 l 528 1202 q 538 1213 532 1202 l 538 1223 q 519 1234 534 1234 q 506 1215 506 1230 m 568 1213 q 582 1199 568 1209 q 601 1210 597 1199 l 601 1221 q 590 1232 601 1225 l 579 1232 q 568 1213 568 1227 m 414 1188 l 414 1185 q 425 1175 414 1181 l 435 1175 q 446 1185 439 1175 l 446 1188 q 433 1207 446 1202 q 414 1188 414 1204 m 476 1185 l 476 1183 q 487 1172 476 1179 l 498 1172 q 509 1183 502 1172 l 509 1185 q 490 1204 509 1204 q 476 1185 476 1200 m 538 1191 l 538 1188 q 557 1169 538 1169 q 571 1188 571 1173 l 571 1191 q 560 1202 571 1195 l 549 1202 q 538 1191 545 1202 m 601 1188 l 601 1180 q 620 1166 603 1172 q 633 1185 633 1171 l 633 1188 q 623 1199 633 1192 l 612 1199 q 601 1188 608 1199 m 446 1156 l 446 1153 q 457 1142 446 1149 l 468 1142 q 479 1153 472 1142 l 479 1156 q 460 1175 479 1175 q 446 1156 446 1171 m 408 1172 l 408 1147 q 416 1156 412 1147 l 416 1158 l 414 1172 l 408 1172 m 509 1161 l 509 1150 q 519 1139 509 1146 l 522 1139 q 541 1150 537 1139 l 541 1153 q 522 1172 541 1172 l 519 1172 q 509 1161 515 1172 m 571 1158 l 571 1156 q 587 1137 571 1137 q 604 1156 604 1137 l 604 1158 q 593 1169 604 1162 l 582 1169 q 571 1158 578 1169 m 416 1134 l 416 1123 q 427 1112 416 1119 l 438 1112 q 449 1126 444 1114 q 441 1142 446 1142 l 425 1142 q 416 1134 420 1142 m 479 1131 l 479 1120 q 490 1109 479 1116 l 492 1109 q 511 1128 511 1109 q 492 1142 507 1142 l 490 1142 q 479 1131 486 1142 m 541 1128 l 541 1118 q 560 1107 546 1107 q 574 1126 574 1111 q 555 1139 570 1139 l 552 1139 q 541 1128 548 1139 m 604 1120 q 620 1104 604 1109 q 636 1118 631 1108 q 625 1137 636 1133 l 620 1137 q 604 1120 604 1137 m 408 1112 l 408 1082 q 419 1093 412 1082 q 408 1112 419 1108 m 449 1101 l 449 1090 q 460 1080 449 1086 l 471 1080 q 481 1093 476 1081 q 463 1112 481 1112 q 449 1101 450 1107 m 511 1099 l 511 1088 q 522 1077 511 1084 l 525 1077 q 544 1096 544 1077 q 533 1109 538 1108 l 522 1109 q 511 1099 518 1109 m 574 1090 l 574 1085 q 590 1074 574 1080 q 606 1093 606 1080 q 587 1107 602 1107 q 574 1090 574 1107 m 636 1096 l 636 1090 q 652 1072 636 1076 q 669 1088 661 1072 q 652 1107 669 1099 q 636 1096 636 1101 m 416 1066 q 427 1050 422 1050 l 441 1050 q 452 1063 445 1050 q 433 1082 452 1077 q 416 1066 425 1082 m 479 1063 q 492 1047 483 1053 l 495 1047 q 514 1063 510 1047 q 495 1080 514 1080 q 479 1063 487 1080 m 541 1061 q 555 1044 545 1050 l 563 1044 q 576 1061 573 1050 q 566 1077 571 1077 l 560 1077 q 541 1061 545 1077 m 606 1066 l 606 1053 q 623 1042 606 1047 q 639 1061 639 1048 q 620 1074 635 1074 l 614 1074 q 606 1066 610 1074 m 408 1050 l 408 1020 l 411 1020 q 419 1028 415 1020 l 419 1042 q 411 1050 419 1046 l 408 1050 m 449 1034 q 460 1017 454 1017 l 473 1017 q 481 1025 477 1017 l 481 1039 q 465 1050 481 1044 q 449 1034 457 1050 m 511 1031 q 525 1015 515 1020 l 528 1015 q 544 1031 544 1015 q 528 1047 544 1047 q 511 1031 517 1047 m 574 1025 q 587 1012 574 1022 q 606 1023 602 1012 l 606 1036 q 598 1044 606 1040 l 585 1044 q 574 1025 574 1040 m 419 1001 q 430 987 425 989 l 435 987 q 452 1004 452 987 l 452 1009 q 438 1020 452 1013 q 419 1001 419 1015 m 481 998 q 492 985 487 986 l 503 985 q 514 996 507 985 l 514 1006 q 495 1017 510 1017 q 481 998 481 1013 m 544 996 q 566 982 551 982 q 576 993 570 982 l 576 998 q 560 1015 576 1015 l 555 1015 q 544 996 544 1010 m 606 993 q 623 979 612 983 q 639 998 639 979 l 639 1004 q 631 1012 639 1008 l 617 1012 q 606 993 606 1008 m 408 987 l 408 958 l 411 958 q 422 974 422 960 q 414 987 420 987 l 408 987 m 452 968 l 452 966 q 463 955 452 962 l 468 955 q 484 971 484 955 q 471 987 484 983 q 452 968 452 987 m 514 966 q 533 952 518 952 l 536 952 q 547 963 540 952 l 547 966 q 528 985 547 985 q 514 966 514 981 m 576 963 q 595 949 585 949 q 609 960 608 955 l 609 966 q 593 982 609 982 l 587 982 q 576 963 576 978 m 422 939 q 433 925 427 926 l 438 925 q 454 941 454 925 l 454 947 q 438 958 454 952 q 422 939 422 954 m 484 944 l 484 933 q 495 922 484 929 l 506 922 q 517 933 510 922 l 517 936 q 498 955 517 955 q 484 944 486 949 m 547 941 l 547 930 q 566 920 551 920 q 579 939 579 924 q 560 952 575 952 l 557 952 q 547 941 553 952 m 609 939 l 609 930 q 625 917 614 921 q 642 936 642 921 q 625 949 642 949 l 620 949 q 609 939 616 949 m 408 928 l 408 892 q 425 906 420 897 q 408 928 425 922 m 454 914 l 454 903 q 465 892 454 899 l 476 892 q 487 903 480 892 l 487 906 q 468 925 487 925 q 454 914 456 920 m 517 911 l 517 901 q 528 890 517 897 l 530 890 q 549 909 549 890 q 530 922 545 922 l 528 922 q 517 911 524 922 m 579 909 l 579 898 q 595 887 585 887 q 612 901 607 891 q 593 920 612 920 l 590 920 q 579 909 586 920 m 425 884 l 425 879 q 441 863 425 863 l 446 863 q 457 879 457 868 q 441 895 457 887 q 425 884 425 890 m 487 882 l 487 871 q 498 860 487 867 l 500 860 q 519 873 515 860 q 500 892 519 892 q 487 882 488 887 m 549 879 l 549 868 q 568 857 554 857 q 582 871 576 859 q 563 890 582 890 l 560 890 q 549 879 556 890 m 612 871 l 612 865 q 628 854 612 860 q 644 868 640 859 q 628 890 644 883 q 612 871 612 886 m 408 863 l 408 836 l 411 830 q 427 852 427 836 q 416 863 427 856 l 408 863 m 457 852 l 457 846 q 473 830 457 830 q 490 846 486 830 q 471 863 484 863 q 457 852 458 857 m 519 849 l 519 838 q 538 827 524 827 l 552 841 q 533 860 550 860 l 530 860 q 519 849 526 860 m 582 849 l 582 836 q 598 825 587 825 q 614 844 614 831 q 595 857 610 857 q 582 849 582 855 m 425 817 q 435 800 430 800 l 449 800 q 460 822 456 800 l 444 833 q 425 817 431 833 m 487 817 q 506 798 490 798 q 522 814 517 798 q 503 830 516 830 q 487 817 498 830 m 549 811 q 568 795 555 795 q 585 808 574 795 q 566 827 583 827 q 549 811 553 827 m 614 817 l 614 803 q 628 792 616 798 q 644 803 644 798 l 644 817 q 628 825 642 825 l 623 825 q 614 817 618 825 m 408 800 l 408 795 q 359 656 377 683 q 313 551 321 589 q 278 461 296 482 q 251 442 278 442 q 262 431 251 438 q 292 434 286 434 l 292 431 l 283 420 l 283 410 q 294 399 283 406 l 297 399 q 316 418 316 399 q 302 434 316 422 l 308 437 l 313 437 q 332 429 323 429 q 376 439 341 437 q 389 426 376 435 q 416 458 416 434 q 438 469 438 458 l 438 477 q 425 491 438 480 l 419 488 q 414 494 414 488 q 433 524 414 524 l 435 537 q 419 553 435 549 q 416 551 419 551 q 408 583 411 556 l 414 583 q 416 581 416 583 q 435 597 427 581 q 414 616 435 611 q 411 613 414 613 l 408 618 l 408 640 q 430 651 408 644 l 433 656 l 433 665 q 414 678 425 678 q 411 675 414 675 l 408 681 l 408 703 q 414 708 409 708 l 414 705 q 430 724 430 709 l 430 727 q 414 741 425 737 q 411 738 414 738 l 408 743 l 408 762 l 427 779 l 427 792 q 419 800 427 796 l 408 800 m 457 787 q 468 768 457 772 l 473 768 q 490 784 490 768 l 490 789 q 479 800 490 793 q 457 787 464 800 m 519 784 q 538 765 519 765 q 555 781 545 765 q 541 798 551 793 l 538 798 q 519 784 524 798 m 582 779 q 598 762 582 770 q 614 773 614 768 l 614 787 q 606 795 614 791 l 593 795 q 582 779 582 789 m 427 757 q 441 735 427 744 q 460 749 458 741 l 460 760 q 444 770 460 764 q 427 757 433 767 m 490 749 q 500 735 495 736 l 511 735 q 522 746 515 735 l 522 757 q 511 768 522 761 l 509 768 q 490 749 490 768 m 552 746 q 571 732 552 736 q 585 743 583 738 l 585 754 q 574 765 585 758 l 563 765 q 552 746 552 761 m 614 751 q 628 730 614 739 q 647 749 647 732 q 639 762 645 762 l 625 762 q 614 751 621 762 m 460 719 q 471 705 465 707 l 481 705 q 492 716 486 705 l 492 719 q 473 738 492 738 q 460 719 460 734 m 522 716 l 522 713 q 533 703 522 709 l 536 703 q 555 713 551 703 l 555 724 q 544 735 555 728 l 541 735 q 522 716 522 735 m 585 713 q 601 700 585 707 q 617 719 617 700 l 617 722 q 606 732 617 726 l 595 732 q 585 713 585 728 m 430 689 q 446 675 430 675 l 452 675 q 463 686 456 675 l 463 694 q 446 708 458 705 q 430 689 430 708 m 492 694 l 492 684 q 511 673 497 673 l 514 673 q 525 692 525 677 q 506 705 521 705 q 492 694 494 700 m 555 692 l 555 681 q 566 670 555 677 l 568 670 q 587 689 587 670 l 587 692 q 576 703 587 696 l 566 703 q 555 692 562 703 m 617 684 q 633 667 617 673 q 650 681 645 671 l 650 689 q 639 700 650 693 l 633 700 q 617 684 617 700 m 463 665 l 463 659 q 479 643 463 643 l 484 643 q 495 659 495 648 q 476 675 489 675 q 463 665 464 670 m 525 662 l 525 651 q 544 640 530 640 q 557 659 557 644 q 538 673 553 673 l 536 673 q 525 662 532 673 m 587 659 l 587 648 q 604 637 587 644 q 620 656 620 642 l 620 659 q 609 670 620 663 l 598 670 q 587 659 594 670 m 433 635 l 433 629 q 449 613 433 613 l 454 613 q 465 629 465 618 q 446 646 459 646 q 433 635 434 640 m 492 629 q 511 610 496 610 q 528 627 528 612 q 506 643 522 643 q 492 629 503 643 m 555 624 q 576 608 560 608 q 590 621 580 608 q 571 640 590 640 q 555 624 561 640 m 620 629 l 620 616 q 636 605 620 612 q 652 627 652 610 q 642 637 652 631 l 628 637 q 620 629 624 637 m 465 602 l 465 589 q 481 581 468 581 q 498 597 494 581 q 479 613 492 613 q 465 602 467 608 m 525 597 q 547 578 528 578 q 560 594 555 580 q 547 610 557 606 l 538 610 l 525 597 m 587 591 q 606 575 593 575 q 623 589 612 575 q 604 608 621 608 q 587 591 591 608 m 433 567 q 452 551 437 551 l 457 551 q 468 564 461 551 q 449 583 468 578 q 433 567 441 583 m 495 562 q 514 548 499 548 l 517 548 q 528 559 521 548 l 528 570 q 517 581 528 574 l 509 581 q 495 562 500 578 m 557 564 q 582 545 557 545 l 590 556 l 590 567 q 579 578 590 571 l 568 578 q 557 564 564 578 m 620 559 q 636 543 620 551 q 652 553 652 548 l 652 567 q 644 575 652 571 l 631 575 q 620 559 620 570 m 465 537 l 465 532 q 484 518 471 518 q 498 534 498 518 l 498 540 q 479 551 494 551 q 465 537 471 549 m 528 529 q 547 515 533 515 l 549 515 q 560 526 553 515 l 560 537 q 549 548 560 541 l 547 548 q 528 529 528 548 m 590 532 q 609 513 590 513 q 623 524 621 518 l 623 534 q 612 545 623 538 l 601 545 q 590 532 595 544 m 435 502 q 446 488 441 490 l 452 488 q 468 505 468 488 q 452 521 468 517 q 435 502 435 517 m 498 499 q 511 486 498 496 l 519 486 q 530 496 524 486 l 530 507 q 519 518 530 511 l 517 518 q 498 499 498 518 m 560 505 l 560 502 q 579 483 560 483 q 593 502 593 487 l 593 505 q 582 515 593 509 l 571 515 q 560 505 567 515 m 623 502 l 623 499 q 639 480 623 484 q 655 499 655 484 l 655 502 q 642 515 655 505 q 623 502 625 510 m 468 469 l 468 467 q 479 456 468 463 l 490 456 q 500 467 494 456 l 500 469 q 481 488 500 488 q 468 469 468 484 m 530 475 l 530 472 q 544 453 530 458 q 563 464 559 453 l 563 475 q 552 486 563 479 l 549 486 q 530 475 535 486 m 593 472 l 593 469 q 606 450 593 456 q 625 469 625 450 l 625 472 q 614 483 625 476 l 604 483 q 593 472 600 483 m 438 448 l 438 434 q 446 426 438 430 l 460 426 q 471 445 471 431 q 457 458 471 448 q 438 448 438 455 m 500 445 l 500 434 q 511 423 500 430 l 522 423 q 533 442 533 428 q 514 456 529 456 q 500 445 502 450 m 563 442 l 563 439 q 582 420 563 420 q 595 439 595 425 l 595 442 q 585 453 595 446 l 574 453 q 563 442 570 453 m 625 434 q 642 418 625 424 q 658 431 653 422 l 658 439 q 644 453 658 442 q 625 434 625 450 m 69 442 q 75 437 70 437 l 77 437 l 91 439 l 91 442 l 69 442 m 129 442 q 142 434 129 437 q 153 442 153 438 l 129 442 m 191 442 q 202 431 191 439 q 218 442 218 437 l 191 442 m 96 426 l 96 415 q 115 404 101 404 q 129 423 129 410 q 118 437 123 435 l 107 437 q 96 426 103 437 m 159 418 q 175 401 159 406 q 191 420 191 408 q 178 437 191 426 q 159 418 159 433 m 221 423 l 221 412 q 232 401 221 408 l 243 401 q 254 420 254 406 q 235 434 245 434 q 221 423 222 429 m 346 412 l 346 407 q 362 396 351 396 q 378 410 374 400 q 359 429 378 429 q 346 412 346 429 m 408 418 l 408 407 q 419 396 408 403 l 430 396 q 441 407 434 396 l 441 415 q 430 426 441 419 l 416 426 q 408 418 412 426 m 471 415 l 471 401 q 487 393 473 393 q 503 412 503 393 q 490 426 503 416 q 471 415 475 426 m 533 412 l 533 401 q 552 391 538 391 q 566 410 566 395 q 547 423 562 423 l 544 423 q 533 412 540 423 m 595 404 q 612 388 595 393 q 628 407 628 394 q 617 420 623 419 l 612 420 q 595 404 595 420 m 658 410 l 658 404 q 674 388 658 388 l 680 388 q 690 399 684 388 l 690 407 q 677 420 690 410 q 658 410 658 417 m 720 407 l 720 401 q 736 385 720 385 q 753 401 753 387 q 734 418 747 418 q 720 407 722 412 m 66 396 l 66 385 q 85 374 71 374 q 99 388 89 374 q 80 407 99 407 l 77 407 q 66 396 73 407 m 129 396 l 129 382 q 145 372 134 372 q 161 391 161 378 q 151 404 156 403 l 145 404 q 129 396 129 403 m 191 393 l 191 388 q 208 372 191 372 l 213 372 q 224 388 218 372 q 208 404 224 396 q 191 393 191 399 m 251 385 q 264 369 255 374 l 267 369 q 286 385 286 369 q 267 401 281 401 q 251 385 260 401 m 316 388 l 316 377 q 327 366 316 373 l 330 366 q 349 385 349 366 q 330 399 345 399 l 327 399 q 316 388 323 399 m 376 382 q 395 363 376 369 q 411 380 403 363 q 392 396 411 396 l 387 396 q 376 382 382 396 m 441 385 l 441 380 q 457 363 441 363 l 463 363 q 473 380 473 369 q 454 396 467 396 q 441 385 442 391 m 503 382 l 503 377 q 519 361 503 361 q 536 382 536 361 l 522 393 l 514 393 q 503 382 510 393 m 566 374 l 566 369 q 582 358 571 358 q 598 374 590 358 q 579 391 598 391 q 566 374 566 391 m 628 380 l 628 374 q 642 355 628 362 q 661 372 654 355 q 650 388 655 388 l 636 388 q 628 380 632 388 m 690 377 l 690 363 q 707 355 693 355 q 723 372 719 355 q 709 388 720 383 q 690 377 695 388 m 96 358 q 118 342 102 342 q 132 358 128 347 q 113 374 132 374 q 96 358 96 371 m 159 355 q 170 342 164 343 l 183 342 q 194 358 189 342 q 183 372 189 370 l 170 372 q 159 355 159 366 m 221 358 q 240 339 223 339 q 256 355 252 339 q 235 372 251 372 q 221 358 232 372 m 283 353 q 297 336 288 342 l 305 336 q 319 350 309 336 q 305 369 313 367 l 302 369 q 283 353 289 369 m 349 358 l 349 345 q 368 334 353 334 q 378 345 372 334 l 378 358 q 362 366 376 366 l 357 366 q 349 358 353 366 m 408 350 q 425 331 408 339 q 444 347 435 331 q 427 366 444 358 q 408 350 415 366 m 471 342 q 490 331 480 331 q 503 347 503 331 l 503 353 q 492 363 503 357 q 471 342 471 363 m 533 345 q 552 328 537 328 l 555 328 q 568 345 565 334 q 549 361 564 361 q 533 345 533 357 m 595 342 q 614 326 602 326 q 631 342 623 326 q 612 358 631 358 l 606 358 q 595 342 601 358 m 658 342 q 677 326 662 326 q 693 339 687 326 q 674 358 693 353 q 658 342 667 358 m 720 339 q 739 323 720 323 l 742 323 q 753 334 746 323 l 753 345 q 742 355 753 349 l 734 355 q 720 339 729 355 m 66 328 q 85 312 66 312 q 99 323 98 317 l 99 334 q 88 345 99 338 l 85 345 q 66 328 66 345 m 129 326 q 145 309 129 317 q 161 320 161 315 l 161 334 q 153 342 161 338 l 140 342 q 129 326 129 336 m 191 323 q 202 309 197 311 l 208 309 q 224 326 224 309 l 224 331 q 210 342 224 335 q 191 323 191 336 m 254 323 q 273 307 254 307 l 275 307 q 289 323 286 312 q 267 339 283 339 q 254 323 259 338 m 316 320 q 335 304 322 304 q 351 317 340 304 q 332 336 348 336 l 327 336 q 316 320 321 336 m 378 323 q 397 301 383 301 q 411 312 410 307 l 411 317 q 395 334 411 334 l 389 334 q 378 323 387 334 m 441 317 q 452 301 446 301 l 457 301 q 473 309 471 301 l 473 323 q 457 334 473 328 q 441 317 449 334 m 503 309 q 522 298 513 298 l 525 298 q 536 309 529 298 l 536 320 q 525 331 536 324 l 522 331 q 503 309 503 331 m 566 309 q 585 296 570 296 q 598 307 597 301 l 598 317 q 587 328 598 321 l 576 328 q 566 309 566 324 m 628 309 q 644 293 628 302 q 661 304 661 298 l 661 309 q 644 326 661 326 l 639 326 q 628 309 628 320 m 690 312 l 690 307 q 709 293 696 293 q 726 307 718 293 q 707 326 726 320 q 690 312 696 322 m 99 298 q 118 279 99 279 q 132 290 130 285 l 132 301 q 121 312 132 305 l 110 312 q 99 298 104 311 m 161 293 q 175 277 161 288 q 194 288 194 281 l 194 301 q 178 312 194 306 q 161 293 161 306 m 224 290 q 235 277 229 278 l 240 277 q 256 293 256 277 l 256 298 q 245 309 256 302 l 237 309 q 224 290 224 304 m 286 288 q 305 274 290 274 l 308 274 q 319 285 312 274 l 319 296 q 300 307 315 307 q 286 288 286 302 m 349 288 q 365 271 349 279 q 381 282 381 277 l 381 288 q 365 304 381 304 l 359 304 q 349 288 349 298 m 411 290 l 411 282 q 422 271 411 278 l 427 271 q 444 288 444 271 q 430 304 444 298 q 411 290 413 298 m 473 282 q 492 269 477 269 l 495 269 q 506 279 499 269 l 506 282 q 490 301 506 301 q 473 282 473 296 m 536 279 q 555 266 541 266 l 557 266 q 568 277 562 266 l 568 288 q 557 298 568 292 l 555 298 q 536 279 536 298 m 598 277 q 614 263 604 263 q 631 274 631 269 l 631 285 q 620 296 631 289 l 609 296 q 598 277 598 292 m 661 277 q 671 263 666 264 l 677 263 q 693 279 693 263 q 677 296 693 292 q 661 277 661 290 m 723 274 q 736 260 723 271 l 745 260 q 755 271 749 260 l 755 282 q 736 293 751 293 q 723 274 723 289 m 69 271 l 69 260 q 88 250 74 250 q 102 260 100 255 l 102 271 q 91 282 102 275 l 80 282 q 69 271 76 282 m 132 269 l 132 266 q 148 247 132 247 q 164 266 164 247 l 164 269 q 153 279 164 273 l 142 279 q 132 269 138 279 m 194 260 q 205 247 199 248 l 216 247 q 227 258 220 247 l 227 269 q 210 279 227 273 q 194 260 194 279 m 256 258 l 256 255 q 267 244 256 251 l 278 244 q 289 255 282 244 l 289 266 q 278 277 289 270 l 275 277 q 256 258 256 277 m 319 255 q 338 241 323 241 q 351 252 350 247 l 351 263 q 340 274 351 267 l 330 274 q 319 255 319 270 m 381 260 q 397 239 381 244 q 414 258 414 243 q 397 274 414 268 q 381 260 387 271 m 444 252 l 444 250 q 454 239 444 245 l 465 239 q 476 250 469 239 l 476 252 q 463 271 476 266 q 444 252 444 268 m 506 258 l 506 255 q 525 236 506 236 q 538 247 537 241 l 538 250 q 519 269 538 269 q 506 258 507 263 m 568 255 l 568 252 q 582 233 568 239 q 601 252 601 233 l 601 255 q 590 266 601 259 l 579 266 q 568 255 575 266 m 631 252 l 631 250 q 647 231 631 234 q 663 250 663 235 l 663 252 q 650 266 663 255 q 631 252 633 260 m 102 239 l 102 228 q 121 217 106 217 q 134 236 134 221 l 134 239 q 123 250 134 243 l 113 250 q 102 239 109 250 m 476 220 l 476 217 q 487 206 476 213 l 498 206 q 509 217 502 206 l 509 220 q 490 239 509 239 q 476 220 476 235 m 538 225 l 538 222 q 557 203 538 203 q 571 222 571 208 q 552 236 567 236 l 549 236 q 538 225 545 236 m 601 222 l 601 220 q 617 201 603 201 q 633 220 633 205 l 633 222 q 623 233 633 227 l 612 233 q 601 222 608 233 m 446 198 l 446 187 q 457 176 446 183 l 468 176 q 479 195 479 181 q 460 209 471 209 q 446 198 448 203 m 509 195 l 509 184 q 519 174 509 180 l 522 174 q 541 193 541 174 q 522 206 537 206 l 519 206 q 509 195 515 206 m 571 193 l 571 182 q 587 171 576 171 q 604 184 599 175 q 585 203 604 203 l 582 203 q 571 193 578 203 m 479 165 l 479 155 q 490 144 479 151 l 492 144 q 511 160 511 144 q 492 176 507 176 q 479 165 480 171 m 541 163 l 541 152 q 552 141 541 148 l 555 141 q 574 163 574 141 q 555 174 564 174 l 552 174 q 541 163 548 174 m 601 157 q 620 138 601 144 q 636 155 628 138 q 620 174 635 165 q 601 157 607 170 m 449 136 l 449 130 q 465 114 449 114 q 481 130 477 114 q 463 146 475 146 q 449 136 450 141 m 509 127 q 522 111 513 117 l 530 111 q 544 125 534 111 q 525 144 541 144 l 522 144 q 509 127 517 144 m 574 133 l 574 119 q 585 109 574 115 q 606 130 606 110 q 587 141 597 141 q 574 133 574 139 m 479 98 q 498 81 479 81 q 514 98 509 81 q 495 114 508 114 q 479 98 487 114 m 541 95 q 563 79 547 79 q 576 92 566 79 q 557 111 573 111 q 541 95 545 111 m 604 98 q 617 76 604 84 q 636 87 632 76 l 636 92 q 620 109 636 109 l 614 109 q 604 98 612 109 m 449 65 q 460 52 454 53 l 465 52 q 481 68 481 52 l 481 73 q 463 84 477 84 q 449 65 449 76 m 511 68 q 530 49 511 49 l 533 49 q 544 60 537 49 l 544 71 q 525 81 540 81 q 511 68 517 81 m 574 68 q 590 46 574 52 q 606 57 606 52 l 606 62 q 590 79 606 79 l 585 79 q 574 68 581 79 m 481 33 l 481 30 q 492 19 481 26 l 503 19 q 514 30 507 19 l 514 41 q 495 52 510 52 q 481 33 481 47 m 544 30 q 563 16 548 16 q 576 27 575 22 l 576 38 q 566 49 576 42 l 555 49 q 544 30 544 45 m 606 35 q 623 14 606 19 q 639 33 639 14 q 623 46 639 46 l 617 46 q 606 35 613 46 z "},"5":{"ha":932,"x_min":34,"x_max":728,"o":"m 137 1291 l 197 1283 q 224 1289 201 1286 l 224 1286 q 227 1289 227 1286 q 243 1286 241 1286 q 297 1291 264 1286 q 311 1286 311 1289 q 313 1289 313 1286 q 359 1286 345 1286 l 476 1286 q 514 1283 491 1286 q 530 1289 523 1289 l 631 1289 l 647 1286 q 661 1289 652 1289 q 696 1237 696 1289 l 696 1090 q 669 1063 692 1063 l 623 1063 l 614 1069 l 547 1069 q 452 1074 459 1074 l 368 1074 q 338 1069 341 1069 l 305 1069 l 273 1072 l 275 1066 l 275 1050 q 273 1039 275 1044 q 275 1028 275 1034 l 275 1015 l 273 1015 l 229 1055 l 183 1055 l 183 1053 q 273 966 189 1053 q 270 898 270 921 l 267 898 l 107 1055 l 66 1055 q 61 1061 61 1055 l 61 1069 l 64 1085 q 56 1131 59 1093 q 58 1142 58 1136 l 56 1153 q 58 1156 56 1156 q 50 1261 58 1166 q 58 1283 52 1283 l 69 1283 l 75 1280 q 80 1286 75 1286 l 83 1286 q 85 1283 85 1286 l 91 1286 l 115 1286 q 137 1291 127 1286 m 61 1050 l 64 1050 q 376 738 224 893 l 376 735 q 321 719 355 735 q 58 987 58 983 l 58 998 q 61 1001 58 1001 l 58 1006 l 58 1017 q 64 1042 58 1024 q 61 1050 61 1047 m 476 952 q 479 949 479 952 l 492 952 l 511 949 l 517 952 q 601 939 601 945 q 674 901 658 922 q 707 854 699 873 l 707 846 q 720 792 713 846 l 718 779 q 728 770 728 777 l 723 768 l 726 754 l 726 741 q 720 735 726 735 l 723 730 l 723 667 l 728 659 l 728 656 l 726 640 q 728 637 726 637 l 726 610 l 726 589 q 723 578 726 583 q 726 567 726 573 q 720 543 720 549 q 726 532 726 536 q 723 529 726 529 l 726 515 l 726 507 q 723 496 726 501 q 726 494 723 494 q 720 461 722 466 l 723 456 q 720 426 720 437 l 720 415 q 715 410 720 410 q 726 393 715 406 l 726 382 q 709 328 720 372 q 715 323 715 328 l 715 315 q 709 301 715 301 l 712 296 l 712 282 l 709 266 l 715 250 q 704 209 712 218 l 709 201 l 693 144 l 696 127 l 688 122 l 680 127 q 669 103 680 108 q 642 65 654 66 q 576 35 642 52 q 433 0 568 27 q 37 393 425 0 q 34 423 37 414 q 45 458 39 458 l 476 27 l 476 73 l 365 187 l 365 190 q 397 184 397 188 q 433 190 410 190 l 435 190 l 476 152 l 476 195 q 465 209 465 208 l 465 212 q 487 269 487 230 q 490 298 487 283 q 487 301 490 301 q 490 317 487 303 q 484 382 490 337 l 490 486 q 487 499 487 490 q 490 502 487 502 l 487 518 l 490 534 q 487 556 487 545 q 490 559 487 559 q 484 583 484 569 q 490 618 484 603 q 473 692 484 627 q 286 879 288 874 q 324 911 292 879 l 327 911 l 473 765 l 476 765 l 476 808 l 359 928 q 392 944 374 930 l 416 944 l 476 887 l 476 928 q 460 947 460 945 l 460 949 l 476 952 m 61 930 q 297 694 176 819 l 297 692 q 281 673 297 673 q 221 700 237 673 q 53 871 53 863 q 56 928 56 918 l 61 930 m 45 819 l 50 819 q 189 681 58 815 l 189 678 l 170 681 l 115 681 q 39 762 39 751 q 47 800 41 800 l 45 806 l 45 819 m 45 705 l 61 686 l 56 684 l 50 684 q 39 703 39 688 l 45 705 m 140 461 l 145 458 q 153 461 151 461 q 218 407 172 461 q 292 334 222 406 l 292 326 q 289 323 292 323 q 297 301 292 301 l 294 274 l 294 269 l 300 260 l 300 255 l 297 255 q 96 456 205 343 l 96 458 l 110 458 q 140 461 121 458 m 218 458 l 232 458 q 235 456 235 458 l 240 458 q 283 448 283 456 q 286 391 286 400 l 283 391 q 218 456 279 391 l 218 458 m 37 342 l 39 342 q 378 3 217 168 l 378 0 l 365 3 l 362 3 q 283 24 283 3 q 224 84 281 24 q 145 163 222 84 l 64 244 q 39 277 39 263 l 39 296 l 42 312 q 37 326 37 321 l 39 331 q 37 342 37 336 m 61 198 q 243 16 146 117 l 243 14 q 151 54 185 23 q 107 98 113 77 q 61 195 82 113 l 61 198 z "},"6":{"ha":981,"x_min":34,"x_max":777,"o":"m 357 1324 q 406 1321 368 1324 l 406 1316 q 384 1294 384 1313 q 414 1270 384 1270 l 416 1270 q 433 1297 427 1270 q 419 1313 429 1313 l 419 1318 l 481 1318 l 514 1316 l 514 1310 q 498 1291 498 1310 l 498 1280 q 517 1264 498 1276 q 544 1289 544 1270 l 538 1308 l 541 1308 q 612 1272 612 1303 q 633 1261 612 1265 q 658 1267 644 1267 q 671 1253 665 1267 l 669 1221 q 699 1202 669 1204 l 726 1137 q 731 1131 731 1136 l 731 1128 l 728 1123 q 736 1118 736 1123 l 736 1112 q 728 1107 736 1107 l 728 1104 q 736 1085 736 1094 l 736 1077 q 728 1053 728 1067 l 739 1034 l 739 1031 q 734 1025 739 1025 l 728 1028 l 726 1015 l 723 1015 q 701 1028 713 1023 q 674 1012 675 1020 q 666 1015 671 1012 q 636 1006 636 1013 q 595 1028 612 1006 l 587 1028 q 555 1012 572 1028 l 547 1012 q 525 1034 527 1025 l 525 1036 q 547 1047 525 1040 l 549 1053 l 549 1069 q 536 1088 549 1081 l 530 1085 q 522 1088 525 1088 q 519 1085 522 1085 q 484 1142 511 1116 q 430 1164 452 1164 q 435 1183 435 1175 q 416 1202 432 1202 l 408 1202 q 389 1183 389 1202 l 389 1180 q 392 1161 392 1168 q 332 1126 332 1147 q 324 1082 332 1082 l 321 1082 q 302 1096 321 1090 q 281 1074 281 1092 l 281 1069 q 300 1047 283 1047 q 311 1050 304 1050 l 316 1050 l 319 1036 l 319 1025 q 308 982 319 982 q 283 960 283 982 q 308 936 287 936 l 316 936 l 316 933 q 311 871 315 871 q 286 849 286 867 q 308 825 290 825 l 305 811 q 397 854 357 846 l 400 849 l 400 846 q 397 844 400 844 q 419 819 407 819 q 446 849 446 819 l 441 857 l 446 860 l 473 860 q 484 854 480 854 q 514 857 508 857 l 514 854 q 511 838 511 840 q 533 817 514 817 q 557 838 557 818 l 557 844 l 555 849 l 560 852 l 566 852 l 625 827 q 674 806 625 817 q 688 760 680 798 l 701 757 l 709 757 q 728 760 721 760 q 742 727 742 733 l 739 722 q 758 694 741 707 q 769 632 769 659 q 742 608 749 632 q 774 583 742 586 l 777 567 l 774 551 q 777 543 774 548 q 750 513 777 513 l 747 494 l 747 488 q 769 467 747 486 q 766 407 766 419 q 750 385 750 401 q 764 361 750 374 q 761 288 764 354 q 755 279 755 288 q 758 250 755 268 q 709 122 736 122 q 685 73 699 73 q 650 49 650 73 q 544 3 650 27 l 533 3 q 503 22 522 22 q 479 3 489 22 q 463 0 477 3 l 463 3 l 457 0 l 444 0 q 441 3 441 0 l 435 0 l 425 0 q 408 22 420 0 q 384 27 404 24 l 365 5 l 357 5 q 349 11 350 11 l 343 8 q 292 27 302 12 l 281 30 q 262 24 275 30 q 224 35 227 35 l 224 41 q 248 65 241 41 q 224 90 248 78 q 199 62 203 90 l 202 49 l 197 49 q 153 87 174 64 q 107 136 140 92 q 91 152 103 136 l 91 157 l 96 157 q 132 182 132 157 q 113 203 126 197 l 107 203 q 85 182 85 203 l 80 182 q 66 220 66 213 q 75 236 72 236 q 56 320 60 252 l 56 328 q 69 347 69 336 q 50 380 69 362 l 50 393 q 47 415 50 405 q 50 437 50 426 l 50 442 q 64 458 64 442 l 64 467 q 47 488 64 479 l 47 551 q 61 572 61 562 l 61 586 q 47 600 61 588 l 47 629 q 45 659 47 641 q 58 686 58 677 l 58 697 q 42 719 42 716 q 45 735 42 721 q 42 746 45 741 q 56 800 42 766 q 42 825 56 806 q 37 890 37 880 q 50 909 50 894 l 50 914 q 34 936 50 930 q 45 998 39 998 q 42 1006 42 1004 l 56 1066 q 58 1069 56 1069 q 85 1055 62 1055 q 102 1077 102 1061 l 102 1082 q 91 1101 102 1097 l 75 1101 l 69 1099 q 66 1101 69 1101 q 123 1223 78 1158 l 126 1223 q 129 1221 129 1223 q 153 1245 153 1226 q 151 1253 151 1251 q 199 1280 180 1280 q 232 1299 207 1299 q 267 1308 246 1299 l 273 1308 l 273 1302 q 300 1272 273 1272 q 319 1294 316 1272 l 319 1299 q 311 1313 319 1313 l 311 1316 q 357 1324 311 1324 m 218 1237 q 237 1221 222 1221 l 254 1221 q 264 1240 264 1225 l 264 1242 q 251 1264 264 1257 l 243 1264 q 218 1237 218 1264 m 332 1242 l 332 1234 q 354 1215 332 1215 l 357 1215 q 378 1240 376 1215 q 354 1261 374 1261 q 332 1242 332 1261 m 444 1237 l 444 1234 q 463 1210 444 1219 q 490 1242 490 1210 q 471 1259 483 1259 q 444 1237 444 1259 m 555 1229 l 555 1223 q 582 1207 564 1207 q 604 1232 604 1216 q 579 1253 597 1253 l 576 1253 q 555 1229 555 1253 m 164 1185 q 183 1164 166 1164 q 191 1166 189 1166 l 191 1164 q 210 1185 208 1164 q 183 1210 210 1210 q 164 1185 164 1210 m 278 1196 l 278 1180 q 302 1161 278 1161 q 321 1180 321 1161 l 321 1188 q 292 1207 321 1207 q 278 1196 279 1202 m 500 1177 q 528 1153 500 1153 q 547 1175 547 1158 l 547 1188 q 528 1199 543 1199 l 522 1199 q 500 1177 500 1199 m 614 1177 l 614 1169 q 628 1150 614 1156 l 636 1150 q 661 1175 661 1150 q 636 1196 661 1192 q 614 1177 614 1196 m 110 1134 l 110 1126 q 134 1109 118 1109 q 156 1131 156 1113 l 156 1134 q 140 1156 156 1149 l 134 1156 q 110 1134 110 1156 m 221 1126 q 240 1107 227 1107 q 270 1128 270 1107 q 237 1153 270 1153 q 221 1126 224 1153 m 557 1118 q 582 1096 564 1096 l 590 1096 q 606 1126 606 1103 q 585 1142 601 1142 q 557 1118 557 1142 m 671 1112 l 671 1107 q 690 1093 677 1093 l 696 1093 q 718 1115 718 1093 q 693 1139 714 1139 q 671 1112 671 1139 m 167 1074 q 191 1053 167 1057 q 216 1077 216 1053 q 191 1099 208 1099 q 167 1074 167 1097 m 617 1063 l 617 1061 q 639 1039 617 1039 l 650 1039 q 663 1061 663 1046 l 663 1063 q 642 1085 662 1085 q 617 1063 617 1080 m 113 1025 q 137 998 113 998 l 140 998 q 159 1017 159 998 l 159 1034 q 140 1044 159 1040 q 113 1025 113 1042 m 227 1020 l 227 1009 q 243 993 227 1007 q 273 1020 273 993 q 251 1042 273 1033 q 227 1020 227 1038 m 58 971 q 85 944 58 944 q 104 963 104 944 l 104 968 q 83 990 103 990 q 58 971 58 987 m 172 966 q 194 939 172 939 q 218 963 218 944 q 208 985 215 985 l 191 985 q 172 966 172 985 m 118 911 l 118 906 q 137 884 118 890 q 164 911 164 884 q 142 930 164 928 l 137 930 q 118 911 118 930 m 229 906 q 256 882 229 882 q 275 903 273 882 q 251 928 275 928 q 229 906 229 928 m 64 865 l 64 852 q 75 833 64 838 l 91 833 q 107 849 107 833 l 107 857 q 88 876 107 876 l 83 876 q 64 865 68 876 m 175 852 q 202 827 175 827 q 221 849 218 827 l 221 852 q 199 873 221 873 l 197 873 q 175 852 175 873 m 121 798 l 121 795 q 142 773 122 773 q 167 795 167 774 q 137 819 167 819 q 121 798 121 814 m 232 800 q 256 770 232 770 l 259 770 q 278 781 274 770 l 278 803 q 256 817 278 810 q 232 800 239 814 m 346 792 q 370 765 346 765 q 392 792 389 765 q 373 811 392 811 l 370 811 q 346 792 346 811 m 457 781 q 481 762 465 762 q 503 784 503 762 l 503 787 q 479 808 503 808 q 457 781 457 808 m 568 779 q 590 760 568 762 q 617 781 617 760 q 590 806 612 806 q 568 779 572 806 m 66 738 q 88 719 66 719 q 113 741 113 719 q 88 765 113 765 q 66 738 66 765 m 178 738 q 199 716 180 716 l 205 716 q 224 735 224 716 l 224 741 q 197 762 224 762 q 178 738 182 762 m 292 738 q 319 711 292 711 q 338 741 338 715 q 324 757 334 752 l 316 757 q 292 738 292 757 m 403 732 q 433 708 403 708 q 449 730 449 713 l 449 735 q 427 754 449 754 q 403 732 403 753 m 514 724 q 538 705 522 705 q 563 730 563 705 q 544 751 557 745 q 514 724 514 749 m 628 722 l 628 713 q 650 700 628 707 q 674 722 674 705 q 647 749 674 745 q 628 722 628 743 m 123 678 q 142 662 127 662 l 145 662 q 172 681 172 664 q 145 708 172 703 q 123 678 126 708 m 237 684 l 237 670 q 248 659 237 666 l 264 659 q 283 673 277 659 q 262 703 283 703 l 256 703 q 237 684 237 703 m 349 678 q 365 651 349 664 q 346 629 355 651 l 343 629 q 313 646 332 646 q 294 624 297 646 q 313 597 294 607 q 302 572 302 583 l 302 534 q 297 507 302 529 l 300 496 q 297 488 300 494 q 300 450 300 465 l 300 442 q 294 426 300 435 l 300 423 q 297 382 297 396 l 297 350 l 292 350 q 273 366 292 366 q 248 347 248 366 l 248 342 q 270 320 251 320 q 292 339 292 320 l 297 339 l 302 282 l 300 277 q 365 190 317 217 q 397 174 368 190 l 406 179 l 408 179 q 430 152 414 179 q 446 146 439 146 q 468 171 468 146 q 460 190 468 178 q 479 209 460 194 q 503 201 489 201 l 506 201 q 522 231 522 206 q 495 250 522 243 l 492 255 q 498 296 498 281 l 498 309 q 519 339 519 323 q 495 366 517 347 l 495 377 q 498 380 495 380 l 495 385 l 495 420 q 514 448 514 435 l 514 450 q 495 472 514 467 l 498 491 l 492 540 q 511 567 511 540 q 487 589 511 574 q 414 662 469 662 l 403 662 q 392 692 395 662 q 373 700 384 697 q 349 678 349 699 m 460 675 q 490 651 460 651 l 495 651 q 506 662 499 651 l 506 686 q 490 697 506 691 q 460 675 460 694 m 574 673 l 574 670 q 598 646 577 646 q 620 670 620 651 l 620 678 q 598 692 610 692 l 587 692 q 574 673 574 686 m 685 659 q 707 643 690 643 q 731 665 731 643 q 701 689 731 689 q 685 659 685 684 m 69 629 l 69 624 q 94 605 74 611 q 118 632 118 612 q 99 654 109 654 q 69 629 69 654 m 180 627 q 205 602 184 602 q 229 627 229 606 q 205 651 229 643 q 180 627 189 651 m 519 618 l 519 616 q 544 591 519 595 q 566 618 564 591 q 541 637 566 637 l 538 637 q 519 618 519 637 m 631 610 q 655 589 635 589 q 680 613 673 589 q 661 635 673 628 l 655 635 q 631 610 631 635 m 126 572 q 145 548 131 554 l 151 548 q 175 578 175 548 q 153 597 165 597 q 126 572 126 591 m 240 564 l 240 559 q 264 545 245 545 q 286 567 286 545 q 262 591 286 591 q 240 564 240 591 m 576 559 q 606 534 576 534 q 623 556 623 540 l 623 562 q 595 581 623 581 q 576 559 576 575 m 688 551 q 712 532 696 532 l 715 532 q 736 556 736 532 l 736 559 q 715 578 730 572 q 688 551 688 574 m 72 518 q 99 494 77 494 q 121 521 121 496 q 99 540 115 540 q 72 518 72 540 m 186 515 l 186 513 q 216 491 186 491 q 232 513 232 496 l 232 515 q 213 537 230 537 q 186 515 186 537 m 522 505 q 547 480 525 480 q 568 502 568 480 l 568 505 q 547 526 568 526 q 522 505 522 526 m 633 502 q 661 475 633 480 q 682 496 673 475 q 658 524 682 524 q 633 502 633 517 m 132 461 q 161 437 132 437 q 178 458 178 442 q 156 483 178 483 q 132 461 132 481 m 243 453 q 264 434 248 434 l 270 434 q 292 458 288 434 q 273 480 292 471 q 243 453 243 480 m 582 456 l 582 442 q 606 423 582 423 q 628 445 628 425 q 604 469 623 469 q 582 456 582 462 m 693 437 q 715 418 693 425 l 720 420 q 723 418 723 420 q 739 445 737 418 q 728 464 739 460 l 726 464 q 693 445 693 464 l 693 437 m 77 407 q 107 382 77 382 q 123 404 123 388 q 102 429 123 429 q 77 407 77 427 m 189 399 q 210 380 194 380 l 224 380 q 235 399 235 385 l 235 404 q 218 426 235 418 q 189 399 189 426 m 528 401 l 528 380 q 547 369 532 369 l 552 369 q 571 380 567 369 l 571 401 q 552 412 567 412 l 547 412 q 528 401 532 412 m 639 385 l 639 380 q 669 363 639 369 q 685 388 682 363 q 663 410 683 410 l 658 410 q 639 385 639 410 m 137 358 l 137 336 q 148 326 137 332 l 170 326 q 180 336 174 326 l 180 350 q 161 369 180 369 l 148 369 q 137 358 144 369 m 585 336 l 585 331 q 595 312 585 317 l 620 312 q 631 331 631 317 q 609 355 631 355 l 604 355 q 585 336 585 355 m 696 334 q 720 307 696 307 q 742 326 742 307 l 742 331 q 720 353 741 353 q 712 350 715 350 l 712 353 q 696 334 696 347 m 80 288 q 99 269 80 275 q 126 282 126 273 l 126 290 q 107 315 126 315 l 94 315 q 80 288 80 308 m 194 293 l 194 288 q 216 266 195 266 q 240 293 240 266 q 213 312 240 310 q 194 293 194 312 m 530 277 l 530 269 q 549 255 533 259 q 576 277 576 255 q 552 301 576 301 q 530 277 530 301 m 642 279 q 666 252 642 252 q 674 255 671 255 l 674 252 q 688 271 688 256 l 688 277 q 671 298 688 292 q 663 296 666 296 l 658 298 q 642 279 642 292 m 140 239 l 140 231 q 159 212 140 212 q 186 231 186 214 q 161 258 186 258 l 153 258 q 140 239 140 252 m 251 233 q 273 209 251 209 l 275 209 q 297 231 297 209 q 270 255 297 255 q 251 233 251 250 m 587 217 q 609 198 587 198 q 633 225 633 198 q 609 244 625 244 q 587 217 587 244 m 701 228 l 701 206 q 712 195 701 202 l 726 195 q 745 206 741 195 l 745 220 q 726 239 745 239 l 720 239 q 701 228 706 239 m 197 179 l 197 174 q 221 155 197 155 q 243 176 243 157 q 216 201 243 201 q 197 179 197 195 m 308 174 q 330 152 311 152 l 335 152 q 354 163 350 152 l 354 176 q 343 195 354 191 l 330 195 q 308 174 308 194 m 533 168 l 533 165 q 555 144 533 144 q 579 168 579 144 l 579 176 q 557 190 572 190 l 549 190 q 533 168 533 183 m 644 160 q 669 138 644 143 q 693 165 693 144 q 666 187 684 187 q 644 160 644 179 m 142 125 l 142 119 q 161 100 142 100 l 167 100 q 189 122 189 100 q 161 146 189 146 q 142 125 142 141 m 254 114 q 273 98 258 98 l 281 98 q 302 114 294 98 q 281 141 302 141 l 275 141 q 254 114 254 141 m 368 119 l 368 114 q 387 92 368 97 l 392 95 l 397 92 q 414 114 414 98 q 387 138 414 138 q 368 119 368 138 m 479 114 q 500 90 481 90 q 525 114 525 90 q 506 136 522 136 q 479 114 479 136 m 590 106 l 590 103 q 614 84 596 89 q 639 114 639 90 q 620 133 639 121 q 590 106 590 130 m 313 65 l 313 57 q 332 38 313 38 q 359 54 359 41 q 327 84 359 84 q 313 65 313 80 m 425 60 q 452 35 425 35 q 471 54 471 35 l 471 60 q 452 81 471 77 l 446 79 l 444 79 q 441 81 441 79 q 425 60 425 76 m 536 54 q 563 30 543 30 q 582 52 582 35 l 582 65 q 563 76 578 76 l 557 76 q 536 54 536 75 z "},"7":{"ha":921,"x_min":34,"x_max":718,"o":"m 175 1267 l 384 1055 l 384 1053 l 381 1053 q 373 1055 373 1053 l 359 1053 l 338 1053 q 129 1261 223 1163 l 137 1261 l 145 1256 q 175 1267 145 1262 m 251 1261 l 300 1261 l 522 1042 l 590 1042 l 378 1256 l 378 1259 l 392 1259 q 446 1240 446 1259 q 636 1050 636 1051 l 647 1042 l 707 1042 q 712 1036 712 1041 l 712 1028 q 690 928 701 1004 q 549 475 655 853 q 465 190 500 326 q 449 117 456 184 q 435 76 441 117 q 419 57 425 57 q 422 49 422 52 q 403 0 407 1 l 384 3 l 368 3 q 365 5 365 3 q 335 0 359 3 q 275 11 275 8 l 270 8 l 267 8 q 262 14 262 8 q 232 8 239 8 l 227 11 q 202 5 222 8 l 202 8 q 194 5 197 5 q 178 16 178 5 q 221 163 191 76 l 283 363 q 327 515 292 407 q 400 798 365 640 q 408 811 403 798 q 406 822 406 816 q 454 987 449 959 l 454 1006 l 449 1015 l 449 1034 q 441 1039 441 1034 l 441 1042 l 468 1042 l 251 1261 m 58 1259 q 262 1055 144 1176 l 262 1053 l 259 1053 q 227 1058 243 1053 l 210 1055 q 37 1229 207 1055 q 50 1259 45 1254 l 58 1259 m 620 1259 l 625 1259 q 636 1256 631 1259 l 642 1259 q 701 1226 685 1259 q 718 1213 708 1226 q 709 1166 713 1197 q 620 1256 706 1166 l 620 1259 m 503 1256 l 552 1256 q 709 1093 709 1105 l 709 1050 l 707 1050 q 503 1253 621 1133 l 503 1256 m 34 1156 l 39 1156 l 137 1058 l 137 1055 l 132 1055 l 113 1053 l 113 1055 l 107 1053 l 91 1053 q 34 1109 87 1053 l 34 1112 q 37 1139 34 1125 l 34 1156 z "},"8":{"ha":918,"x_min":34,"x_max":715,"o":"m 389 1297 q 441 1286 410 1297 q 457 1291 450 1291 l 471 1291 q 503 1283 477 1291 l 509 1286 q 519 1283 513 1283 l 517 1270 l 517 1261 q 525 1253 517 1257 l 538 1253 q 552 1267 541 1253 l 555 1267 q 617 1221 616 1236 q 628 1218 622 1218 q 639 1221 629 1218 q 647 1213 639 1217 q 642 1202 645 1202 q 661 1185 642 1185 l 671 1188 q 688 1150 671 1162 l 688 1147 q 677 1112 688 1122 l 677 1109 q 701 1088 677 1091 q 704 1063 701 1078 q 680 1050 687 1063 l 680 1047 q 699 1028 680 1028 q 707 1031 704 1031 q 715 996 707 1007 l 715 993 l 712 993 q 696 998 703 998 q 680 985 686 998 q 699 966 685 966 q 712 971 707 971 q 715 963 715 966 l 712 952 q 715 944 715 947 q 712 933 712 939 l 699 936 l 693 936 q 682 917 682 932 q 696 903 682 913 l 701 903 l 707 906 l 709 901 l 709 879 q 688 868 709 876 l 685 863 l 685 860 q 699 838 685 849 q 693 830 693 838 l 690 830 q 669 844 680 844 l 666 844 q 655 833 662 844 l 655 822 q 680 811 659 811 l 661 789 l 658 789 q 639 814 658 814 l 636 814 q 625 803 632 814 l 625 792 q 644 781 625 781 l 644 776 q 631 768 640 776 q 609 784 620 784 l 606 784 q 593 768 602 784 q 606 749 593 765 l 601 746 l 595 746 l 579 754 q 563 738 571 754 q 566 730 566 732 q 563 727 563 730 q 598 711 598 718 l 595 705 q 606 689 601 689 l 617 689 l 628 697 l 631 697 q 639 689 635 697 q 628 670 628 685 q 647 656 632 656 l 650 656 l 658 662 l 661 662 q 666 656 666 661 l 666 654 l 661 646 l 661 635 q 685 621 661 628 l 693 591 l 690 591 l 674 594 q 663 583 670 594 l 663 572 q 682 562 668 562 q 693 572 693 564 l 699 572 q 701 562 699 566 q 696 545 696 553 l 696 540 q 707 529 696 536 l 704 524 q 709 502 709 505 q 696 483 696 494 q 704 456 704 469 l 704 453 l 699 453 q 688 469 699 465 l 677 469 q 666 456 671 468 q 685 437 666 437 q 699 442 694 442 l 701 437 q 699 407 699 418 l 699 404 l 685 407 l 680 407 q 669 396 675 407 l 669 385 q 685 374 674 374 l 699 377 l 704 339 l 701 339 q 685 345 692 345 l 682 345 q 669 328 677 345 q 690 312 674 312 l 696 315 l 699 309 l 699 307 q 688 282 691 282 q 671 269 678 282 q 688 247 673 256 l 688 239 q 674 209 688 222 l 674 201 q 682 182 682 191 l 682 179 q 647 117 682 142 l 647 114 q 650 92 650 95 l 644 92 l 636 98 l 628 98 q 617 87 624 98 l 617 81 q 628 62 617 72 l 628 60 q 620 52 628 56 l 617 52 q 606 68 617 64 q 585 52 590 68 q 595 35 585 49 l 587 30 l 571 38 q 525 19 548 19 q 509 38 525 38 l 503 38 q 492 27 500 38 l 495 22 l 495 11 l 476 8 l 457 8 l 457 11 q 465 22 463 22 q 446 41 462 41 q 430 24 434 41 q 441 8 430 22 l 441 5 l 435 5 q 414 11 416 11 q 373 0 398 0 q 362 11 373 4 q 338 0 362 0 l 305 0 q 191 46 223 0 q 107 109 172 46 q 64 176 64 161 q 39 298 39 193 q 42 320 42 309 l 37 331 q 39 347 37 333 q 37 353 39 353 l 39 380 l 39 418 q 37 475 39 439 q 42 488 42 484 q 37 505 37 497 l 37 507 q 39 510 37 510 l 37 515 q 64 637 50 637 q 77 665 64 652 q 151 735 77 683 q 66 814 101 761 q 39 887 44 854 l 42 901 q 34 958 42 908 q 37 993 37 975 l 37 1015 q 50 1080 41 1023 q 88 1183 70 1141 q 186 1248 159 1248 q 294 1286 218 1273 q 297 1289 294 1289 l 332 1289 q 365 1294 346 1289 q 370 1289 366 1289 l 381 1289 q 389 1297 385 1289 m 392 1278 l 392 1267 q 411 1256 397 1256 q 425 1275 425 1260 q 411 1289 425 1278 l 403 1289 q 392 1278 399 1289 m 454 1270 l 454 1264 q 471 1253 460 1253 q 487 1267 482 1257 q 476 1286 484 1286 l 471 1286 q 454 1270 454 1286 m 362 1248 l 362 1237 q 373 1226 362 1233 l 376 1226 q 395 1242 395 1226 q 381 1259 391 1254 q 362 1248 367 1259 m 422 1242 q 438 1223 422 1230 q 457 1240 452 1223 q 438 1256 453 1256 q 422 1242 429 1256 m 484 1237 q 503 1221 490 1221 q 519 1237 511 1221 q 509 1253 514 1253 l 495 1253 q 484 1237 491 1253 m 549 1242 l 549 1229 q 557 1221 549 1225 l 571 1221 q 582 1242 579 1221 q 566 1253 568 1253 q 549 1242 549 1248 m 395 1215 l 395 1204 q 406 1194 395 1200 l 414 1194 q 425 1204 418 1194 l 425 1215 q 414 1226 425 1219 l 406 1226 q 395 1215 401 1226 m 454 1210 q 473 1191 460 1191 q 487 1202 486 1196 l 487 1207 q 471 1223 487 1223 l 465 1223 q 454 1210 461 1223 m 517 1204 q 530 1188 517 1200 q 549 1199 549 1193 l 549 1213 q 533 1223 549 1217 q 517 1204 517 1217 m 579 1204 q 590 1188 585 1188 l 595 1188 q 614 1204 610 1188 q 601 1221 611 1216 q 579 1204 585 1221 m 283 1066 l 286 1050 q 283 1047 286 1047 l 286 1028 l 286 1020 l 283 1004 l 286 998 l 278 949 q 283 914 283 937 l 283 901 l 289 892 l 289 884 l 286 879 q 292 873 292 878 q 289 863 292 867 q 351 792 309 792 q 362 784 362 787 l 362 760 l 365 760 q 378 776 378 765 q 373 789 373 785 l 376 789 l 389 787 q 435 811 408 789 l 438 811 l 438 798 q 457 787 443 787 q 471 800 465 789 q 457 822 471 812 q 463 830 463 822 l 468 830 q 484 817 468 819 q 500 830 496 821 q 481 849 500 849 l 479 849 l 468 841 l 465 841 l 465 844 l 471 852 l 471 882 l 473 882 l 484 879 q 498 890 496 884 l 498 895 q 479 914 498 911 q 476 925 476 919 l 476 930 l 479 936 q 476 939 476 936 q 495 952 494 945 l 495 966 q 476 979 495 969 l 476 982 q 495 1020 476 1000 l 495 1023 q 476 1055 476 1043 l 476 1063 q 492 1085 492 1072 l 492 1088 q 481 1099 492 1092 l 463 1099 q 438 1153 463 1120 l 438 1161 q 457 1172 457 1161 l 457 1183 q 446 1194 457 1187 l 435 1194 q 425 1175 425 1190 l 427 1169 l 425 1169 q 392 1191 392 1179 l 381 1196 q 359 1175 367 1196 q 305 1137 338 1175 q 286 1069 294 1112 q 283 1066 283 1069 m 487 1177 q 503 1158 487 1166 q 519 1169 519 1164 l 519 1175 q 503 1191 519 1191 l 498 1191 q 487 1177 492 1190 m 549 1172 q 560 1158 555 1160 l 574 1158 q 582 1175 582 1161 l 582 1180 q 566 1191 582 1185 q 549 1172 549 1185 m 612 1175 q 623 1156 612 1160 l 628 1156 q 644 1172 644 1156 l 644 1177 q 633 1188 644 1181 l 625 1188 q 612 1175 622 1188 m 457 1142 q 471 1128 457 1139 q 490 1139 486 1128 l 490 1150 q 479 1161 490 1154 l 468 1161 q 457 1142 457 1157 m 519 1142 q 530 1128 525 1130 l 544 1128 q 552 1145 552 1131 l 552 1147 q 538 1161 552 1150 q 519 1142 519 1156 m 582 1139 q 601 1126 586 1126 l 604 1126 q 614 1137 608 1126 l 614 1147 q 598 1158 609 1158 q 582 1139 582 1154 m 644 1137 q 655 1123 650 1124 l 666 1123 q 677 1134 670 1123 l 677 1145 q 666 1156 677 1149 l 663 1156 q 644 1137 644 1156 m 490 1118 l 490 1109 q 509 1096 492 1101 q 522 1115 522 1100 l 522 1118 q 511 1128 522 1122 l 500 1128 q 490 1118 496 1128 m 552 1109 l 552 1107 q 563 1096 552 1103 l 574 1096 q 585 1107 578 1096 l 585 1109 q 568 1128 585 1124 q 552 1109 552 1124 m 614 1115 l 614 1112 q 633 1093 614 1093 l 636 1093 q 647 1104 640 1093 l 647 1115 q 628 1126 643 1126 q 614 1115 616 1120 m 522 1080 l 522 1077 q 533 1066 522 1073 l 538 1066 q 555 1082 555 1066 l 555 1085 l 544 1099 q 522 1080 522 1099 m 585 1085 l 585 1074 q 595 1063 585 1070 l 606 1063 q 617 1074 610 1063 l 617 1077 q 598 1096 617 1096 q 585 1085 586 1090 m 647 1082 l 647 1080 q 666 1061 647 1061 q 680 1080 680 1065 q 661 1093 675 1093 q 647 1082 648 1088 m 492 1050 q 509 1034 492 1039 q 525 1047 520 1038 q 514 1066 525 1062 l 509 1066 q 492 1050 492 1066 m 555 1055 l 555 1044 q 566 1034 555 1040 l 576 1034 q 587 1044 581 1034 l 587 1053 l 576 1066 q 555 1055 555 1063 m 617 1053 l 617 1042 q 636 1031 622 1031 q 650 1050 650 1035 q 636 1063 648 1057 l 628 1063 q 617 1053 624 1063 m 525 1025 l 525 1020 q 541 1001 525 1005 q 557 1017 549 1001 q 541 1036 557 1028 q 525 1025 525 1031 m 587 1023 l 587 1012 q 598 1001 587 1008 l 601 1001 q 620 1020 620 1001 q 606 1034 620 1023 q 587 1023 592 1034 m 647 1017 q 663 998 647 1005 q 682 1015 677 998 q 663 1031 678 1031 l 661 1031 q 647 1017 658 1031 m 495 996 l 495 982 q 511 971 495 977 q 528 990 528 978 q 509 1004 524 1004 l 503 1004 q 495 996 499 1004 m 555 987 q 574 971 559 971 q 590 985 584 971 q 571 1004 585 1004 q 555 987 564 1004 m 620 990 l 620 979 q 631 968 620 975 l 639 968 q 650 979 643 968 l 650 990 q 639 1001 650 994 l 631 1001 q 620 990 627 1001 m 525 958 q 536 941 530 941 l 549 941 q 560 960 557 941 q 541 974 547 974 q 525 958 533 974 m 587 955 q 606 939 591 939 l 609 939 q 623 952 612 939 q 604 971 617 971 q 587 955 595 971 m 650 947 l 663 936 l 671 936 q 682 947 675 936 l 682 958 q 671 968 682 962 l 669 968 q 650 947 650 968 m 495 922 q 511 909 500 913 q 528 928 528 909 l 528 933 q 519 941 528 937 l 506 941 q 495 922 495 937 m 557 928 q 568 909 557 913 l 574 909 q 590 925 590 909 q 574 941 588 941 q 557 928 563 938 m 620 920 q 639 906 624 906 l 642 906 q 655 920 644 906 q 633 939 655 936 q 620 920 620 935 m 528 898 l 528 890 q 538 879 528 886 l 549 879 q 560 890 553 879 l 560 901 q 547 911 560 905 q 528 898 530 906 m 590 892 q 606 876 590 876 l 612 876 q 623 887 616 876 l 623 890 q 604 909 623 909 q 590 892 590 905 m 652 887 q 671 873 656 873 q 685 884 684 879 l 685 895 q 674 906 685 899 l 663 906 q 652 887 652 902 m 498 868 l 498 860 q 514 846 503 850 q 530 865 530 850 q 514 879 530 879 l 509 879 q 498 868 505 879 m 560 860 l 560 857 q 571 846 560 853 l 582 846 q 593 857 586 846 l 593 860 q 576 879 593 879 q 560 860 560 875 m 623 857 l 623 854 q 633 844 623 850 l 636 844 q 655 854 651 844 l 655 857 q 636 876 655 876 q 623 857 623 872 m 530 830 l 530 827 q 541 817 530 823 l 552 817 q 563 836 563 821 q 555 846 559 846 l 538 846 q 530 830 530 844 m 593 836 l 593 825 q 604 814 593 821 l 614 814 q 625 833 625 819 q 606 846 621 846 q 593 836 594 841 m 500 800 l 500 795 q 517 784 500 789 q 533 798 528 788 q 517 819 533 812 q 500 800 500 815 m 563 806 l 563 795 q 574 784 563 791 l 585 784 q 595 803 595 789 q 576 817 591 817 q 563 806 564 811 m 408 779 l 408 768 q 427 757 413 757 q 441 770 430 757 q 422 789 439 789 l 419 789 q 408 779 415 789 m 471 779 l 471 765 q 487 754 476 754 q 503 773 503 761 q 484 787 499 787 q 471 779 471 785 m 530 770 q 541 754 536 754 l 555 754 q 566 768 560 755 q 549 787 566 779 q 530 770 537 787 m 376 746 q 395 727 379 727 q 411 743 406 727 q 392 760 405 760 q 376 746 387 760 m 438 741 q 457 724 444 724 q 473 738 463 724 q 454 757 471 757 q 438 741 442 757 m 503 746 l 503 732 q 517 722 505 727 q 533 732 533 727 l 533 746 q 517 754 530 754 l 511 754 q 503 746 507 754 m 362 730 l 362 697 q 378 713 378 697 l 378 719 q 368 730 378 723 l 362 730 m 408 713 q 427 694 408 694 q 444 711 434 694 q 430 727 440 722 l 427 727 q 408 713 412 727 m 471 708 q 487 692 471 700 q 503 703 503 697 l 503 716 q 495 724 503 720 l 481 724 q 471 708 471 719 m 533 705 q 544 692 538 693 l 557 692 q 566 708 566 694 q 549 724 566 720 q 533 705 533 718 m 378 678 q 389 665 384 666 l 400 665 q 411 675 404 665 l 411 686 q 400 697 411 690 l 397 697 q 378 678 378 697 m 441 675 q 460 662 441 666 q 473 673 472 667 l 473 684 q 463 694 473 688 l 452 694 q 441 675 441 690 m 503 681 q 517 659 503 668 q 536 678 536 661 q 528 692 534 692 l 514 692 q 503 681 510 692 m 566 678 l 566 670 q 576 659 566 666 l 582 659 q 598 675 598 659 q 585 692 598 688 q 566 678 572 692 m 362 667 l 362 635 l 370 635 q 381 646 374 635 l 381 648 q 362 667 381 667 m 411 646 l 411 643 q 422 632 411 639 l 425 632 q 444 643 439 632 l 444 654 q 433 665 444 658 l 430 665 q 411 646 411 665 m 473 643 q 490 629 473 637 q 506 648 506 629 l 506 651 q 495 662 506 655 l 484 662 q 473 643 473 658 m 536 643 q 547 629 541 631 l 552 629 q 568 646 568 629 l 568 651 q 552 662 568 656 q 536 643 536 658 m 598 640 l 598 637 q 609 627 598 633 l 620 627 q 631 637 624 627 l 631 640 q 612 659 631 659 q 598 640 598 655 m 270 475 l 270 469 q 275 464 271 464 l 267 347 q 275 317 275 324 q 270 301 270 307 q 311 157 270 190 q 362 114 362 125 l 362 111 l 365 111 q 370 119 365 119 l 392 119 q 408 103 406 103 l 411 103 q 430 122 430 103 l 425 133 l 430 136 q 446 133 444 133 q 460 152 460 137 q 454 168 454 161 q 457 171 457 168 l 471 163 q 490 182 490 163 l 490 184 q 479 195 490 189 l 473 195 l 460 193 l 460 222 l 463 228 l 468 225 q 487 236 483 225 l 487 247 q 463 260 479 260 l 463 263 l 465 277 q 463 285 463 282 q 487 304 487 293 q 463 323 487 318 l 463 350 q 484 369 484 350 l 484 372 q 460 385 477 385 l 460 396 q 481 423 460 409 l 481 434 q 460 450 481 439 l 460 469 q 479 486 479 482 l 479 496 q 457 510 479 503 q 449 540 449 536 l 468 537 q 479 551 468 538 q 460 570 479 570 q 449 562 449 570 l 444 562 l 444 564 q 446 589 444 574 q 425 608 446 595 q 395 635 412 635 l 321 618 q 289 553 297 600 q 270 475 270 512 m 444 621 l 444 610 q 454 600 444 606 l 457 600 q 476 618 476 600 l 476 621 q 465 632 476 625 l 454 632 q 444 621 450 632 m 506 613 q 522 597 506 603 q 538 610 534 601 l 538 618 q 528 629 538 623 l 522 629 q 506 613 506 629 m 568 610 l 568 608 q 579 597 568 604 l 590 597 q 601 608 594 597 l 601 618 q 582 629 601 626 q 568 610 568 625 m 631 616 l 631 605 q 642 594 631 601 l 644 594 q 663 613 663 594 q 644 627 659 627 q 631 616 632 621 m 476 589 l 476 578 q 492 567 476 574 q 509 586 509 571 l 509 589 q 498 600 509 593 l 487 600 q 476 589 483 600 m 538 589 l 538 583 q 555 567 538 567 l 560 567 q 571 583 571 572 q 555 600 571 591 q 538 589 538 594 m 601 586 l 601 575 q 612 564 601 571 l 623 564 q 633 578 628 566 q 614 597 633 597 q 601 586 602 591 m 509 559 l 509 545 q 525 534 509 541 q 541 556 541 540 q 530 567 541 560 l 517 567 q 509 559 513 567 m 571 556 l 571 551 q 587 534 571 534 l 593 534 q 604 551 598 534 q 585 567 597 567 q 571 556 572 562 m 633 553 l 633 543 q 644 532 633 538 l 647 532 q 666 548 666 532 q 647 564 666 564 l 644 564 q 633 553 640 564 m 476 521 q 495 505 482 505 q 511 518 500 505 q 492 537 509 537 q 476 521 480 537 m 538 524 q 549 505 543 505 l 563 505 q 574 526 571 505 l 563 534 l 549 534 q 538 524 547 534 m 601 521 q 620 502 604 502 q 636 518 631 502 q 617 534 630 534 q 601 521 612 534 m 666 515 l 666 510 q 685 499 671 499 l 699 513 q 680 532 696 532 q 666 515 666 532 m 509 488 q 525 472 509 480 q 541 483 541 477 l 541 496 q 533 505 541 500 l 519 505 q 509 488 509 499 m 571 491 q 582 472 575 472 l 587 472 q 604 488 604 472 l 604 494 q 593 505 604 498 q 571 491 578 505 m 633 486 q 652 469 637 469 l 655 469 q 669 486 665 475 q 647 502 663 502 q 633 486 639 500 m 479 461 q 498 442 479 442 q 511 453 510 448 l 511 464 q 500 475 511 468 l 490 475 q 479 461 484 473 m 541 456 q 557 439 541 448 q 574 458 574 444 l 574 464 q 557 475 574 469 q 541 456 541 469 m 604 453 q 614 439 609 441 l 625 439 q 636 450 629 439 l 636 461 q 625 472 636 465 q 604 453 604 472 m 511 431 l 511 429 q 528 410 511 413 q 544 429 544 414 l 544 431 q 530 445 544 434 q 511 431 513 439 m 585 442 q 574 423 574 433 q 585 410 579 411 l 595 410 q 606 420 600 410 l 606 423 q 585 442 606 442 m 636 420 l 636 418 q 647 407 636 414 l 658 407 q 669 418 662 407 l 669 429 q 658 439 669 433 l 655 439 q 636 420 636 439 m 481 401 l 481 399 q 495 380 481 385 q 514 399 514 380 l 514 401 q 503 412 514 406 l 492 412 q 481 401 488 412 m 544 393 q 560 380 544 380 l 566 380 q 576 391 570 380 l 576 393 q 563 412 576 406 q 544 393 544 409 m 606 399 l 606 396 q 625 377 606 377 l 628 377 q 639 388 632 377 l 639 391 q 620 410 639 410 q 606 399 608 404 m 514 363 q 530 347 514 353 q 547 361 542 351 l 547 369 q 533 382 547 372 q 514 363 514 379 m 576 369 l 576 363 q 593 347 576 347 l 598 347 q 609 358 602 347 l 609 366 q 593 380 604 376 q 576 369 576 374 m 639 366 l 639 355 q 658 345 644 345 q 671 363 671 349 q 652 377 667 377 q 639 366 640 372 m 484 334 q 500 317 484 323 q 517 336 517 323 q 506 350 511 349 l 500 350 q 484 334 484 350 m 547 339 l 547 334 q 563 317 547 317 l 568 317 q 579 328 572 317 l 579 336 q 566 350 579 340 q 547 339 547 347 m 609 336 l 609 331 q 625 315 609 315 q 642 331 642 317 q 623 347 635 347 q 609 336 610 342 m 517 309 l 517 304 q 530 285 517 292 q 549 301 543 285 q 538 317 544 317 l 525 317 q 517 309 521 317 m 579 307 l 579 293 q 595 285 582 285 q 612 301 608 285 q 598 317 608 313 q 579 307 584 317 m 639 301 q 661 282 642 282 q 674 298 669 284 q 652 315 669 315 q 639 301 650 315 m 484 271 q 503 255 491 255 q 519 271 511 255 q 500 288 519 288 l 495 288 q 484 271 490 288 m 547 271 q 566 255 551 255 q 582 269 576 255 q 563 288 582 282 q 547 271 556 288 m 609 269 q 628 252 609 252 l 631 252 q 642 263 635 252 l 642 274 q 631 285 642 278 l 623 285 q 609 269 618 285 m 517 239 q 533 222 517 232 q 549 233 549 228 l 549 239 q 533 255 549 255 l 528 255 q 517 239 517 250 m 579 241 l 579 236 q 598 222 585 222 q 614 236 607 222 q 595 255 614 250 q 579 241 585 252 m 642 233 q 661 220 646 220 l 663 220 q 674 231 667 220 l 674 241 q 663 252 674 245 l 661 252 q 642 233 642 252 m 487 206 q 503 193 492 193 q 519 203 519 198 l 519 214 q 509 225 519 218 l 498 225 q 487 206 487 221 m 549 206 q 560 193 555 194 l 566 193 q 582 209 582 193 q 566 225 582 221 q 549 206 549 219 m 612 203 q 625 190 612 200 l 633 190 q 644 201 637 190 l 644 212 q 625 222 640 222 q 612 203 612 218 m 519 182 l 519 179 q 536 160 519 163 q 552 179 552 164 l 552 182 q 538 195 552 184 q 519 182 522 190 m 582 174 q 593 160 587 161 l 604 160 q 614 171 608 160 l 614 174 q 595 193 614 193 q 582 174 582 189 m 644 171 q 658 157 644 168 l 666 157 q 677 168 670 157 l 677 179 q 666 190 677 183 l 655 190 q 644 171 644 186 m 490 152 l 490 149 q 506 130 492 130 q 522 149 522 134 l 522 152 q 511 163 522 156 l 500 163 q 490 152 496 163 m 552 144 q 568 130 552 130 l 574 130 q 585 141 578 130 l 585 144 q 571 163 585 156 q 552 144 552 159 m 614 149 l 614 138 q 625 127 614 134 l 636 127 q 647 138 640 127 l 647 141 q 628 160 647 160 q 614 149 616 155 m 460 122 l 460 111 q 476 100 465 100 q 492 114 488 104 q 473 133 492 133 l 471 133 q 460 122 467 133 m 522 114 q 538 100 522 100 l 544 100 q 555 111 548 100 l 555 119 q 544 130 555 123 l 530 130 q 522 114 522 127 m 585 119 l 585 106 q 601 98 587 98 l 606 98 q 617 117 617 102 q 604 130 615 124 l 595 130 q 585 119 591 130 m 368 95 l 368 84 q 378 73 368 80 l 381 73 q 400 90 400 73 q 381 106 395 106 q 368 95 369 100 m 430 92 l 430 81 q 441 71 430 77 l 444 71 q 463 92 463 71 q 444 103 453 103 l 441 103 q 430 92 437 103 m 490 87 q 509 68 490 73 q 525 84 517 68 q 509 103 524 94 q 490 87 496 100 m 555 90 l 555 84 q 571 68 555 68 l 576 68 q 587 87 587 73 q 568 100 587 93 q 555 90 556 95 m 397 57 q 411 41 401 46 l 419 41 q 433 54 423 41 q 414 73 429 73 l 411 73 q 397 57 406 73 m 362 71 l 362 46 q 370 60 367 46 q 362 71 366 71 m 463 62 l 463 49 q 473 38 463 45 q 495 60 495 39 q 476 71 486 71 q 463 62 463 68 m 522 54 q 538 35 522 43 q 557 52 549 35 q 541 71 557 62 q 522 54 529 71 m 368 27 q 387 11 368 11 q 403 27 397 11 q 384 43 397 43 q 368 27 376 43 z "},"9":{"ha":981,"x_min":34,"x_max":777,"o":"m 454 -7 q 373 -1 385 -1 l 330 -1 l 235 15 q 159 50 203 25 q 126 88 144 50 q 96 156 105 125 q 80 186 92 159 l 80 189 l 83 194 q 75 199 75 194 l 75 205 q 83 210 75 210 l 83 213 q 75 232 75 223 l 77 248 q 75 256 75 254 q 77 264 77 262 q 72 270 72 265 l 72 286 q 77 292 72 292 l 83 289 q 88 305 83 294 q 115 302 96 302 q 121 308 115 308 l 148 302 q 175 311 175 305 q 197 308 190 308 l 210 311 q 216 305 210 305 q 224 308 221 308 q 229 302 224 302 l 245 302 l 264 305 q 286 283 284 292 l 286 264 q 319 186 296 201 q 354 161 334 165 q 359 156 354 156 l 416 156 q 479 208 479 165 q 495 270 481 235 l 492 275 l 492 283 q 498 349 492 314 q 495 384 498 361 q 498 479 498 430 l 498 481 q 506 500 498 490 l 506 506 q 384 457 449 465 l 338 457 q 332 463 332 458 q 283 460 300 460 q 118 530 177 479 q 75 571 90 540 q 37 736 37 645 l 34 750 l 37 766 q 34 772 37 772 q 53 1073 45 876 q 107 1225 71 1174 q 262 1314 151 1288 l 330 1314 l 349 1317 l 349 1314 l 354 1317 l 368 1317 q 370 1314 370 1317 q 373 1317 373 1314 q 463 1306 463 1313 l 468 1309 q 598 1276 536 1300 q 669 1222 627 1262 q 693 1195 674 1222 l 720 1165 l 720 1162 l 718 1157 q 747 1092 725 1157 q 750 1070 750 1077 l 747 1070 l 750 1065 q 758 972 750 1025 l 755 962 q 764 902 761 934 l 761 888 l 764 875 q 761 869 764 869 l 764 842 l 764 777 q 766 764 764 768 l 764 747 l 764 688 q 766 661 764 675 q 764 642 764 650 q 769 595 764 625 l 766 582 q 769 571 766 576 q 766 547 766 556 q 769 525 766 545 l 766 525 q 769 517 769 519 q 777 381 769 498 q 766 319 772 319 q 769 311 769 313 q 726 156 758 250 q 663 64 688 87 l 614 28 q 557 15 606 20 q 481 -4 551 10 q 454 -7 481 -7 m 509 745 l 509 758 q 514 831 509 805 q 511 867 511 849 l 511 875 q 517 891 511 882 l 511 894 q 514 935 514 921 l 514 940 q 509 1035 514 989 l 511 1040 q 446 1127 494 1100 q 414 1143 444 1127 l 406 1138 l 403 1138 l 389 1146 q 384 1141 389 1141 l 381 1141 q 378 1143 378 1141 q 319 1095 368 1143 q 316 1076 316 1084 l 319 1057 q 313 1021 313 1044 l 313 1000 q 311 989 313 994 q 313 978 313 984 l 313 972 q 311 970 313 970 q 316 937 316 957 l 313 937 l 316 932 l 316 867 q 313 818 316 844 q 332 701 324 735 q 419 652 351 652 q 506 731 446 652 l 509 745 z "}," ":{"ha":544,"x_min":0,"x_max":0,"o":""},"":{"ha":544,"x_min":0,"x_max":0,"o":""},"!":{"ha":536,"x_min":34,"x_max":332,"o":"m 61 1261 q 159 1253 77 1261 l 175 1256 q 178 1253 178 1256 l 197 1256 q 227 1253 203 1256 q 237 1256 228 1253 q 259 1253 248 1253 l 273 1256 q 275 1253 275 1256 l 289 1256 l 324 1256 q 332 1248 326 1256 q 330 1221 330 1224 l 332 1177 q 327 1134 332 1168 q 330 1123 330 1129 q 327 1115 330 1120 l 330 1101 q 316 836 321 1052 q 313 822 313 836 l 316 817 q 297 597 297 627 l 297 507 l 281 382 l 286 355 q 262 301 286 301 l 224 301 q 77 331 79 314 q 75 372 75 355 l 75 418 q 72 448 75 429 l 75 453 q 66 496 69 484 l 69 515 l 69 567 q 72 570 69 570 l 69 575 l 69 616 q 64 632 69 623 q 66 648 64 634 q 64 656 66 651 q 66 673 64 659 q 64 711 64 696 l 66 711 l 61 724 l 64 738 l 58 751 q 61 768 58 753 l 58 792 q 61 800 58 795 q 56 852 58 852 l 58 871 l 58 944 q 56 968 58 954 l 58 974 l 53 1009 q 56 1020 56 1014 q 42 1164 47 1020 q 34 1229 39 1164 l 37 1234 l 34 1251 l 34 1253 q 61 1261 34 1261 m 66 214 l 69 214 l 77 209 q 88 212 82 212 q 104 190 92 200 q 129 203 117 193 l 134 203 q 164 190 151 203 l 170 190 q 194 201 176 190 l 205 198 q 216 201 210 201 q 235 187 220 187 l 237 187 q 256 201 254 201 q 297 176 284 201 q 281 144 297 160 l 281 141 q 300 117 281 130 q 302 95 302 98 q 283 76 283 92 l 283 71 q 302 54 283 68 l 302 52 q 300 49 302 49 q 302 41 302 43 q 283 14 283 20 q 286 5 286 8 l 281 3 l 273 3 q 270 5 270 3 l 264 3 l 251 3 l 254 16 l 254 22 q 243 33 254 26 l 240 33 q 221 16 221 33 q 224 5 224 12 l 221 0 l 202 3 l 183 0 l 183 5 q 194 19 191 5 q 175 35 188 35 q 159 22 170 35 q 164 3 164 8 l 161 3 l 145 5 q 126 0 134 0 q 77 5 121 0 q 66 3 73 3 l 66 11 q 69 22 66 17 q 56 68 56 42 q 66 81 60 68 q 53 130 53 111 q 64 149 64 135 l 64 152 l 53 165 l 53 193 l 66 214 m 61 182 l 61 179 q 77 160 61 160 q 94 179 94 160 l 94 182 q 83 193 94 186 l 72 193 q 61 182 68 193 m 123 174 q 134 160 129 161 l 145 160 q 156 171 149 160 l 156 182 q 140 193 156 186 q 123 174 123 193 m 186 171 l 186 168 q 197 157 186 164 l 208 157 q 218 168 212 157 l 218 179 q 208 190 218 183 l 205 190 q 186 171 186 190 m 248 168 q 267 155 252 155 q 281 165 279 160 l 281 176 q 270 187 281 180 l 259 187 q 248 168 248 183 m 94 144 q 110 127 94 132 q 126 146 126 132 l 126 149 q 110 163 126 154 q 94 144 94 159 m 156 141 l 156 138 q 167 127 156 134 l 178 127 q 189 138 182 127 l 189 141 q 175 160 189 156 q 156 141 156 160 m 218 146 l 218 136 q 229 125 218 132 l 240 125 q 251 144 251 130 l 251 146 q 240 157 251 151 l 229 157 q 218 146 225 157 m 64 114 l 64 109 q 85 98 64 100 l 96 111 l 96 119 q 85 130 96 123 l 80 130 q 64 114 64 130 m 126 119 l 126 114 q 134 98 128 98 l 148 98 q 159 109 152 98 l 159 117 q 142 130 159 121 q 126 119 126 125 m 189 117 l 189 106 q 199 95 189 102 l 202 95 q 221 114 221 95 q 202 127 217 127 q 189 117 190 122 m 251 114 l 251 103 q 262 92 251 99 l 264 92 q 283 111 283 92 q 273 125 278 123 l 262 125 q 251 114 258 125 m 96 81 l 96 76 q 104 68 96 72 l 118 68 q 129 84 129 73 q 118 98 123 96 l 104 98 q 96 81 96 95 m 159 87 l 159 81 q 175 65 159 65 l 180 65 q 191 81 191 71 q 172 98 185 98 q 159 87 160 92 m 221 84 l 221 73 q 240 62 226 62 q 254 81 254 66 q 235 95 250 95 l 232 95 q 221 84 228 95 m 66 60 l 66 46 q 80 35 66 42 q 99 49 92 38 q 88 68 94 68 l 75 68 q 66 60 71 68 m 129 57 l 129 43 q 137 35 129 39 l 151 35 q 161 52 156 35 q 148 68 161 57 q 129 57 129 63 m 189 49 q 208 33 193 33 q 224 49 218 33 q 205 65 218 65 q 189 49 197 65 m 251 46 q 273 30 256 30 q 286 46 283 35 q 267 62 286 62 q 251 46 256 62 m 96 22 q 115 5 96 5 l 121 5 q 129 14 125 5 l 129 27 q 113 38 129 32 q 96 22 106 38 z "},"\"":{"ha":747,"x_min":34,"x_max":544,"o":"m 77 1297 q 107 1292 102 1294 q 113 1297 108 1297 q 132 1292 132 1297 q 134 1295 134 1292 q 170 1286 170 1293 l 175 1289 q 202 1249 202 1267 q 210 1221 208 1249 q 205 1216 205 1221 l 205 1213 l 210 1205 l 210 1183 q 208 1173 210 1177 q 213 1124 210 1169 l 210 1124 l 213 1118 l 213 1113 q 208 1099 213 1099 q 210 1097 208 1097 q 191 1029 210 1061 l 191 1010 q 129 928 161 928 q 107 926 119 926 q 75 999 75 926 q 37 1121 47 1065 q 34 1132 34 1126 l 39 1145 q 37 1170 37 1160 q 42 1183 37 1183 q 39 1186 42 1186 l 45 1240 q 39 1249 39 1240 l 42 1254 l 39 1259 q 75 1295 39 1295 q 77 1297 75 1297 m 425 1295 l 452 1295 q 468 1278 452 1278 q 487 1295 477 1278 l 490 1295 q 495 1289 495 1294 l 500 1292 l 503 1292 q 522 1278 513 1280 q 530 1259 525 1267 l 530 1251 q 514 1227 514 1238 q 536 1208 514 1221 q 541 1192 536 1198 q 517 1175 541 1188 l 517 1162 q 528 1151 517 1158 l 541 1151 l 541 1145 q 538 1143 541 1143 q 544 1126 544 1134 l 544 1121 l 530 1121 q 519 1110 526 1121 l 519 1099 q 538 1083 519 1097 q 522 1053 535 1072 q 492 1023 522 1029 l 490 1010 q 506 994 492 1000 q 463 937 493 937 l 460 937 l 463 956 q 446 969 458 969 q 430 950 430 965 l 433 945 l 430 945 q 411 969 411 949 q 430 985 430 969 q 414 1002 430 998 l 400 994 l 397 994 q 395 1004 397 1000 q 400 1015 397 1015 q 384 1048 384 1040 l 381 1064 q 397 1080 397 1064 q 378 1099 397 1086 l 376 1116 l 376 1121 q 395 1137 395 1134 l 395 1145 q 370 1159 387 1159 l 370 1175 q 373 1178 370 1178 l 370 1183 l 370 1186 q 392 1205 392 1186 l 392 1208 q 378 1221 392 1211 l 373 1219 q 368 1224 368 1219 l 368 1249 q 392 1262 383 1249 q 378 1281 389 1281 l 378 1284 q 384 1289 379 1289 l 387 1289 l 397 1281 l 411 1281 q 425 1295 413 1281 m 419 1265 q 430 1249 425 1249 l 435 1249 q 454 1270 454 1249 l 441 1281 q 419 1265 425 1281 m 481 1265 q 500 1246 485 1246 l 503 1246 q 517 1262 513 1251 q 495 1278 511 1278 q 481 1265 491 1278 m 389 1232 q 403 1216 389 1227 q 422 1235 422 1219 l 422 1240 q 406 1251 422 1245 q 389 1232 389 1245 m 452 1235 q 463 1216 452 1221 l 468 1216 q 484 1232 484 1216 l 484 1238 q 473 1249 484 1242 l 465 1249 q 452 1235 462 1249 m 422 1200 q 433 1186 427 1187 l 444 1186 q 454 1197 448 1186 l 454 1208 q 438 1219 454 1213 q 422 1200 422 1215 m 484 1197 l 484 1194 q 495 1183 484 1190 l 506 1183 q 517 1194 510 1183 l 517 1205 q 506 1216 517 1209 l 503 1216 q 484 1197 484 1216 m 392 1175 l 392 1173 q 408 1154 392 1159 q 425 1167 420 1158 l 425 1175 q 408 1189 420 1185 q 392 1175 397 1185 m 454 1175 l 454 1173 q 465 1154 454 1158 l 476 1154 q 487 1164 480 1154 l 487 1167 q 468 1186 487 1186 q 454 1175 456 1181 m 425 1145 l 425 1140 q 441 1124 425 1124 l 446 1124 q 457 1135 450 1124 l 457 1143 q 441 1156 452 1153 q 425 1145 425 1151 m 487 1143 l 487 1132 q 506 1121 492 1121 q 519 1140 519 1125 q 500 1154 515 1154 l 498 1154 q 487 1143 494 1154 m 395 1116 l 395 1110 q 411 1094 395 1094 l 416 1094 q 427 1105 420 1094 l 427 1113 q 408 1126 427 1119 q 395 1116 396 1121 m 457 1113 l 457 1107 q 473 1091 457 1091 l 479 1091 q 490 1110 490 1096 q 471 1124 481 1124 q 457 1113 458 1118 m 427 1083 l 427 1078 q 444 1061 427 1061 l 449 1061 q 460 1078 460 1067 q 441 1094 454 1094 q 427 1083 429 1088 m 487 1078 q 509 1059 490 1059 q 522 1075 522 1063 q 509 1091 519 1086 l 500 1091 q 487 1078 498 1091 m 397 1053 l 397 1048 q 414 1031 397 1031 l 419 1031 q 427 1040 423 1031 l 427 1053 q 411 1064 427 1058 q 397 1053 399 1059 m 460 1050 l 460 1045 q 476 1029 460 1029 q 490 1037 490 1031 l 490 1050 q 479 1061 490 1055 l 471 1061 q 460 1050 467 1061 m 427 1015 q 446 999 431 999 q 460 1015 460 999 l 460 1021 q 441 1031 456 1031 q 427 1015 431 1027 m 460 985 l 460 980 q 479 966 465 966 q 492 983 492 966 l 492 988 q 473 999 488 999 q 460 985 466 997 z "},"#":{"ha":1230,"x_min":3,"x_max":935,"o":"m 589 950 l 821 950 q 825 945 825 949 l 823 931 q 820 928 823 928 l 821 923 q 817 912 821 917 q 818 901 819 907 q 812 896 817 896 l 580 896 l 589 950 m 572 842 l 806 842 q 811 836 812 841 l 809 825 q 805 814 808 819 q 806 790 806 809 l 800 787 l 563 787 l 572 842 m 637 1263 q 668 1262 652 1262 l 692 1262 q 736 1267 724 1262 q 819 1259 762 1262 q 855 1262 833 1262 l 861 1262 q 876 1254 876 1261 l 871 1224 q 865 1219 870 1219 l 630 1219 l 637 1263 m 622 1167 l 857 1167 q 861 1162 862 1166 l 855 1121 q 846 1113 854 1117 l 614 1113 l 622 1167 m 605 1059 l 834 1059 l 840 1056 q 836 1048 839 1053 q 833 1018 836 1029 q 830 1015 833 1015 l 832 1010 q 826 1004 831 1004 l 597 1004 l 605 1059 m 562 733 l 795 733 q 800 728 800 732 l 793 684 q 787 679 792 679 l 553 679 q 549 684 548 679 l 555 728 q 562 733 557 733 m 543 627 l 784 627 l 783 625 q 778 573 779 581 l 772 570 l 534 570 q 529 576 528 570 l 536 622 q 543 627 538 627 m 528 519 l 762 519 q 768 508 770 519 q 760 473 760 474 q 762 465 762 467 l 755 462 l 519 462 q 515 467 514 462 l 522 513 q 528 519 524 519 m 511 410 l 747 410 q 754 402 751 410 l 752 386 l 750 359 l 745 356 l 509 356 q 500 372 505 356 l 505 405 q 511 410 507 410 m 500 302 l 733 302 q 738 261 741 302 q 728 248 732 248 l 492 248 q 487 253 486 248 l 494 296 q 500 302 495 302 m 478 193 l 720 193 q 724 188 725 193 l 720 182 q 723 180 720 180 l 717 161 l 717 142 l 711 139 l 469 139 q 465 144 464 139 l 471 188 q 478 193 473 193 m 461 85 l 703 85 q 707 63 708 85 q 689 31 696 31 l 453 31 q 448 36 448 31 l 455 79 q 461 85 456 85 m 245 -3 l 227 3 q 199 -3 222 3 l 195 0 q 191 -3 192 0 l 178 0 q 142 -3 177 0 l 117 5 l 109 5 q 94 0 95 5 l 67 3 l 48 3 q 42 11 44 3 l 43 22 l 71 19 l 81 30 l 83 46 q 71 65 86 61 l 54 62 q 52 65 54 65 l 58 84 l 66 130 l 74 130 q 100 152 96 130 l 102 165 q 93 176 102 170 l 77 176 l 71 174 l 69 179 l 72 195 q 71 209 73 204 l 96 298 l 95 309 q 116 382 106 343 l 115 396 q 120 407 117 402 q 123 437 121 425 l 124 445 q 134 486 127 462 q 136 507 134 496 q 144 526 139 526 l 142 532 q 178 659 169 647 l 177 681 l 181 686 q 178 689 181 689 l 184 708 l 186 719 q 184 738 189 738 l 191 757 l 199 806 q 203 808 200 808 l 201 814 q 208 838 202 823 q 211 903 214 889 q 233 979 222 931 q 234 1001 232 989 l 236 1012 q 239 1015 237 1015 l 237 1020 q 241 1025 238 1025 l 241 1044 l 248 1080 q 250 1107 250 1093 q 292 1268 284 1268 q 330 1279 304 1279 l 367 1276 l 373 1279 l 383 1276 l 400 1279 l 416 1276 l 517 1282 q 534 1271 535 1277 l 532 1257 q 503 1080 523 1206 l 498 1066 l 500 1061 q 492 1031 494 1042 l 492 1020 l 483 998 q 485 977 487 988 l 372 342 q 366 336 370 336 q 368 334 365 334 l 363 320 q 359 288 361 315 l 352 260 q 349 228 351 241 q 341 198 348 222 q 343 182 340 182 l 337 163 l 336 152 q 318 84 323 84 q 317 22 321 78 q 245 -3 313 -3 m 309 33 q 289 57 310 57 q 260 33 264 57 q 273 11 258 20 l 278 11 q 309 33 298 11 m 196 41 l 198 49 q 186 62 198 52 q 151 46 153 58 l 150 38 q 167 14 149 14 q 196 41 191 14 m 260 98 q 248 117 262 102 l 242 114 l 237 117 q 213 90 220 117 q 231 68 210 74 q 260 98 255 68 m 149 98 q 134 119 150 119 q 100 98 104 116 q 123 73 97 77 q 149 98 145 73 m 323 144 l 323 146 q 300 171 327 167 q 277 144 283 171 q 292 125 273 125 l 295 125 q 323 144 319 125 m 214 155 q 193 174 209 174 q 163 146 172 174 q 176 127 166 134 l 182 127 q 214 155 209 127 m 277 203 l 277 217 l 239 217 q 232 212 233 217 l 230 201 q 245 182 227 182 q 277 203 273 182 m 168 214 l 163 217 l 125 217 q 118 212 119 217 l 117 209 q 135 184 114 189 q 168 214 162 184 m 547 540 q 583 534 563 540 l 624 537 q 730 534 648 537 q 766 537 734 534 q 783 534 777 534 q 831 537 816 537 l 836 537 q 866 521 857 521 l 860 502 l 860 486 l 848 477 l 848 464 q 842 396 848 418 q 777 339 842 339 l 718 339 q 506 342 637 339 q 476 339 495 339 q 470 342 476 342 q 423 336 433 336 l 411 339 l 370 336 q 352 339 363 336 l 352 336 l 186 342 l 157 339 q 3 355 3 347 l 3 429 q 39 532 8 532 l 92 532 l 104 529 q 511 540 104 540 l 547 540 m 391 769 q 356 774 376 769 l 315 772 q 208 774 291 772 q 173 772 204 774 q 155 774 161 774 q 108 772 123 772 l 102 772 q 73 788 81 788 l 79 807 l 79 823 l 90 831 l 90 845 q 96 913 90 890 q 161 970 96 970 l 220 970 q 433 967 302 970 q 463 970 444 970 q 469 967 463 967 q 515 972 505 972 l 528 970 l 569 972 q 587 970 575 972 l 587 972 l 752 967 l 781 970 q 935 954 935 962 l 935 880 q 900 777 930 777 l 846 777 l 835 780 q 427 769 835 769 l 391 769 z "},"$":{"ha":916,"x_min":34,"x_max":712,"o":"m 292 1426 q 360 1421 304 1426 q 371 1423 361 1421 l 385 1421 q 395 1423 391 1421 q 420 1421 410 1421 l 431 1421 q 441 1369 439 1421 q 438 1367 441 1367 l 440 1353 l 439 1323 q 434 1307 439 1316 q 437 1299 437 1301 l 407 1299 l 406 1285 q 417 1274 406 1281 l 420 1274 q 439 1291 439 1274 q 482 1272 456 1291 q 498 1280 498 1274 q 560 1255 522 1280 q 574 1236 560 1246 q 593 1244 585 1239 l 601 1244 q 606 1239 606 1244 q 592 1220 593 1231 q 603 1206 597 1208 l 616 1206 q 625 1228 625 1206 l 627 1228 q 641 1206 641 1222 q 624 1187 625 1202 q 643 1174 627 1174 l 646 1174 l 659 1185 l 662 1185 q 667 1174 662 1181 q 656 1163 663 1174 l 656 1160 q 675 1141 656 1141 l 686 1141 l 693 1106 l 693 1101 l 688 1101 q 677 1112 688 1107 l 669 1112 q 658 1101 665 1112 l 657 1090 q 676 1079 662 1079 q 690 1095 690 1084 l 695 1095 l 695 1093 q 687 1065 692 1065 q 694 1046 694 1049 q 692 1044 694 1044 l 694 1030 l 694 1027 q 688 998 694 1008 q 690 987 690 993 l 690 981 l 688 981 q 671 987 679 987 q 658 962 658 987 l 652 962 l 642 970 q 635 960 641 960 l 630 960 l 625 962 l 628 968 l 628 970 q 612 989 628 989 q 595 973 595 983 l 597 960 l 592 960 q 565 954 587 960 l 565 957 l 559 954 l 551 954 l 551 960 q 566 976 565 960 l 566 981 q 557 989 566 985 l 544 989 q 533 970 533 985 q 543 957 543 958 l 543 954 l 541 954 q 516 960 523 960 l 513 960 l 505 954 l 503 954 q 500 957 500 954 l 494 954 l 489 954 q 460 981 459 954 l 460 989 q 471 1008 471 999 q 450 1030 471 1023 l 450 1049 q 473 1074 472 1060 q 462 1087 467 1086 l 451 1087 l 443 1082 l 440 1082 q 435 1090 435 1082 q 441 1106 441 1099 q 422 1120 437 1120 l 419 1120 l 411 1114 q 403 1117 406 1117 l 403 1122 l 409 1131 l 409 1133 q 390 1152 409 1152 q 376 1133 376 1148 l 378 1122 l 376 1122 q 373 1125 373 1122 l 368 1122 l 359 1122 l 351 1128 q 324 1106 351 1118 l 316 1106 q 297 1122 316 1122 q 283 1106 283 1122 l 283 1101 q 302 1087 283 1096 q 274 1030 283 1065 q 252 1014 252 1030 q 264 992 264 996 q 253 949 264 977 q 272 930 253 946 q 279 908 275 915 l 279 905 l 266 905 q 254 895 262 905 l 254 884 q 273 873 258 873 q 284 884 284 876 l 287 884 q 295 876 291 884 l 295 870 q 286 857 287 870 l 286 851 q 302 840 286 847 q 319 846 311 846 q 321 843 319 843 l 318 824 l 318 819 q 334 808 318 814 l 348 816 l 351 816 q 356 810 356 815 l 356 808 l 347 794 q 358 778 353 778 l 372 778 q 380 794 380 778 l 396 794 q 439 770 412 779 q 460 743 443 743 q 474 748 469 748 l 479 740 q 473 724 474 731 q 492 710 473 714 q 509 721 495 710 l 511 721 q 522 715 518 715 l 522 710 q 505 691 506 710 q 522 677 505 685 q 538 699 538 677 q 629 615 578 688 l 629 610 q 615 615 620 615 q 602 604 603 610 l 602 599 q 617 583 601 583 l 623 583 q 634 602 630 583 q 644 588 637 602 l 644 580 q 631 569 638 580 q 663 547 630 547 q 665 539 663 545 l 663 534 q 677 488 678 507 q 664 469 664 484 l 664 466 q 688 452 671 452 q 712 311 712 326 l 711 235 q 708 233 711 233 q 711 230 708 230 q 684 121 701 132 q 617 51 684 98 q 565 24 593 51 q 481 -6 529 7 q 475 -22 475 -15 l 474 -55 q 471 -82 474 -68 q 473 -109 473 -92 l 470 -134 q 472 -147 473 -138 l 434 -158 q 426 -155 431 -158 q 350 -161 395 -161 q 347 -158 347 -161 l 342 -161 q 299 -139 298 -161 q 294 -93 294 -102 q 297 -77 294 -91 q 295 -74 298 -74 l 298 -47 l 298 -12 q 143 64 199 9 q 109 111 109 98 q 64 216 91 141 l 65 241 l 57 252 l 58 290 l 53 298 l 53 300 q 56 303 53 303 l 53 309 l 53 314 l 56 319 q 44 404 48 319 q 47 414 47 408 l 45 431 q 53 439 48 431 l 72 436 l 113 436 q 202 428 176 428 l 235 431 q 256 422 256 428 l 269 425 q 277 417 273 425 q 274 382 275 394 q 279 352 279 359 l 276 347 l 279 341 l 276 328 l 279 249 l 274 246 q 277 238 277 241 q 274 235 277 235 q 305 170 278 170 q 330 162 321 166 q 338 165 334 165 l 343 162 q 354 165 348 165 l 357 165 q 361 159 362 164 q 425 178 402 162 q 463 222 463 191 q 484 290 471 222 l 487 309 q 463 428 483 371 q 452 439 458 428 l 452 452 l 479 452 q 469 463 479 456 l 466 463 q 446 455 456 463 q 441 469 441 464 q 447 474 447 469 l 447 485 q 437 496 447 489 l 434 496 l 414 490 l 412 496 q 415 520 415 511 q 397 528 406 528 l 382 520 l 378 528 q 386 542 384 542 q 367 561 386 555 q 353 558 363 558 l 351 574 l 354 574 q 335 593 354 587 q 321 577 323 593 l 316 577 q 302 588 308 588 q 322 607 322 601 q 311 623 317 623 l 306 623 q 290 607 290 623 l 292 596 q 254 623 254 608 q 225 631 233 626 l 228 645 q 209 659 224 659 l 206 659 l 198 653 q 190 659 198 659 l 191 661 l 196 669 l 196 672 q 177 691 196 691 q 161 677 173 691 q 144 686 152 686 l 144 691 q 164 707 163 691 q 148 724 162 724 q 132 705 132 720 l 136 694 l 134 694 q 81 751 101 721 l 81 756 q 103 770 102 756 q 92 786 98 786 l 79 786 l 71 781 l 68 781 l 65 791 l 71 802 q 50 832 71 806 l 47 848 q 70 862 62 848 q 45 884 70 882 l 43 911 q 68 930 68 911 l 68 932 q 58 943 68 937 l 52 943 l 39 941 q 34 979 39 949 l 37 979 q 53 973 47 973 q 66 984 65 979 l 66 989 q 51 1006 67 1006 l 45 1006 l 37 1000 l 35 1000 q 43 1038 37 1023 l 49 1036 l 54 1036 q 68 1052 64 1041 q 44 1071 68 1066 l 44 1074 q 66 1109 45 1097 l 66 1120 l 59 1131 l 59 1133 q 64 1139 60 1139 l 67 1139 q 80 1128 67 1131 q 97 1147 97 1132 l 97 1149 q 84 1163 97 1152 q 67 1160 81 1160 q 137 1253 102 1227 q 178 1274 144 1253 l 189 1274 l 189 1272 l 186 1266 q 199 1250 190 1255 l 202 1250 q 222 1263 214 1250 q 214 1282 219 1274 q 219 1288 215 1288 l 230 1280 l 233 1280 q 254 1296 243 1280 q 282 1299 279 1299 q 298 1277 281 1277 q 315 1299 314 1282 l 285 1299 l 285 1301 q 283 1364 286 1335 l 286 1391 q 284 1413 284 1406 q 292 1426 288 1426 m 345 1299 l 344 1293 q 357 1274 344 1281 q 376 1291 370 1274 q 374 1299 374 1296 l 345 1299 m 249 1263 q 262 1247 252 1253 l 270 1247 q 284 1266 276 1247 q 273 1280 279 1278 l 268 1280 q 249 1263 249 1280 m 314 1269 l 313 1255 q 321 1247 313 1251 l 335 1247 q 347 1263 340 1247 q 328 1277 342 1277 l 322 1277 q 314 1269 318 1277 m 373 1261 q 392 1244 377 1244 q 408 1258 401 1244 q 390 1277 409 1272 q 373 1261 383 1277 m 439 1263 l 438 1253 q 449 1242 438 1249 l 457 1242 q 468 1253 461 1242 l 469 1263 q 458 1274 469 1267 l 450 1274 q 439 1263 446 1274 m 498 1258 q 517 1239 503 1239 q 530 1250 529 1244 l 530 1255 q 515 1272 531 1272 l 509 1272 q 498 1258 505 1272 m 156 1234 q 166 1220 161 1221 l 172 1220 q 189 1236 188 1220 l 189 1242 q 175 1253 187 1247 q 156 1234 156 1253 m 218 1234 q 231 1217 222 1223 l 239 1217 q 250 1228 243 1217 l 251 1234 q 235 1250 251 1250 q 218 1234 218 1248 m 280 1228 q 294 1215 280 1225 q 313 1225 309 1215 l 313 1239 q 305 1247 313 1243 l 292 1247 q 280 1228 281 1243 m 343 1231 q 353 1215 348 1215 l 359 1215 q 378 1234 378 1215 q 359 1247 368 1247 q 343 1231 351 1247 m 405 1228 q 424 1212 409 1212 l 427 1212 q 440 1225 429 1212 q 425 1244 441 1238 q 405 1228 410 1244 m 467 1223 q 481 1209 467 1219 l 489 1209 q 500 1220 493 1209 l 500 1231 q 490 1242 500 1235 l 479 1242 q 467 1223 468 1238 m 530 1225 q 546 1206 530 1215 q 562 1217 562 1212 l 562 1223 q 547 1239 563 1239 l 541 1239 q 530 1225 536 1238 m 125 1198 l 136 1190 l 141 1190 q 158 1206 157 1190 l 158 1212 q 142 1223 153 1223 q 125 1198 125 1219 m 188 1201 q 198 1187 193 1189 l 209 1187 q 220 1198 214 1187 l 220 1209 q 201 1220 216 1220 q 188 1201 188 1216 m 250 1198 q 263 1185 250 1195 q 286 1209 283 1185 q 267 1217 276 1217 q 250 1198 250 1217 m 312 1196 q 328 1185 315 1185 l 336 1185 q 345 1201 345 1187 l 345 1206 q 337 1215 345 1211 l 323 1215 q 312 1196 313 1211 m 375 1201 l 374 1193 q 385 1182 374 1189 l 391 1182 q 408 1198 407 1182 q 389 1215 408 1215 q 375 1201 385 1215 m 437 1193 q 456 1179 441 1179 l 458 1179 q 469 1190 463 1179 l 470 1201 q 451 1212 465 1212 q 437 1193 437 1208 m 499 1190 q 513 1177 499 1187 q 532 1187 527 1177 l 532 1198 q 522 1209 532 1202 l 511 1209 q 499 1190 500 1205 m 562 1190 q 572 1177 567 1178 l 586 1177 q 594 1193 594 1179 l 594 1196 q 581 1209 595 1198 q 562 1190 562 1204 m 95 1174 q 111 1158 95 1166 q 127 1177 127 1162 q 111 1193 127 1189 q 95 1174 95 1189 m 157 1171 l 157 1168 q 168 1158 157 1164 l 178 1158 q 190 1168 183 1158 l 190 1171 q 176 1190 190 1186 q 157 1171 157 1190 m 220 1168 q 238 1155 223 1155 q 252 1166 251 1160 l 252 1168 q 233 1187 252 1187 l 231 1187 q 220 1168 220 1183 m 282 1174 l 282 1166 q 300 1152 290 1152 q 315 1171 314 1156 q 298 1185 315 1185 l 293 1185 q 282 1174 289 1185 m 345 1166 l 345 1163 q 355 1152 344 1159 l 366 1152 q 377 1163 370 1152 l 377 1166 q 363 1185 377 1180 q 345 1166 345 1181 m 407 1163 l 406 1160 q 417 1149 406 1156 l 428 1149 q 439 1160 432 1149 l 439 1163 q 420 1182 439 1182 q 407 1163 407 1178 m 469 1168 l 469 1166 q 488 1147 469 1147 q 502 1166 501 1151 l 502 1168 q 491 1179 502 1173 l 480 1179 q 469 1168 476 1179 m 532 1166 l 531 1158 q 550 1144 533 1149 q 564 1163 564 1148 l 564 1166 q 553 1177 564 1170 l 543 1177 q 532 1166 538 1177 m 593 1158 l 593 1155 q 604 1144 593 1151 l 615 1144 q 626 1155 619 1144 l 626 1158 q 610 1177 627 1173 q 593 1158 594 1173 m 127 1141 q 137 1128 132 1129 l 148 1128 q 159 1139 153 1128 l 159 1141 q 143 1160 159 1160 q 127 1141 127 1160 m 189 1147 l 189 1136 q 199 1125 189 1132 l 210 1125 q 222 1144 222 1130 q 203 1158 218 1158 q 189 1147 191 1152 m 252 1144 l 252 1133 q 264 1122 252 1128 q 284 1141 283 1122 q 265 1155 281 1155 l 262 1155 q 252 1144 258 1155 m 314 1141 l 314 1133 q 327 1120 314 1131 q 347 1133 344 1125 l 347 1136 q 330 1152 347 1152 l 325 1152 q 314 1141 321 1152 m 439 1139 l 438 1128 q 449 1117 438 1124 l 452 1117 q 471 1128 467 1117 l 471 1131 q 452 1149 471 1149 l 450 1149 q 439 1139 446 1149 m 501 1136 l 501 1133 q 517 1114 500 1114 q 534 1133 533 1114 l 534 1136 q 523 1147 534 1140 l 512 1147 q 501 1136 508 1147 m 563 1128 l 563 1125 q 574 1114 563 1121 l 579 1114 q 596 1131 595 1114 l 596 1133 l 585 1147 q 563 1128 564 1147 m 626 1133 l 625 1122 q 636 1112 625 1118 l 647 1112 q 658 1122 651 1112 l 658 1125 q 640 1144 659 1144 q 626 1133 627 1139 m 96 1112 q 112 1095 96 1101 q 129 1109 123 1099 q 113 1131 129 1125 q 96 1112 96 1126 m 159 1117 l 159 1106 q 169 1095 159 1102 l 180 1095 q 191 1106 184 1095 l 191 1109 q 172 1128 191 1128 q 159 1117 160 1122 m 221 1114 l 221 1103 q 231 1093 221 1099 l 234 1093 q 254 1112 253 1093 q 235 1125 250 1125 l 232 1125 q 221 1114 228 1125 m 471 1106 l 470 1095 q 489 1084 475 1084 q 503 1103 503 1088 q 484 1117 500 1117 l 481 1117 q 471 1106 477 1117 m 533 1098 q 549 1082 532 1087 q 565 1095 560 1086 q 555 1114 566 1110 l 549 1114 q 533 1098 533 1114 m 595 1103 l 595 1093 q 606 1082 595 1088 l 616 1082 q 627 1093 621 1082 l 628 1101 l 617 1114 q 595 1103 595 1111 m 66 1090 l 66 1076 q 82 1065 66 1072 q 98 1087 98 1071 q 88 1098 98 1091 l 83 1098 q 66 1090 66 1097 m 128 1087 l 128 1082 q 144 1065 128 1065 l 150 1065 q 161 1082 155 1065 q 142 1098 155 1098 q 128 1087 130 1093 m 191 1084 l 191 1074 q 210 1063 195 1063 q 223 1076 216 1063 q 204 1095 223 1095 q 191 1084 192 1090 m 253 1076 l 253 1071 q 271 1060 257 1060 q 286 1074 279 1062 q 267 1093 286 1093 q 253 1076 253 1093 m 503 1068 l 503 1063 q 518 1052 502 1057 q 535 1071 534 1058 q 516 1084 532 1084 q 503 1068 503 1084 m 565 1074 l 565 1068 q 581 1049 564 1053 q 597 1065 589 1049 q 581 1084 597 1076 q 565 1074 565 1079 m 627 1071 l 627 1060 q 637 1049 627 1056 l 640 1049 q 660 1068 659 1049 q 646 1082 660 1072 q 627 1071 632 1082 m 98 1057 l 98 1044 q 106 1036 98 1040 l 119 1036 q 130 1057 127 1036 l 120 1065 l 106 1065 q 98 1057 102 1065 m 160 1055 l 160 1041 q 176 1033 163 1033 q 193 1049 189 1033 q 174 1065 186 1065 q 160 1055 161 1060 m 222 1052 l 222 1041 q 241 1030 227 1030 q 255 1044 244 1030 q 237 1063 253 1063 l 234 1063 q 222 1052 229 1063 m 469 1038 q 482 1022 473 1027 l 490 1022 q 505 1038 500 1027 q 494 1055 499 1055 l 488 1055 q 469 1038 474 1055 m 534 1044 l 534 1030 q 550 1019 534 1025 q 567 1038 566 1026 q 548 1052 564 1052 l 543 1052 q 534 1044 538 1052 m 594 1036 q 612 1019 597 1019 q 629 1033 623 1019 q 610 1052 624 1052 q 594 1036 604 1052 m 659 1038 l 659 1027 q 669 1017 659 1023 l 677 1017 q 688 1027 682 1017 l 689 1038 q 678 1049 689 1042 l 670 1049 q 659 1038 666 1049 m 64 1019 q 81 1003 64 1011 q 100 1017 92 1006 q 90 1036 96 1036 l 76 1036 q 64 1019 65 1030 m 127 1019 q 138 1003 132 1003 l 143 1003 q 162 1025 162 1003 l 149 1036 q 127 1019 133 1036 m 189 1019 q 208 1000 193 1000 l 211 1000 q 224 1017 220 1006 q 203 1033 219 1033 q 189 1019 199 1033 m 501 1003 q 514 989 501 1000 q 534 1000 529 989 l 534 1014 q 526 1022 534 1018 l 512 1022 q 501 1003 501 1018 m 564 1006 q 574 989 568 989 l 587 989 q 599 1008 595 989 q 580 1022 587 1022 q 564 1006 572 1022 m 626 1003 q 644 987 629 987 l 647 987 q 661 1000 650 987 q 642 1019 656 1019 q 626 1003 634 1019 m 96 987 q 110 970 96 982 q 129 989 129 974 l 129 995 q 113 1006 130 1000 q 96 987 97 1000 m 159 989 q 170 970 159 975 l 175 970 q 191 987 191 970 l 191 992 q 181 1003 192 996 l 173 1003 q 159 989 169 1003 m 221 981 q 240 968 227 968 q 254 979 252 973 l 254 989 q 243 1000 254 994 l 241 1000 q 221 981 222 1000 m 471 973 q 492 960 477 960 q 503 970 496 960 l 503 976 q 487 992 503 992 l 481 992 q 471 973 471 988 m 66 960 q 82 941 66 945 q 98 960 98 941 l 99 962 q 85 976 99 965 q 66 960 73 976 m 128 954 q 139 941 134 942 l 150 941 q 161 951 154 941 l 161 962 q 145 973 161 968 q 128 954 129 969 m 191 951 l 191 949 q 201 938 191 945 l 212 938 q 223 949 216 938 l 223 960 q 213 970 224 964 l 210 970 q 191 951 191 970 m 98 930 l 98 927 q 114 908 98 913 q 130 922 125 912 l 131 930 q 115 943 125 940 q 98 930 103 940 m 161 930 l 160 927 q 171 908 160 913 l 182 908 q 193 919 186 908 l 193 922 q 174 941 193 941 q 161 930 161 935 m 222 927 l 222 916 q 233 905 222 912 l 236 905 q 255 916 250 905 l 255 927 q 245 938 256 931 l 234 938 q 222 927 230 938 m 67 895 q 81 878 67 885 q 100 892 98 884 l 100 900 q 90 911 100 904 l 84 911 q 67 895 68 911 m 130 900 l 130 895 q 146 878 130 878 l 151 878 q 162 889 155 878 l 163 897 q 146 911 157 907 q 130 900 130 905 m 193 897 l 192 886 q 211 876 196 876 q 224 895 224 880 q 206 908 221 908 l 203 908 q 193 897 199 908 m 100 870 l 100 865 q 115 848 99 848 l 121 848 q 132 859 125 848 l 132 867 q 113 881 132 873 q 100 870 101 876 m 162 867 l 162 862 q 178 846 161 846 l 183 846 q 195 865 194 850 q 176 878 186 878 q 162 867 163 873 m 224 865 l 224 854 q 243 843 228 843 q 256 857 250 843 q 238 876 257 876 l 235 876 q 224 865 231 876 m 69 840 l 69 835 q 82 816 68 823 q 102 835 101 821 q 91 848 96 847 l 77 848 q 69 840 73 848 m 132 838 l 132 832 q 147 816 131 816 l 153 816 q 164 832 163 821 q 145 848 158 848 q 132 838 133 843 m 191 832 q 212 813 193 813 q 227 829 226 818 q 213 846 222 841 l 205 846 q 191 832 202 846 m 253 827 q 275 810 258 810 q 288 824 278 810 q 270 843 289 843 q 253 827 260 843 m 101 808 l 101 802 q 117 786 100 786 l 122 786 q 130 794 126 786 l 131 808 q 115 819 131 812 q 101 808 102 813 m 71 810 l 77 810 l 77 816 q 71 810 71 815 m 163 805 l 163 800 q 179 783 163 783 q 193 791 193 785 l 193 805 q 182 816 193 809 l 174 816 q 163 805 170 816 m 223 797 q 244 781 227 781 q 258 797 250 781 q 245 813 254 808 l 242 813 q 223 797 227 813 m 285 794 q 307 778 290 778 q 320 791 309 778 q 302 810 319 810 l 296 810 q 285 794 286 805 m 130 770 q 149 753 134 753 q 163 770 162 753 l 163 775 q 144 786 159 786 q 130 770 134 781 m 193 764 q 211 751 196 751 l 214 751 q 225 762 218 751 l 225 772 q 214 783 225 777 l 212 783 q 193 764 193 783 m 255 767 q 273 748 254 748 q 287 759 286 753 l 288 770 q 277 781 288 774 l 266 781 q 255 767 260 779 m 317 762 q 333 745 317 753 q 349 756 349 751 l 350 770 q 342 778 350 774 l 328 778 q 317 762 317 772 m 380 764 q 390 745 379 750 l 395 745 q 412 762 412 745 l 412 767 q 401 778 412 771 q 380 764 387 778 m 100 743 q 110 724 100 728 l 115 724 q 132 740 132 724 q 116 756 132 752 q 100 743 105 753 m 162 740 l 162 734 q 180 721 167 721 q 195 737 194 721 l 195 743 q 176 753 191 753 q 162 740 169 751 m 224 732 q 243 718 228 718 q 257 729 256 724 l 257 740 q 246 751 257 744 l 243 751 q 224 732 224 751 m 287 734 q 305 715 288 715 q 319 726 318 721 l 319 737 q 306 751 319 740 q 287 734 294 751 m 349 734 q 362 713 349 722 q 381 726 379 718 l 382 737 q 366 748 382 742 q 349 734 354 745 m 411 726 q 422 713 416 714 l 433 713 q 444 724 437 713 l 444 734 q 433 745 444 739 l 431 745 q 411 726 412 745 m 194 710 l 194 707 q 207 688 193 694 l 215 688 q 227 699 220 688 l 227 710 q 216 721 227 714 l 213 721 q 194 710 199 721 m 256 707 l 256 705 q 275 686 256 686 q 289 705 288 690 l 289 707 q 278 718 289 711 l 267 718 q 256 707 263 718 m 319 702 q 334 683 318 689 q 351 702 351 687 l 351 705 q 338 718 351 707 q 319 702 319 713 m 381 696 q 391 683 386 684 l 402 683 q 413 694 406 683 l 414 696 q 395 715 414 715 q 381 696 381 711 m 443 694 l 443 691 q 454 680 443 687 l 456 680 q 475 691 471 680 l 476 702 q 465 713 476 706 l 463 713 q 443 694 444 713 m 226 677 l 226 675 q 239 656 226 661 q 258 675 258 656 l 258 677 q 248 688 258 682 l 237 688 q 226 677 233 688 m 288 675 l 288 672 q 304 653 290 653 q 321 667 315 657 l 321 675 q 310 686 321 679 l 299 686 q 288 675 295 686 m 351 667 q 366 653 350 653 l 372 653 q 383 664 376 653 l 383 672 q 367 686 378 682 q 351 667 351 686 m 413 672 l 413 661 q 431 650 417 650 l 434 650 q 446 669 445 655 q 427 683 442 683 q 413 672 414 677 m 475 669 l 475 659 q 486 648 475 654 l 488 648 q 508 667 507 648 l 508 669 q 497 680 508 673 l 486 680 q 475 669 482 680 m 538 661 q 553 645 537 651 q 570 659 565 649 l 570 667 q 559 677 570 671 l 554 677 q 538 661 538 677 m 258 645 l 258 642 q 273 623 257 627 q 290 637 285 627 q 279 656 290 652 l 269 656 q 258 645 264 656 m 320 637 q 336 623 319 623 l 341 623 q 353 634 346 623 l 353 642 q 336 656 348 652 q 320 637 320 652 m 382 642 l 382 637 q 398 621 382 621 l 404 621 q 415 637 414 626 q 396 653 409 653 q 382 642 384 648 m 445 640 l 445 629 q 463 618 449 618 q 477 637 477 622 q 458 650 474 650 l 456 650 q 445 640 452 650 m 507 637 l 507 626 q 523 615 507 622 q 540 634 539 619 l 540 637 q 529 648 540 641 l 518 648 q 507 637 514 648 m 570 637 l 570 631 q 585 615 569 615 l 591 615 q 602 631 602 621 q 586 648 602 640 q 570 637 570 642 m 352 612 l 352 607 q 368 591 351 591 l 373 591 q 385 607 385 596 q 366 623 378 623 q 352 612 353 618 m 412 607 q 430 588 414 588 q 447 604 446 590 q 425 621 441 621 q 412 607 422 621 m 474 602 q 495 585 479 585 q 509 599 499 585 q 490 618 509 618 q 474 602 480 618 m 539 607 l 538 593 q 555 583 538 589 q 572 604 571 588 q 561 615 572 608 l 547 615 q 539 607 543 615 m 292 596 l 295 596 q 300 591 300 595 l 297 591 q 292 596 292 591 m 384 580 l 384 566 q 399 558 386 558 q 416 574 412 558 q 397 591 410 591 q 384 580 385 585 m 444 574 q 465 555 446 555 q 479 572 473 557 q 465 588 475 583 l 457 588 q 444 574 454 588 m 506 569 q 524 553 512 553 q 541 566 530 553 q 522 585 539 585 q 506 569 510 585 m 568 572 q 578 553 572 553 l 592 553 q 604 574 600 553 l 593 583 l 579 583 q 568 572 576 583 m 413 539 q 431 526 416 526 l 434 526 q 446 536 439 526 l 446 547 q 435 558 446 551 l 427 558 q 413 539 418 556 m 475 542 q 499 523 475 523 l 508 534 l 508 545 q 497 555 508 549 l 486 555 q 475 542 483 555 m 538 536 q 553 520 538 528 q 570 531 570 526 l 570 545 q 562 553 570 549 l 549 553 q 538 536 538 547 m 600 539 q 610 520 604 520 l 616 520 q 633 536 632 520 l 633 542 q 622 553 633 546 q 600 539 608 553 m 445 507 q 463 493 450 493 l 466 493 q 477 504 471 493 l 477 515 q 467 526 477 519 l 464 526 q 445 507 445 526 m 507 509 q 526 490 507 490 q 540 501 538 496 l 540 512 q 529 523 540 516 l 518 523 q 507 509 513 522 m 570 504 q 585 488 570 496 q 602 507 602 492 l 602 512 q 586 523 602 517 q 570 504 570 517 m 632 501 q 642 488 637 489 l 653 488 q 665 498 658 488 l 665 509 q 651 520 659 520 q 632 501 632 520 m 477 482 l 477 479 q 495 460 476 460 q 509 479 509 465 l 509 482 q 498 493 509 486 l 488 493 q 477 482 484 493 m 539 479 l 539 477 q 555 458 539 461 q 572 477 572 462 l 572 479 q 558 493 572 482 q 539 479 541 488 m 612 490 q 602 471 602 481 q 612 458 606 459 l 623 458 q 634 469 627 458 l 634 471 q 612 490 634 490 m 511 452 l 538 452 q 530 460 538 456 l 519 460 q 511 452 516 460 m 574 455 l 574 452 l 601 452 l 601 455 q 590 460 590 455 q 574 455 579 455 m 639 455 l 639 452 l 661 452 l 661 455 l 647 458 q 639 455 642 455 m 114 366 l 114 363 l 119 363 l 119 366 l 114 366 m 121 317 l 121 311 l 123 311 l 123 317 l 121 317 z "},"%":{"ha":1006,"x_min":56,"x_max":823,"o":"m 439 967 l 684 967 q 687 961 689 966 l 682 947 q 677 944 680 944 l 678 939 q 671 927 675 932 q 669 916 671 922 q 661 910 667 910 l 416 910 l 439 967 m 394 852 l 642 852 q 645 847 647 852 l 640 836 q 633 824 637 829 q 628 798 633 819 l 621 795 l 371 795 l 394 852 m 570 1297 q 603 1296 585 1296 l 629 1296 q 677 1301 662 1296 q 762 1293 702 1296 q 800 1296 777 1296 l 806 1296 q 819 1287 823 1294 l 807 1256 q 799 1250 805 1250 l 552 1250 l 570 1297 m 530 1196 l 777 1196 q 781 1190 783 1195 l 764 1147 q 752 1139 762 1143 l 507 1139 l 530 1196 m 485 1081 l 726 1081 l 731 1078 q 725 1070 730 1076 q 715 1038 720 1050 q 711 1036 714 1036 l 711 1030 q 704 1024 709 1024 l 462 1024 l 485 1081 m 356 739 l 602 739 q 605 732 607 738 l 587 687 q 579 681 585 681 l 333 681 q 330 687 328 681 l 348 732 q 356 739 351 739 m 309 627 l 563 627 l 562 624 q 543 570 547 578 l 536 567 l 285 567 q 281 572 279 567 l 300 621 q 309 627 304 627 m 266 513 l 512 513 q 516 501 520 513 q 498 464 499 465 q 498 455 499 458 l 491 452 l 242 452 q 239 458 237 452 l 258 507 q 266 513 261 513 m 220 398 l 469 398 q 475 389 473 398 l 468 372 l 459 344 l 452 341 l 203 341 q 199 358 200 341 l 213 393 q 220 398 216 398 m 181 283 l 427 283 q 421 241 435 283 q 407 227 412 227 l 158 227 q 155 233 153 227 l 173 278 q 181 283 176 283 m 130 170 l 384 170 q 388 163 389 169 l 382 158 q 385 155 381 155 l 374 135 l 368 115 l 361 113 l 107 113 q 104 118 101 113 l 122 163 q 130 170 125 170 m 84 55 l 339 55 q 338 33 345 55 q 311 -2 318 -2 l 62 -2 q 58 3 56 -2 l 77 50 q 84 55 79 55 m 370 1040 q 327 956 362 991 q 219 911 282 911 q 112 956 156 911 q 70 1034 78 989 q 67 1097 67 1048 q 69 1158 67 1145 q 112 1238 77 1204 q 219 1283 156 1283 q 327 1238 282 1283 q 367 1166 358 1206 q 371 1100 371 1149 q 370 1040 371 1051 m 808 133 q 765 50 800 85 q 657 5 720 5 q 550 50 594 5 q 508 127 516 83 q 505 190 505 141 q 507 252 505 239 q 550 332 515 297 q 657 376 594 376 q 765 332 720 376 q 805 260 796 300 q 809 194 809 243 q 808 133 809 144 z "},"&":{"ha":1103,"x_min":34,"x_max":899,"o":"m 406 1188 q 416 1166 411 1166 l 427 1166 q 444 1185 430 1166 q 446 1183 446 1185 l 452 1185 l 463 1185 q 476 1166 473 1166 q 487 1164 481 1164 q 503 1183 497 1166 q 544 1161 523 1177 l 547 1161 l 560 1164 q 566 1158 561 1158 l 563 1153 l 563 1139 q 571 1131 563 1135 l 585 1131 q 598 1145 587 1131 q 614 1131 609 1145 q 595 1120 595 1128 l 595 1107 q 604 1099 595 1103 l 617 1099 q 631 1115 621 1099 l 633 1115 q 644 1104 633 1104 l 644 1099 q 625 1082 631 1099 q 636 1066 631 1066 l 642 1066 q 655 1074 655 1066 l 661 1074 q 666 1063 661 1070 l 658 1053 q 680 1031 659 1031 l 680 1028 l 677 1023 l 680 1006 q 661 993 662 1000 l 661 990 q 682 968 663 968 l 685 963 l 685 947 q 663 930 663 935 l 663 920 q 688 909 667 909 q 666 868 685 889 l 666 857 l 674 846 q 671 836 671 842 l 666 836 q 650 849 666 846 q 633 833 642 849 q 652 817 637 817 l 655 817 l 666 825 l 669 825 l 669 822 q 644 784 665 784 q 636 770 638 784 q 647 751 636 762 l 647 743 q 642 738 647 738 l 639 738 q 623 757 639 757 q 606 738 606 753 l 606 735 q 617 724 606 731 l 623 724 l 636 727 q 606 697 635 720 l 604 697 q 609 713 609 706 q 601 724 605 724 l 585 724 q 576 708 576 722 l 576 705 q 598 694 576 694 q 593 681 598 681 l 595 675 l 593 665 q 655 518 627 565 q 696 450 675 498 q 723 437 720 443 q 758 461 744 437 l 777 472 l 780 472 l 780 467 q 772 453 772 467 l 772 448 q 788 437 772 442 q 804 450 800 441 q 785 469 804 469 l 785 475 q 796 480 789 475 l 799 480 q 815 467 815 469 q 834 480 832 472 l 834 483 l 829 502 l 831 502 q 867 475 851 499 q 888 448 869 467 q 897 434 888 441 l 891 434 q 880 437 882 437 q 864 420 873 437 q 878 404 868 410 l 897 407 l 899 401 q 856 361 874 372 q 837 339 856 357 q 815 312 837 312 l 807 301 l 807 298 l 812 290 l 810 290 q 834 236 815 259 l 864 174 q 878 130 878 134 q 859 98 874 98 q 823 79 859 79 q 764 41 804 60 q 693 0 734 8 l 685 0 q 671 24 671 7 q 655 65 655 24 q 614 146 632 90 q 609 155 612 146 q 617 163 613 155 q 609 165 614 163 l 582 141 q 552 130 575 141 l 552 136 q 566 149 562 136 q 547 165 566 165 l 541 165 q 530 149 536 165 q 549 130 530 143 l 536 122 q 522 136 536 125 l 511 136 q 500 119 500 130 l 503 103 l 500 103 l 484 106 q 438 81 456 81 l 441 87 l 441 90 q 425 109 441 109 q 408 90 408 104 q 419 79 411 79 l 419 73 l 406 73 l 397 79 q 368 68 374 68 l 351 68 l 332 81 q 311 68 314 68 q 275 81 290 68 q 245 79 252 79 l 245 81 l 254 92 l 254 103 q 235 114 250 114 q 221 98 221 110 l 224 84 q 191 103 191 84 q 180 117 191 111 l 172 117 q 161 106 161 112 l 156 106 q 140 114 142 106 l 140 117 q 159 133 159 117 l 159 138 q 145 149 159 142 q 126 125 126 149 l 123 125 q 80 179 80 157 q 96 198 96 185 q 85 212 91 210 l 83 212 l 64 209 l 61 214 q 64 231 61 216 q 45 271 53 246 q 61 285 61 281 l 61 296 q 37 309 61 302 q 34 336 37 322 q 37 339 37 336 q 45 336 42 336 q 58 347 57 342 l 58 353 q 37 372 58 372 l 37 374 q 53 404 37 397 q 58 418 58 413 l 50 431 l 50 442 l 56 442 q 77 429 56 429 l 88 442 q 69 461 88 461 l 56 458 q 80 496 56 488 q 85 510 85 496 l 85 513 l 80 521 l 80 524 q 85 529 81 529 q 99 521 85 525 q 115 540 115 521 l 115 543 l 104 556 q 113 564 104 560 q 123 553 113 560 l 129 553 q 145 570 145 553 q 137 586 145 576 l 145 591 q 161 583 148 583 q 178 613 178 583 q 224 643 207 613 q 237 659 237 648 q 235 667 235 665 l 218 656 q 123 811 137 739 q 96 925 110 861 q 183 1120 96 1034 q 357 1183 246 1170 q 406 1188 357 1185 m 438 1156 l 438 1145 q 457 1134 443 1134 q 471 1153 471 1138 q 457 1166 471 1156 l 449 1166 q 438 1156 445 1166 m 500 1147 l 500 1142 q 517 1131 506 1131 q 533 1145 528 1135 q 522 1164 530 1164 l 517 1164 q 500 1147 500 1164 m 411 1128 l 411 1112 q 419 1104 411 1108 l 422 1104 q 441 1120 441 1104 q 427 1137 437 1132 q 411 1128 411 1135 m 468 1120 q 484 1101 468 1108 q 503 1118 498 1101 q 484 1134 499 1134 q 468 1120 475 1134 m 530 1115 q 549 1099 536 1099 q 566 1115 557 1099 q 555 1131 560 1131 l 541 1131 q 530 1115 537 1131 m 441 1093 l 441 1082 q 452 1072 441 1078 l 460 1072 q 471 1082 464 1072 l 471 1093 q 460 1104 471 1097 l 452 1104 q 441 1093 448 1104 m 500 1088 q 519 1069 506 1069 q 533 1080 532 1074 l 533 1085 q 517 1101 533 1101 l 511 1101 q 500 1088 507 1101 m 563 1082 q 576 1066 563 1078 q 595 1077 595 1071 l 595 1090 q 579 1101 595 1095 q 563 1082 563 1095 m 414 1072 l 414 1055 q 378 1044 414 1050 q 343 1012 343 1020 q 324 939 337 1009 l 324 925 q 381 800 340 845 q 389 789 385 800 l 387 773 q 397 762 387 769 l 403 762 q 422 784 422 762 q 457 819 439 784 q 479 838 479 819 q 476 854 479 840 l 481 857 l 490 852 l 498 852 q 511 868 508 857 q 492 887 511 881 l 509 933 l 500 947 l 500 966 l 498 979 q 506 996 506 982 l 506 998 q 463 1042 480 1019 l 457 1042 l 444 1039 l 438 1047 q 444 1055 441 1055 q 427 1074 444 1067 l 414 1072 m 471 1053 q 484 1039 471 1049 l 492 1039 q 503 1050 496 1039 l 503 1061 q 492 1072 503 1065 l 481 1072 q 471 1053 471 1067 m 533 1055 q 549 1036 533 1044 q 566 1047 566 1042 l 566 1053 q 549 1069 566 1069 l 544 1069 q 533 1055 538 1067 m 595 1050 q 606 1036 601 1038 l 620 1036 q 628 1053 628 1039 l 628 1058 q 612 1069 628 1063 q 595 1050 595 1063 m 503 1020 q 517 1006 503 1017 q 536 1017 532 1006 l 536 1028 q 525 1039 536 1032 l 514 1039 q 503 1020 503 1035 m 566 1020 q 576 1006 571 1008 l 590 1006 q 598 1023 598 1009 l 598 1025 q 585 1039 598 1028 q 566 1020 566 1034 m 628 1017 q 647 1004 632 1004 l 650 1004 q 661 1015 654 1004 l 661 1025 q 644 1036 655 1036 q 628 1017 628 1032 m 536 996 l 536 987 q 555 974 538 979 q 568 993 568 978 l 568 996 q 557 1006 568 1000 l 547 1006 q 536 996 543 1006 m 598 987 l 598 985 q 609 974 598 981 l 620 974 q 631 985 624 974 l 631 987 q 614 1006 631 1002 q 598 987 598 1002 m 506 966 l 506 963 q 522 944 506 944 q 538 963 538 944 l 538 966 q 528 977 538 970 l 517 977 q 506 966 513 977 m 568 958 l 568 955 q 579 944 568 951 l 585 944 q 601 960 601 944 l 601 963 l 590 977 q 568 958 568 977 m 631 963 l 631 952 q 642 941 631 948 l 652 941 q 663 952 656 941 l 663 955 q 644 974 663 974 q 631 963 632 968 m 538 928 q 555 911 538 917 q 571 925 566 916 q 560 944 571 940 l 555 944 q 538 928 538 944 m 601 933 l 601 922 q 612 911 601 918 l 623 911 q 633 922 627 911 l 633 930 q 623 944 633 932 q 601 933 601 941 m 509 898 l 509 892 q 525 882 509 887 q 541 901 541 888 q 522 914 537 914 q 509 898 509 914 m 571 903 l 571 898 q 587 879 571 883 q 604 895 595 879 q 587 914 604 906 q 571 903 571 909 m 633 901 l 633 890 q 644 879 633 886 l 647 879 q 666 898 666 879 q 652 911 666 901 q 633 901 638 911 m 541 873 l 541 860 q 557 849 541 854 q 574 868 574 856 q 555 882 570 882 l 549 882 q 541 873 545 882 m 601 865 q 620 849 605 849 q 636 863 630 849 q 617 882 631 882 q 601 865 610 882 m 509 833 q 522 819 509 829 q 541 830 537 819 l 541 844 q 533 852 541 848 l 519 852 q 509 833 509 848 m 571 836 q 582 819 576 819 l 595 819 q 606 838 603 819 q 587 852 593 852 q 571 836 579 852 m 479 803 q 500 789 486 789 q 511 800 505 789 l 511 806 q 495 822 511 822 l 490 822 q 479 803 479 818 m 541 800 q 557 787 547 791 q 574 806 574 787 l 574 811 q 566 819 574 815 l 552 819 q 541 800 541 815 m 604 806 q 614 787 604 791 l 620 787 q 636 803 636 787 q 620 819 634 819 q 604 806 609 816 m 449 773 q 468 760 453 760 l 471 760 q 481 770 475 760 l 481 773 q 463 792 481 792 q 449 773 449 788 m 511 770 q 530 757 519 757 q 544 768 543 762 l 544 773 q 528 789 544 789 l 522 789 q 511 770 511 785 m 574 776 l 574 768 q 585 757 574 764 l 595 757 q 606 768 600 757 l 606 779 q 593 789 606 783 q 574 776 576 784 m 357 746 q 368 732 362 734 l 373 732 q 389 749 389 732 l 389 754 q 373 765 389 760 q 357 746 357 761 m 419 751 l 419 741 q 430 730 419 736 l 441 730 q 452 741 445 730 l 452 743 q 433 762 452 762 q 419 751 420 757 m 481 749 l 481 738 q 500 727 486 727 q 514 746 514 731 q 495 760 510 760 l 492 760 q 481 749 488 760 m 544 746 l 544 738 q 560 724 549 728 q 576 743 576 728 q 560 757 576 757 l 555 757 q 544 746 551 757 m 327 716 q 343 700 327 706 q 359 713 355 704 q 343 735 359 730 q 327 716 327 731 m 389 722 l 389 711 q 400 700 389 707 l 411 700 q 422 711 415 700 l 422 713 q 403 732 422 732 q 389 722 391 727 m 452 719 l 452 708 q 463 697 452 704 l 465 697 q 484 716 484 697 q 465 730 480 730 l 463 730 q 452 719 458 730 m 514 716 l 514 705 q 530 694 519 694 q 547 708 542 699 q 528 727 547 727 l 525 727 q 514 716 521 727 m 281 703 l 283 703 q 294 711 294 707 l 294 713 q 281 703 282 708 m 297 686 l 297 681 q 313 670 297 677 q 330 689 330 674 l 330 692 q 319 703 330 696 l 313 703 q 297 686 297 703 m 359 692 l 359 686 q 376 670 359 670 l 381 670 q 392 686 392 675 q 376 703 392 694 q 359 692 359 697 m 422 689 l 422 678 q 433 667 422 674 l 435 667 q 454 681 450 667 q 435 700 454 700 q 422 689 423 694 m 484 686 l 484 675 q 503 665 489 665 q 517 678 511 667 q 498 697 517 697 l 495 697 q 484 686 491 697 m 547 678 l 547 673 q 563 662 547 667 q 579 675 574 666 q 563 697 579 690 q 547 678 547 693 m 245 675 l 245 673 l 248 673 q 267 692 267 673 l 264 692 q 245 675 245 678 m 264 656 q 286 640 270 640 q 300 654 290 640 q 281 673 300 673 q 264 656 271 673 m 330 662 l 330 648 q 346 637 330 644 q 362 659 362 643 q 351 670 362 663 l 338 670 q 330 662 334 670 m 392 659 l 392 654 q 408 637 392 637 q 425 654 420 637 q 406 670 418 670 q 392 659 393 665 m 454 656 l 454 646 q 473 635 459 635 q 487 648 476 635 q 468 667 485 667 l 465 667 q 454 656 461 667 m 517 656 l 517 643 q 533 632 522 632 q 549 651 549 639 q 530 665 545 665 q 517 656 517 663 m 579 654 l 579 651 q 590 662 583 651 l 587 662 q 579 654 583 662 m 235 627 q 256 610 239 610 q 270 627 262 610 q 256 643 267 638 l 254 643 q 235 627 239 643 m 297 624 q 319 608 302 608 q 332 621 321 608 q 313 640 330 640 l 308 640 q 297 624 297 635 m 359 624 q 370 608 365 608 l 384 608 q 395 629 391 608 l 378 640 q 359 624 366 640 m 422 624 q 441 605 425 605 q 457 621 452 605 q 438 637 451 637 q 422 624 433 637 m 484 618 q 503 602 490 602 q 519 616 509 602 q 500 635 517 635 q 484 618 488 635 m 205 594 q 224 581 209 581 l 227 581 q 237 591 231 581 l 237 602 q 227 613 237 606 l 224 613 q 205 594 205 613 m 267 597 q 286 578 267 578 q 300 589 298 583 l 300 600 q 289 610 300 604 l 278 610 q 267 597 273 609 m 330 591 q 346 575 330 583 q 362 586 362 581 l 362 600 q 354 608 362 604 l 340 608 q 330 591 330 602 m 392 594 q 403 575 392 580 l 408 575 q 425 591 425 575 l 425 597 q 414 608 425 601 q 392 594 399 608 m 454 591 q 473 572 454 572 q 490 589 480 572 q 476 605 486 600 l 473 605 q 454 591 458 605 m 175 570 l 175 564 q 194 551 180 551 q 208 567 208 551 l 208 572 q 189 583 203 583 q 175 570 181 581 m 237 562 q 256 548 241 548 q 270 559 269 553 l 270 570 q 259 581 270 574 l 256 581 q 237 562 237 581 m 300 564 q 319 545 302 545 q 332 556 331 551 l 332 567 q 319 581 332 570 q 300 564 307 581 m 362 564 q 376 543 362 551 q 395 556 393 548 l 395 567 q 378 578 395 572 q 362 564 368 574 m 425 556 q 435 543 430 544 l 446 543 q 457 553 450 543 l 457 564 q 446 575 457 568 l 444 575 q 425 556 425 575 m 145 534 q 156 521 151 522 l 161 521 q 178 537 178 521 q 161 553 176 553 q 145 534 145 549 m 208 540 l 208 537 q 221 518 208 524 l 229 518 q 240 529 233 518 l 240 540 q 229 551 240 544 l 227 551 q 208 540 212 551 m 270 537 l 270 534 q 289 515 270 515 q 302 534 302 519 l 302 537 q 292 548 302 541 l 281 548 q 270 537 277 548 m 332 532 q 349 513 332 519 q 365 532 365 517 l 365 534 q 351 548 365 537 q 332 532 332 543 m 395 526 q 406 513 400 514 l 416 513 q 427 524 420 513 l 427 526 q 408 545 427 545 q 395 526 395 541 m 115 505 q 132 488 115 492 q 148 502 143 492 l 148 510 q 134 524 148 513 q 115 505 115 520 m 178 502 l 178 499 q 189 488 178 495 l 199 488 q 210 499 203 488 l 210 502 q 191 521 210 521 q 178 502 178 517 m 240 507 l 240 505 q 254 486 240 491 q 273 505 273 486 l 273 507 q 262 518 273 511 l 251 518 q 240 507 247 518 m 302 505 l 302 502 q 319 483 304 483 q 335 496 330 487 l 335 505 q 324 515 335 509 l 313 515 q 302 505 309 515 m 305 439 l 308 420 l 305 420 l 286 423 q 275 415 275 419 l 275 401 q 294 391 280 391 l 294 388 q 275 345 294 378 l 275 342 l 300 307 l 300 298 q 278 288 278 298 l 278 285 q 292 266 278 271 q 311 282 311 266 l 313 282 q 373 244 373 260 q 381 233 374 233 l 395 233 q 408 244 407 244 q 411 241 411 244 q 433 247 428 247 q 446 231 437 236 l 457 231 q 468 247 468 236 l 465 263 l 471 266 l 479 260 q 503 285 496 260 q 528 309 528 292 l 528 312 l 525 312 l 519 309 l 468 380 q 430 450 435 432 l 430 464 q 414 477 414 464 q 422 499 422 493 q 384 513 416 506 q 381 515 384 515 q 362 486 362 511 q 332 458 332 486 q 305 442 305 450 l 305 439 m 85 475 l 85 472 q 99 458 85 469 q 118 477 118 462 l 118 480 q 107 491 118 484 l 102 491 q 85 475 85 491 m 148 480 l 148 475 q 156 458 150 458 l 170 458 q 180 477 180 463 q 167 491 178 485 q 148 480 148 488 m 210 477 l 210 467 q 221 456 210 463 l 224 456 q 243 475 243 456 q 224 488 239 488 l 221 488 q 210 477 217 488 m 273 475 l 273 472 q 289 453 273 457 q 305 467 300 457 q 294 486 305 481 l 283 486 q 273 475 279 486 m 834 458 l 834 448 q 845 437 834 444 l 856 437 q 867 456 867 441 q 850 467 864 467 l 842 467 q 834 458 838 467 m 118 450 l 118 445 q 134 429 118 429 l 140 429 q 151 445 151 434 q 140 458 145 457 l 126 458 q 118 450 122 458 m 180 448 l 180 434 q 197 426 183 426 q 213 445 213 426 q 199 458 213 448 q 180 448 185 458 m 243 445 l 243 434 q 262 423 248 423 q 275 439 273 428 q 256 456 275 456 l 254 456 q 243 445 250 456 m 742 423 l 742 418 q 761 407 747 407 q 774 426 774 415 q 755 439 770 439 q 742 423 742 439 m 804 429 l 804 415 q 812 407 804 411 l 826 407 q 837 423 837 412 q 821 439 837 430 q 804 429 804 434 m 85 415 q 104 396 85 401 q 121 415 121 402 q 104 431 121 421 q 85 415 94 431 m 707 431 q 685 412 685 414 l 690 410 l 693 410 q 712 429 712 410 l 707 431 m 151 418 l 151 412 q 167 396 151 396 q 183 410 179 396 q 164 429 183 423 q 151 418 152 423 m 210 410 q 229 393 210 393 q 245 415 245 395 l 232 426 l 224 426 q 210 410 214 421 m 712 393 l 712 388 q 731 377 717 377 q 745 391 734 377 q 726 410 743 410 q 712 393 712 410 m 650 391 q 666 380 652 380 q 682 396 677 380 q 674 407 678 407 l 671 407 q 650 391 650 394 m 774 399 l 774 385 q 791 374 780 374 q 804 385 803 380 l 804 399 q 788 407 802 407 l 783 407 q 774 399 779 407 m 834 391 q 845 374 840 374 l 859 374 q 869 388 863 374 q 850 407 869 401 q 834 391 842 407 m 58 391 l 58 377 q 75 366 64 366 q 88 377 87 372 l 88 391 q 72 399 85 399 l 66 399 q 58 391 62 399 m 118 382 q 129 366 123 366 l 142 366 q 151 374 146 366 l 151 388 q 137 399 151 392 q 118 382 125 399 m 180 374 q 199 363 190 363 q 213 380 213 363 l 213 385 q 194 396 209 396 q 180 374 180 389 m 243 380 q 262 361 243 361 l 264 361 q 275 372 269 361 l 275 377 q 259 393 275 393 q 243 380 248 393 m 617 369 q 628 350 621 350 l 633 350 q 650 366 650 350 l 650 372 q 636 382 644 382 q 617 369 618 376 m 680 363 q 699 347 684 347 l 701 347 q 715 363 711 353 q 693 380 709 380 q 680 363 685 378 m 742 361 q 761 345 748 345 q 777 358 766 345 q 766 377 772 377 l 753 377 q 742 361 742 372 m 804 358 q 815 345 810 346 l 821 345 q 837 353 835 345 l 837 366 q 823 377 837 370 q 804 358 804 372 m 88 353 q 107 334 88 339 q 121 345 119 339 l 121 350 q 107 369 121 363 q 88 353 95 369 m 151 350 q 161 334 156 334 l 172 334 q 183 345 176 334 l 183 347 q 167 366 183 366 q 151 350 159 366 m 213 345 q 232 331 218 331 l 235 331 q 245 342 239 331 l 245 353 q 235 363 245 357 l 232 363 q 213 345 213 363 m 587 334 q 604 317 587 326 q 620 336 620 321 l 620 342 q 604 353 620 347 q 587 334 587 347 m 650 331 q 661 317 655 319 l 671 317 q 682 328 675 317 l 682 339 q 671 350 682 343 q 650 331 650 350 m 712 334 q 731 315 712 315 q 745 326 743 320 l 745 336 q 734 347 745 340 l 723 347 q 712 334 718 346 m 774 334 q 791 312 774 317 q 807 323 807 317 l 807 328 q 791 347 807 344 q 774 334 780 344 m 58 326 q 75 304 58 309 q 91 323 91 304 q 75 336 91 336 l 69 336 q 58 326 65 336 m 121 323 l 121 315 q 132 304 121 311 l 137 304 q 153 320 153 304 q 140 336 153 330 q 121 323 123 331 m 183 315 q 202 301 187 301 l 205 301 q 216 312 209 301 l 216 315 q 197 334 216 334 q 183 315 183 330 m 541 320 l 544 320 q 557 331 556 326 l 557 334 q 541 320 541 324 m 245 312 q 259 298 245 309 q 278 309 274 298 l 278 320 q 267 331 278 324 l 264 331 q 245 312 245 331 m 557 309 l 557 307 q 574 288 557 291 q 590 307 590 292 l 590 309 q 576 323 590 312 q 557 309 559 317 m 631 320 q 620 301 620 311 q 631 288 625 289 l 642 288 q 652 298 646 288 l 652 301 q 631 320 652 320 m 682 298 l 682 296 q 693 285 682 292 l 704 285 q 715 296 708 285 l 715 307 q 704 317 715 311 l 701 317 q 682 298 682 317 m 745 296 q 761 282 747 288 q 777 293 777 288 l 777 304 q 766 315 777 308 l 755 315 q 745 296 745 311 m 91 293 l 91 285 q 107 271 96 275 q 123 290 123 275 q 107 307 123 300 q 91 293 96 303 m 153 285 l 153 282 q 164 271 153 278 l 175 271 q 186 282 179 271 l 186 285 q 172 304 186 300 q 153 285 153 304 m 216 290 l 216 288 q 235 269 216 269 q 248 288 248 273 q 229 301 244 301 l 227 301 q 216 290 222 301 m 528 279 l 528 277 q 541 258 528 263 q 560 277 560 258 l 560 279 q 549 290 560 283 l 538 290 q 528 279 534 290 m 590 271 q 606 258 590 258 l 612 258 q 623 269 616 258 l 623 271 q 609 290 623 283 q 590 271 590 287 m 652 277 l 652 274 q 671 255 652 255 l 674 255 q 685 266 678 255 l 685 269 q 666 288 685 288 q 652 277 654 282 m 715 274 l 715 263 q 734 252 720 252 q 747 271 747 256 l 747 274 q 736 285 747 278 l 726 285 q 715 274 722 285 m 61 263 l 61 260 q 77 241 61 241 q 94 255 89 245 q 83 274 94 270 l 72 274 q 61 263 68 274 m 123 255 l 123 252 q 137 239 123 250 q 156 252 154 244 l 156 255 q 137 274 156 274 q 123 255 123 270 m 186 260 l 186 250 q 197 239 186 245 l 208 239 q 218 250 212 239 l 218 252 q 199 271 218 271 q 186 260 187 266 m 248 258 l 248 255 q 267 236 248 236 q 281 255 281 240 q 262 269 277 269 l 259 269 q 248 258 255 269 m 311 255 l 311 252 q 324 233 311 240 q 343 252 343 237 l 343 255 q 332 266 343 259 l 321 266 q 311 255 317 266 m 498 250 l 498 247 q 517 228 498 228 q 530 247 530 232 l 530 250 q 519 260 530 254 l 509 260 q 498 250 505 260 m 560 241 q 576 225 560 231 q 593 239 588 229 l 593 247 q 579 260 593 250 q 560 241 560 257 m 623 247 l 623 241 q 639 225 623 225 l 644 225 q 655 236 648 225 l 655 244 q 639 258 650 254 q 623 247 623 252 m 685 244 l 685 233 q 704 222 690 222 q 718 241 718 227 q 699 255 713 255 q 685 244 686 250 m 94 225 q 110 209 94 213 q 126 228 126 215 q 113 244 126 233 q 94 225 94 241 m 156 231 l 156 220 q 167 209 156 216 l 178 209 q 189 228 189 214 q 170 241 180 241 q 156 231 157 236 m 218 228 l 218 217 q 229 206 218 213 l 232 206 q 251 225 251 206 q 232 239 247 239 l 229 239 q 218 228 225 239 m 281 220 l 281 214 q 297 203 286 203 q 313 217 309 208 q 294 236 313 236 q 281 220 281 236 m 343 225 l 343 214 q 354 203 343 210 l 365 203 q 376 214 369 203 l 376 222 q 365 233 376 227 l 351 233 q 343 225 347 233 m 406 222 l 406 209 q 422 201 408 201 q 438 220 438 201 q 425 233 438 223 q 406 222 410 233 m 468 220 l 468 209 q 487 198 473 198 q 500 217 500 202 q 481 231 496 231 l 479 231 q 468 220 475 231 m 530 212 q 547 195 530 201 q 563 214 563 201 q 552 228 557 227 l 547 228 q 530 212 530 228 m 593 217 l 593 212 q 609 195 593 195 l 614 195 q 625 206 618 195 l 625 214 q 612 228 625 218 q 593 217 593 224 m 655 214 l 655 209 l 658 195 l 666 195 l 688 209 q 669 225 682 225 q 655 214 656 220 m 126 201 l 126 195 q 142 179 126 179 l 148 179 q 159 195 153 179 q 142 212 159 203 q 126 201 126 206 m 186 193 q 199 176 190 182 l 202 176 q 221 193 221 176 q 202 209 216 209 q 186 193 195 209 m 251 195 l 251 184 q 262 174 251 180 l 264 174 q 283 193 283 174 q 264 206 279 206 l 262 206 q 251 195 258 206 m 311 190 q 330 171 311 176 q 346 187 338 171 q 327 203 346 203 l 321 203 q 311 190 317 203 m 376 193 l 376 187 q 392 171 376 171 l 397 171 q 408 187 408 176 q 389 203 401 203 q 376 193 377 198 m 438 190 l 438 184 q 454 168 438 168 q 471 190 471 168 l 457 201 l 449 201 q 438 190 445 201 m 500 182 l 500 176 q 517 165 506 165 q 533 182 525 165 q 514 198 533 198 q 500 182 500 198 m 563 187 l 563 182 q 576 163 563 170 q 595 179 589 163 q 585 195 590 195 l 571 195 q 563 187 567 195 m 625 184 l 625 168 l 628 168 q 652 187 652 182 q 644 195 652 191 q 625 184 630 195 m 94 163 q 104 149 99 151 l 118 149 q 129 165 123 149 q 118 179 123 178 l 104 179 q 94 163 94 174 m 156 165 q 175 146 158 146 q 191 163 187 146 q 170 179 186 179 q 156 165 167 179 m 218 160 q 232 144 222 149 l 240 144 q 254 157 244 144 q 240 176 248 174 l 237 176 q 218 160 224 176 m 283 165 l 283 152 q 302 141 288 141 q 313 152 307 141 l 313 165 q 297 174 311 174 l 292 174 q 283 165 288 174 m 343 157 q 359 138 343 146 q 378 155 370 138 q 362 174 378 165 q 343 157 350 174 m 406 149 q 425 138 415 138 q 438 155 438 138 l 438 160 q 427 171 438 164 q 406 149 406 171 m 468 152 q 487 136 472 136 l 490 136 q 503 152 500 141 q 484 168 499 168 q 468 152 468 165 m 189 130 q 208 114 189 114 l 210 114 q 224 130 220 119 q 202 146 218 146 q 189 130 194 145 m 251 127 q 270 111 257 111 q 286 125 275 111 q 267 144 283 144 l 262 144 q 251 127 256 144 m 313 130 q 332 109 318 109 q 346 119 345 114 l 346 125 q 330 141 346 141 l 324 141 q 313 130 321 141 m 376 125 q 387 109 381 109 l 392 109 q 408 117 406 109 l 408 130 q 392 141 408 136 q 376 125 384 141 m 438 117 q 457 106 448 106 l 460 106 q 471 117 464 106 l 471 127 q 460 138 471 132 l 457 138 q 438 117 438 138 m 283 95 q 300 79 283 87 q 316 90 316 84 l 316 95 q 300 111 316 111 l 294 111 q 283 95 283 106 m 346 98 l 346 90 q 357 79 346 85 l 362 79 q 378 95 378 79 q 365 111 378 105 q 346 98 348 106 z "},"'":{"ha":411,"x_min":34,"x_max":208,"o":"m 140 1287 l 159 1287 q 164 1282 164 1286 l 170 1284 q 197 1249 197 1277 q 208 1222 208 1236 q 145 1032 185 1071 q 80 967 117 991 l 72 967 q 53 986 53 967 q 80 1021 53 1004 q 91 1059 87 1050 q 58 1100 83 1100 l 45 1097 q 34 1114 45 1100 l 34 1279 q 39 1284 35 1284 l 77 1284 q 80 1282 80 1284 q 83 1284 83 1282 q 123 1282 110 1282 l 132 1282 l 140 1287 z "},"(":{"ha":620,"x_min":34,"x_max":416,"o":"m 308 1299 l 313 1299 q 411 1261 411 1295 l 408 1242 q 411 1196 408 1234 l 408 1196 q 308 1297 405 1196 l 308 1299 m 264 1297 l 408 1150 l 408 1147 q 357 1126 381 1126 l 208 1278 l 208 1280 q 264 1297 236 1291 m 167 1270 l 330 1107 q 305 1063 313 1084 l 300 1063 q 118 1245 215 1145 q 167 1270 125 1256 m 88 1221 l 91 1221 q 292 1020 183 1133 l 292 1017 q 289 979 292 1002 l 292 974 q 289 955 289 963 l 286 955 q 64 1177 178 1060 l 64 1183 q 88 1221 76 1211 m 50 1134 l 56 1134 q 286 901 286 908 q 281 873 286 889 q 283 849 283 859 l 283 838 l 281 838 q 42 1074 276 842 q 50 1134 42 1079 m 39 1025 l 42 1025 l 286 784 l 283 757 l 283 713 l 281 713 q 37 958 139 852 l 37 987 q 39 990 37 990 q 37 998 37 996 q 39 1025 37 1002 m 37 903 l 42 903 l 278 667 l 278 643 q 275 640 278 640 l 278 635 l 278 597 l 275 597 q 39 833 161 708 l 39 863 q 37 903 39 876 m 39 787 l 278 545 q 275 477 275 488 l 273 477 q 39 713 39 706 q 34 754 39 728 l 37 760 q 34 784 34 774 l 39 787 m 45 654 l 50 654 q 205 496 50 650 q 278 420 278 425 l 278 369 q 275 366 278 366 l 278 361 l 278 353 l 275 353 q 47 583 47 576 q 45 605 47 595 q 47 608 45 608 l 45 621 l 45 654 m 53 526 q 283 296 175 408 l 283 282 q 281 274 283 274 q 286 222 286 229 q 53 453 281 222 q 56 475 53 456 q 50 499 50 492 l 50 507 l 53 526 m 56 399 l 58 399 q 414 43 229 231 q 376 5 408 5 q 53 328 210 168 q 58 334 54 334 l 53 388 q 56 399 56 393 m 53 277 l 56 277 q 327 5 210 127 l 327 3 l 311 0 l 305 3 q 297 0 300 0 q 273 5 293 0 q 264 3 267 3 q 113 149 252 3 q 75 184 109 149 q 53 241 53 195 l 53 277 m 61 146 l 64 146 q 197 14 68 146 l 197 11 q 118 49 118 30 q 66 127 82 66 q 61 144 61 136 l 61 146 m 365 146 q 416 109 416 140 l 416 92 l 411 92 q 365 141 411 96 l 365 146 z "},")":{"ha":617,"x_min":34,"x_max":414,"o":"m 159 0 l 137 0 q 42 33 42 4 q 39 41 42 35 l 42 54 q 37 130 42 70 q 85 174 37 163 q 137 217 120 185 q 159 288 159 249 l 161 320 q 159 323 161 323 l 161 342 l 161 369 q 170 426 161 401 q 164 505 167 448 q 172 621 167 576 l 172 656 q 175 659 172 659 l 172 665 l 172 716 q 178 735 172 735 l 172 749 q 175 817 172 764 q 172 933 172 901 l 175 933 q 167 1017 167 956 q 170 1028 167 1023 q 137 1126 170 1087 l 137 1134 l 132 1131 l 129 1131 q 45 1164 107 1150 q 34 1191 34 1185 l 34 1232 q 80 1294 34 1294 l 140 1299 l 145 1297 q 153 1299 151 1299 q 178 1294 157 1299 q 180 1297 180 1294 q 321 1267 243 1297 q 365 1221 321 1263 q 404 1143 390 1193 l 404 1132 q 412 1040 412 1048 q 411 458 411 486 l 411 437 q 414 396 411 423 l 411 396 l 414 391 l 414 385 q 411 377 414 377 l 414 363 l 414 312 q 411 309 414 309 q 414 307 411 307 q 365 79 414 155 q 243 19 317 33 q 159 0 191 0 z "},"*":{"ha":764,"x_min":38,"x_max":569,"o":"m 418 1340 q 422 1337 420 1339 l 437 1321 l 435 1320 l 396 1318 l 418 1340 m 193 859 l 197 855 l 189 847 q 144 857 171 831 l 146 859 q 193 859 190 862 m 281 943 l 283 941 q 246 909 279 938 l 230 890 l 201 892 q 95 901 106 889 l 56 939 q 57 946 54 942 q 281 943 182 947 m 317 1203 l 559 1198 l 562 1196 q 532 1152 569 1188 l 524 1145 q 373 1146 447 1145 q 404 1113 390 1128 q 488 1111 443 1112 l 445 1069 q 508 989 513 994 l 515 986 l 538 962 q 475 879 552 947 l 418 833 q 338 892 411 827 l 328 907 l 252 979 q 40 983 180 979 l 38 985 l 46 992 l 56 1005 q 79 1020 62 1008 q 87 1031 81 1025 l 91 1035 q 208 1030 93 1033 q 205 1036 207 1033 q 201 1036 203 1038 q 190 1051 193 1045 q 176 1065 183 1058 q 136 1067 138 1066 l 134 1069 q 140 1078 138 1073 l 153 1087 q 96 1146 119 1122 l 70 1173 q 86 1239 42 1202 q 136 1284 101 1255 l 146 1293 l 147 1304 l 160 1314 l 172 1329 q 197 1326 176 1325 l 200 1323 q 218 1301 206 1317 q 229 1294 220 1298 q 241 1276 239 1278 q 290 1230 279 1240 l 305 1209 q 317 1203 313 1206 m 364 1288 l 447 1285 q 503 1259 460 1298 q 502 1252 506 1255 l 514 1244 l 519 1238 l 522 1233 q 406 1234 407 1233 q 373 1233 374 1235 q 307 1234 326 1238 l 364 1288 z "},"+":{"ha":764,"x_min":37,"x_max":575,"o":"m 199 880 q 204 881 201 881 l 226 881 l 226 878 l 199 849 l 199 880 m 391 385 l 397 385 l 397 374 q 359 349 397 349 l 359 351 q 391 385 387 385 m 391 507 l 394 507 q 391 458 394 502 l 394 433 l 372 414 q 294 342 309 342 l 239 341 q 234 347 235 341 q 391 507 320 437 m 229 712 l 399 884 l 402 884 q 413 832 413 884 l 413 821 q 309 713 360 766 q 353 713 332 713 q 413 772 380 741 l 413 712 q 515 703 515 709 l 522 705 l 555 705 q 571 602 575 705 l 566 529 q 468 513 565 520 l 450 515 l 346 510 q 196 359 295 458 l 193 359 l 193 370 l 191 387 q 196 414 193 393 q 193 427 193 418 l 193 433 q 278 514 196 433 q 272 515 275 515 q 269 513 269 515 q 250 515 256 513 q 231 515 240 515 q 201 488 203 488 l 199 487 q 196 498 199 493 l 199 514 q 117 513 151 513 l 79 513 q 43 570 39 513 q 44 637 41 592 l 45 651 l 38 659 l 39 675 l 37 694 q 56 711 42 694 l 60 711 q 90 708 69 711 q 101 711 93 708 q 123 708 120 708 q 190 711 175 711 l 216 708 q 229 712 222 711 m 199 805 l 258 863 q 315 885 258 882 q 321 880 321 885 l 334 883 l 342 883 l 348 880 q 267 798 269 798 q 245 773 245 776 q 199 726 209 742 l 199 805 z "},",":{"ha":411,"x_min":34,"x_max":208,"o":"m 140 199 l 159 199 q 164 193 164 198 l 170 196 q 197 161 197 189 q 208 134 208 148 q 145 -56 185 -18 q 80 -121 117 -97 l 72 -121 q 53 -102 53 -121 q 80 -67 53 -84 q 91 -29 87 -38 q 58 12 83 12 l 45 9 q 34 25 45 12 l 34 191 q 39 196 35 196 l 77 196 q 80 193 80 196 q 83 196 83 193 q 123 193 110 193 l 132 193 l 140 199 z "},"-":{"ha":642,"x_min":34,"x_max":430,"o":"m 180 738 l 197 738 q 384 727 384 738 l 389 730 l 414 730 q 430 627 428 730 l 430 553 q 359 537 430 545 l 346 540 l 270 534 l 270 537 q 262 534 264 534 l 243 537 l 237 534 q 216 540 233 534 q 213 537 213 540 q 199 540 204 537 q 102 537 139 537 l 75 537 q 45 594 45 537 q 42 662 42 616 l 42 675 l 37 684 l 37 700 l 34 719 q 47 735 38 719 l 50 735 q 72 732 57 735 q 80 735 75 732 q 96 732 94 732 q 145 735 134 735 l 164 732 q 180 738 173 738 z "},"":{"ha":642,"x_min":34,"x_max":430,"o":"m 180 738 l 197 738 q 384 727 384 738 l 389 730 l 414 730 q 430 627 428 730 l 430 553 q 359 537 430 545 l 346 540 l 270 534 l 270 537 q 262 534 264 534 l 243 537 l 237 534 q 216 540 233 534 q 213 537 213 540 q 199 540 204 537 q 102 537 139 537 l 75 537 q 45 594 45 537 q 42 662 42 616 l 42 675 l 37 684 l 37 700 l 34 719 q 47 735 38 719 l 50 735 q 72 732 57 735 q 80 735 75 732 q 96 732 94 732 q 145 735 134 735 l 164 732 q 180 738 173 738 z "},".":{"ha":400,"x_min":34,"x_max":197,"o":"m 66 214 q 88 206 88 212 l 88 8 q 83 3 88 3 l 75 8 l 66 8 l 58 3 l 45 3 q 34 14 41 3 l 34 203 q 66 214 34 211 m 148 212 l 151 212 l 159 206 l 180 206 q 197 198 197 205 l 197 14 q 161 0 184 0 l 156 3 q 145 0 151 0 l 142 5 l 142 206 q 148 212 143 212 z "},"/":{"ha":687,"x_min":34,"x_max":528,"o":"m 237 -3 l 220 3 q 191 -3 214 3 l 186 0 q 183 -3 184 0 l 170 0 q 134 -3 169 0 l 109 5 l 101 5 q 86 0 87 5 l 60 3 l 41 3 q 34 11 37 3 l 36 22 l 62 19 l 73 30 l 75 46 q 62 65 78 61 l 46 62 q 43 65 46 65 l 50 84 l 58 130 l 66 130 q 92 152 87 130 l 94 165 q 85 176 95 170 l 68 176 l 63 174 l 61 179 l 64 195 q 64 209 66 204 l 87 298 l 87 309 q 108 382 98 343 l 108 396 q 113 407 109 402 q 115 437 113 425 l 117 445 q 126 486 119 462 q 127 507 125 496 q 136 526 131 526 l 134 532 q 171 659 161 647 l 170 681 l 173 686 q 171 689 174 689 l 177 708 l 179 719 q 176 738 181 738 l 182 757 l 191 806 q 195 808 192 808 l 193 814 q 200 838 195 823 q 203 903 206 889 q 225 979 214 931 q 226 1001 224 989 l 228 1012 q 231 1015 229 1015 l 229 1020 q 233 1025 231 1025 l 234 1044 l 240 1080 q 242 1107 242 1093 q 284 1268 276 1268 q 321 1279 296 1279 l 359 1276 l 365 1279 l 376 1276 l 392 1279 l 408 1276 l 509 1282 q 526 1271 528 1277 l 524 1257 q 495 1080 515 1206 l 490 1066 l 492 1061 q 484 1031 486 1042 l 484 1020 l 475 998 q 477 977 479 988 l 364 342 q 357 336 362 336 q 360 334 357 334 l 355 320 q 351 288 354 315 l 344 260 q 341 228 343 241 q 333 198 340 222 q 336 182 332 182 l 330 163 l 328 152 q 310 84 315 84 q 310 22 313 78 q 237 -3 305 -3 m 301 33 q 281 57 302 57 q 252 33 256 57 q 264 11 250 20 l 270 11 q 301 33 290 11 m 189 41 l 190 49 q 179 62 191 52 q 143 46 145 58 l 142 38 q 159 14 142 14 q 189 41 184 14 m 253 98 q 240 117 254 102 l 234 114 l 229 117 q 205 90 212 117 q 223 68 203 74 q 253 98 248 68 m 142 98 q 126 119 142 119 q 93 98 96 116 q 115 73 89 77 q 142 98 137 73 m 315 144 l 316 146 q 293 171 319 167 q 269 144 276 171 q 285 125 266 125 l 288 125 q 315 144 312 125 m 206 155 q 185 174 201 174 q 156 146 164 174 q 169 127 158 134 l 174 127 q 206 155 201 127 m 269 203 l 269 217 l 231 217 q 224 212 225 217 l 222 201 q 238 182 219 182 q 269 203 265 182 m 159 214 l 155 217 l 117 217 q 111 212 111 217 l 110 209 q 127 184 106 189 q 159 214 154 184 z "},":":{"ha":422,"x_min":45,"x_max":245,"o":"m 52 244 q 123 233 102 233 l 132 233 q 142 236 138 233 l 156 233 l 220 233 l 234 236 q 243 228 243 232 l 243 198 q 245 155 243 182 q 240 133 240 141 q 245 109 240 129 q 243 43 243 71 l 245 33 q 200 8 245 8 q 142 0 200 3 l 123 3 l 111 0 q 80 5 87 5 l 65 3 q 47 14 47 3 q 52 57 47 22 l 47 103 l 50 103 q 47 106 50 106 l 50 138 q 45 206 45 202 l 47 212 q 45 222 45 216 l 45 239 q 52 244 45 244 m 90 691 q 111 683 111 688 l 111 485 q 106 479 111 479 l 98 485 l 90 485 l 81 479 l 68 479 q 57 490 64 479 l 57 680 q 90 691 57 688 m 171 688 l 174 688 l 182 683 l 203 683 q 220 675 220 682 l 220 490 q 184 477 207 477 l 179 479 q 168 477 174 477 l 165 482 l 165 683 q 171 688 166 688 z "},";":{"ha":411,"x_min":32,"x_max":208,"o":"m 140 199 l 159 199 q 164 193 164 198 l 170 196 q 197 161 197 189 q 208 134 208 148 q 145 -56 185 -18 q 80 -121 117 -97 l 72 -121 q 53 -102 53 -121 q 80 -67 53 -84 q 91 -29 87 -38 q 58 12 83 12 l 45 9 q 34 25 45 12 l 34 191 q 39 196 35 196 l 77 196 q 80 193 80 196 q 83 196 83 193 q 123 193 110 193 l 132 193 l 140 199 m 64 693 q 86 685 86 690 l 86 487 q 81 481 86 481 l 73 487 l 64 487 l 56 481 l 43 481 q 32 492 39 481 l 32 682 q 64 693 32 690 m 146 690 l 149 690 l 157 685 l 178 685 q 195 677 195 684 l 195 492 q 159 479 182 479 l 154 481 q 143 479 149 479 l 140 484 l 140 685 q 146 690 141 690 z "},"":{"ha":411,"x_min":32,"x_max":208,"o":"m 140 199 l 159 199 q 164 193 164 198 l 170 196 q 197 161 197 189 q 208 134 208 148 q 145 -56 185 -18 q 80 -121 117 -97 l 72 -121 q 53 -102 53 -121 q 80 -67 53 -84 q 91 -29 87 -38 q 58 12 83 12 l 45 9 q 34 25 45 12 l 34 191 q 39 196 35 196 l 77 196 q 80 193 80 196 q 83 196 83 193 q 123 193 110 193 l 132 193 l 140 199 m 64 693 q 86 685 86 690 l 86 487 q 81 481 86 481 l 73 487 l 64 487 l 56 481 l 43 481 q 32 492 39 481 l 32 682 q 64 693 32 690 m 146 690 l 149 690 l 157 685 l 178 685 q 195 677 195 684 l 195 492 q 159 479 182 479 l 154 481 q 143 479 149 479 l 140 484 l 140 685 q 146 690 141 690 z "},"<":{"ha":799,"x_min":52,"x_max":660,"o":"m 637 937 l 623 937 q 612 920 618 937 q 632 903 618 903 q 646 922 646 907 q 637 937 644 937 m 635 872 l 629 872 q 609 858 616 872 q 626 838 609 845 q 646 858 640 838 q 635 872 640 871 m 632 808 l 621 808 q 609 796 616 808 l 609 793 q 626 774 609 774 q 643 788 638 777 q 632 808 643 802 m 598 970 q 581 956 587 966 l 581 948 q 601 934 581 941 q 615 945 614 939 l 615 951 q 598 970 615 970 m 604 903 l 589 903 q 581 895 585 903 l 581 880 q 598 869 581 875 q 612 889 612 873 l 612 895 q 604 903 612 899 m 595 841 q 578 821 578 837 q 593 804 578 811 q 612 824 606 804 q 595 841 612 831 m 598 774 l 587 774 q 576 762 583 774 l 576 754 q 587 743 576 750 l 598 743 q 609 754 602 743 l 609 762 q 598 774 609 767 m 562 937 q 547 922 558 937 q 559 903 547 907 l 573 903 q 581 911 577 903 l 581 925 q 562 937 577 937 m 564 872 q 547 861 547 867 l 547 855 q 567 836 547 836 q 581 855 581 847 q 564 872 581 863 m 562 808 q 545 788 545 803 l 545 785 q 559 771 545 782 q 578 788 572 771 q 562 808 578 802 m 528 903 q 517 886 517 900 l 517 878 q 534 869 519 869 l 539 869 q 547 878 543 869 l 547 892 q 528 903 543 903 m 534 838 l 525 838 q 514 827 521 838 l 514 821 q 531 804 514 804 q 547 824 547 804 q 534 838 547 828 m 525 774 q 511 754 511 770 l 511 751 q 522 740 511 747 l 534 740 q 545 760 545 744 q 525 774 541 774 m 505 934 l 497 934 q 483 914 483 925 q 503 900 487 900 q 517 917 517 900 l 517 922 q 505 934 517 927 m 497 869 l 494 869 q 483 858 490 869 l 483 847 q 494 836 483 842 l 497 836 q 517 850 512 836 q 497 869 513 869 m 494 804 l 492 804 q 480 793 487 804 l 480 782 q 492 771 480 778 l 494 771 q 514 791 514 771 q 494 804 509 804 m 500 740 l 497 740 q 477 720 477 740 q 497 706 481 706 l 500 706 q 511 718 504 706 l 511 729 q 500 740 511 733 m 472 900 l 463 900 q 449 886 460 900 q 463 867 455 869 l 466 867 q 483 883 483 867 l 483 889 q 472 900 483 893 m 463 836 l 460 836 q 449 824 456 836 l 449 813 q 460 802 449 809 l 463 802 q 483 821 483 802 q 463 836 479 836 m 469 771 l 458 771 q 446 760 454 771 l 446 757 q 458 737 446 741 l 460 737 q 480 757 480 737 l 480 760 q 469 771 480 764 m 441 867 l 429 867 q 418 855 425 867 l 418 844 q 433 833 420 838 q 449 841 449 836 l 449 858 q 441 867 449 862 m 438 802 l 427 802 q 416 791 422 802 l 416 788 q 435 768 416 768 q 449 788 449 772 l 449 791 q 438 802 449 795 m 435 737 l 424 737 q 413 718 413 732 q 433 703 417 703 q 446 723 446 708 l 446 726 q 435 737 446 730 m 410 897 l 396 897 q 385 883 392 897 q 399 863 390 865 q 421 880 414 863 q 410 897 416 897 m 407 833 l 396 833 q 385 821 392 833 l 385 810 q 399 799 386 804 q 418 819 418 799 q 407 833 413 831 m 404 768 l 393 768 q 382 757 389 768 l 382 754 q 401 734 382 734 q 416 745 414 740 l 416 757 q 404 768 416 761 m 370 867 q 354 855 354 861 l 354 841 q 368 830 354 837 q 387 850 382 830 q 370 867 387 858 m 368 802 q 351 788 357 798 l 351 785 q 368 765 351 770 q 385 785 385 765 q 368 802 385 793 m 365 737 q 348 723 354 733 l 348 715 q 365 701 354 704 q 382 712 382 706 l 382 718 q 365 737 382 733 m 337 833 q 320 821 320 827 l 320 808 q 328 799 320 803 l 342 799 q 354 816 348 799 q 337 833 354 824 m 334 768 q 317 754 323 764 l 317 751 q 334 734 317 734 q 351 751 351 734 q 334 768 351 762 m 328 703 q 315 690 325 703 q 326 670 315 674 l 340 670 q 348 678 344 670 l 348 692 q 328 703 344 703 m 303 863 q 289 852 290 858 l 289 847 q 306 830 289 830 l 312 830 q 323 844 316 830 q 303 863 317 863 m 300 799 q 286 788 288 793 l 286 777 q 298 765 286 772 l 309 765 q 320 785 320 770 q 300 799 316 799 m 298 734 q 283 712 283 728 q 295 701 283 708 l 300 701 q 317 718 317 701 l 317 723 q 298 734 313 734 m 269 830 l 267 830 q 256 819 262 830 l 256 813 q 273 796 256 796 q 289 810 285 796 q 269 830 289 830 m 267 765 q 253 745 253 761 l 253 743 q 264 732 253 739 l 267 732 q 286 751 286 732 q 267 765 282 765 m 264 701 q 250 681 250 692 q 261 667 256 669 l 267 667 q 283 684 283 667 l 283 690 q 264 701 279 701 m 244 796 l 233 796 q 222 785 229 796 l 222 774 q 233 762 222 770 l 236 762 q 256 782 256 762 q 244 796 250 795 m 241 732 l 230 732 q 219 712 219 727 q 239 698 223 698 q 253 718 253 702 l 253 720 q 241 732 253 724 m 239 667 l 230 667 q 216 650 220 661 q 236 633 220 633 q 250 650 250 633 l 250 656 q 239 667 250 660 m 214 827 l 202 827 q 191 816 198 827 l 191 804 q 202 793 191 800 l 205 793 q 224 813 224 793 q 214 827 219 825 m 210 762 l 199 762 q 188 751 195 762 l 188 749 q 208 729 188 729 q 222 749 222 733 l 222 751 q 210 762 222 755 m 208 698 l 197 698 q 185 681 185 692 q 199 664 189 669 q 219 684 219 664 l 219 686 q 208 698 219 691 m 199 633 l 197 633 q 185 622 193 633 l 185 611 q 216 616 211 616 l 216 625 q 199 633 214 633 m 180 793 l 168 793 q 157 782 164 793 l 157 779 q 171 760 157 764 q 191 779 191 760 q 180 793 185 792 m 177 729 l 165 729 q 155 709 155 724 q 168 695 157 701 q 188 715 188 695 l 188 718 q 177 729 188 722 m 168 664 l 163 664 q 151 648 157 664 q 165 631 156 635 q 188 648 181 631 q 168 664 184 664 m 149 824 l 143 824 q 126 808 126 824 q 143 791 126 795 q 160 810 160 797 q 149 824 155 823 m 146 760 l 135 760 q 123 740 123 755 q 138 726 123 737 q 157 745 157 728 l 157 749 q 146 760 157 753 m 146 695 l 132 695 q 121 678 121 690 q 140 661 127 661 q 155 681 155 665 q 146 695 153 695 m 138 633 q 121 622 121 628 l 121 608 q 129 600 121 604 l 143 600 q 155 614 147 600 q 138 633 155 626 m 113 793 q 93 774 93 790 q 109 757 93 762 q 126 777 126 763 q 113 793 126 781 m 106 729 q 90 709 90 722 q 104 692 90 703 q 123 712 123 694 q 106 729 123 724 m 113 661 l 98 661 q 87 648 93 660 q 98 631 93 631 l 113 631 q 121 648 121 633 l 121 653 q 113 661 121 657 m 113 597 q 104 600 109 597 q 87 589 87 594 l 87 585 q 113 591 100 591 l 113 597 m 79 760 q 59 740 59 760 q 76 723 59 733 q 93 737 87 727 l 93 740 q 79 760 93 755 m 73 695 q 56 678 64 695 q 67 661 62 661 l 81 661 q 90 670 85 661 l 90 684 q 73 695 84 695 m 70 631 q 56 619 58 625 l 56 605 q 73 597 59 597 q 90 614 85 597 q 70 631 83 631 m 52 758 q 62 768 56 759 l 62 771 q 52 789 62 785 l 52 802 l 59 804 l 62 804 q 79 791 62 791 l 84 791 q 96 804 96 796 l 93 819 q 109 824 98 819 q 118 821 115 821 q 155 836 118 827 l 157 836 q 177 824 170 824 q 194 844 194 831 q 191 847 191 844 q 219 858 213 854 l 227 858 l 224 844 q 241 827 224 827 l 247 827 q 258 844 253 827 q 244 863 258 848 l 253 869 l 256 869 q 275 861 266 861 q 292 880 289 861 l 323 892 l 326 892 l 323 886 l 323 872 q 332 863 323 868 l 345 863 q 354 872 349 863 l 354 886 l 345 897 l 345 900 l 359 903 q 370 895 359 900 q 399 917 378 895 l 413 920 l 418 920 q 433 897 418 904 q 452 917 452 897 l 449 931 l 455 934 q 472 931 457 934 q 511 951 491 950 q 514 954 511 954 q 528 934 521 935 l 534 934 q 551 951 551 934 q 542 968 551 957 q 556 973 551 973 q 562 968 556 968 l 567 968 q 598 987 575 968 q 612 990 607 987 q 635 968 618 968 q 648 979 647 973 l 648 996 l 652 996 q 660 973 660 994 q 646 948 646 966 q 660 934 648 948 l 660 911 q 643 889 643 894 q 657 872 647 877 l 654 852 l 654 850 l 657 844 q 643 824 643 838 l 643 819 l 660 802 q 657 799 660 799 l 660 793 q 640 762 660 785 l 640 757 q 654 740 640 753 l 654 737 q 646 732 646 737 l 643 732 l 626 745 q 606 726 606 740 q 609 718 609 720 l 604 715 l 589 718 q 567 706 589 714 l 567 709 l 576 720 l 576 732 q 556 743 572 743 q 542 729 553 743 l 542 720 q 559 709 547 709 l 559 703 q 539 701 551 703 q 522 709 536 709 q 486 684 510 697 l 483 684 q 466 706 471 706 l 463 706 q 444 690 444 706 q 446 678 446 684 l 446 675 l 429 675 q 407 670 410 670 l 407 673 q 413 690 413 682 q 396 703 413 703 l 390 703 q 379 686 385 703 q 393 673 384 673 l 393 667 l 390 667 q 354 670 389 667 q 334 653 349 653 l 315 650 q 295 670 315 670 q 281 656 292 670 l 283 642 l 283 636 l 261 636 q 253 628 257 636 l 253 625 q 326 597 253 612 q 444 549 393 574 l 525 524 q 584 507 525 517 l 615 490 q 654 473 638 484 l 652 462 q 660 425 660 430 q 657 417 657 420 q 660 406 660 412 l 657 406 l 660 400 q 652 375 656 375 q 654 372 652 372 l 652 353 q 654 321 654 328 l 652 316 q 654 304 654 311 l 648 302 l 652 296 q 646 279 652 292 q 652 274 652 279 l 621 245 l 618 245 q 576 254 613 252 q 547 265 576 259 q 488 282 545 271 q 455 299 488 295 l 455 302 l 449 299 q 357 330 377 316 q 241 363 327 330 l 241 370 l 236 366 q 52 433 227 366 l 52 578 q 56 580 54 579 q 52 589 55 585 l 52 631 q 56 636 56 633 l 56 650 q 52 656 56 653 l 52 695 q 59 703 55 698 l 59 715 q 52 723 57 720 l 52 758 z "},"=":{"ha":764,"x_min":34,"x_max":578,"o":"m 39 673 q 38 678 38 675 l 38 700 l 41 700 l 70 673 l 39 673 m 114 673 l 56 732 q 34 789 37 732 q 39 795 34 795 l 36 808 l 36 817 l 39 822 q 121 741 121 743 q 146 719 143 719 q 193 673 177 683 l 114 673 m 236 673 l 35 873 l 35 876 q 87 887 35 887 l 98 887 q 315 673 212 777 l 294 673 q 290 675 292 674 l 290 673 l 236 673 m 505 670 q 492 667 500 667 l 486 667 q 279 876 486 672 l 279 879 q 323 873 310 873 q 339 876 325 873 q 350 873 344 873 q 559 670 357 873 l 559 667 l 549 667 l 532 665 q 505 670 526 667 m 146 887 l 217 887 q 431 675 431 680 l 432 673 q 421 670 426 673 l 405 673 q 370 670 403 673 q 146 887 362 670 m 412 865 l 412 868 q 461 865 417 868 l 486 868 l 505 846 q 576 768 576 783 l 578 713 q 572 708 578 709 q 412 865 481 794 m 534 865 l 534 871 l 545 871 q 570 833 570 871 l 568 833 q 534 865 534 861 m 238 567 l 260 567 q 515 556 515 567 l 522 559 l 555 559 q 571 456 575 559 l 566 382 q 468 366 565 374 l 450 369 l 346 363 l 346 366 q 335 363 338 363 l 309 366 l 301 363 q 272 369 295 363 q 269 366 269 369 q 250 369 256 366 q 117 366 168 366 l 79 366 q 43 423 39 366 q 44 491 41 446 l 45 505 l 38 513 l 39 529 l 37 548 q 56 564 42 548 l 60 564 q 90 562 69 564 q 101 564 93 562 q 123 562 120 562 q 190 564 175 564 l 216 562 q 238 567 228 567 z "},">":{"ha":852,"x_min":52,"x_max":660,"o":"m 75 304 l 89 304 q 100 321 94 304 q 80 338 94 338 q 66 319 66 334 q 75 304 68 304 m 77 369 l 83 369 q 103 383 96 369 q 86 403 103 396 q 66 383 72 403 q 77 369 72 370 m 80 433 l 92 433 q 103 445 96 433 l 103 448 q 86 467 103 467 q 69 453 74 464 q 80 433 69 439 m 114 271 q 131 285 125 275 l 131 293 q 111 307 131 300 q 97 296 98 302 l 97 290 q 114 271 97 271 m 109 338 l 123 338 q 131 347 127 338 l 131 361 q 114 372 131 366 q 100 352 100 368 l 100 347 q 109 338 100 342 m 117 400 q 134 420 134 404 q 119 437 134 430 q 100 417 106 437 q 117 400 100 410 m 114 467 l 125 467 q 136 479 130 467 l 136 487 q 125 498 136 491 l 114 498 q 103 487 110 498 l 103 479 q 114 467 103 474 m 151 304 q 165 319 154 304 q 153 338 165 334 l 139 338 q 131 330 135 338 l 131 316 q 151 304 135 304 m 148 369 q 165 380 165 374 l 165 386 q 145 406 165 406 q 131 386 131 394 q 148 369 131 378 m 151 433 q 168 453 168 438 l 168 456 q 153 470 168 459 q 134 453 140 470 q 151 433 134 439 m 184 338 q 195 355 195 341 l 195 363 q 178 372 193 372 l 173 372 q 165 363 169 372 l 165 349 q 184 338 169 338 m 178 403 l 187 403 q 198 414 191 403 l 198 420 q 181 437 198 437 q 165 417 165 437 q 178 403 165 413 m 187 467 q 201 487 201 471 l 201 490 q 190 501 201 494 l 178 501 q 168 481 168 497 q 187 467 172 467 m 207 307 l 215 307 q 229 327 229 316 q 210 341 225 341 q 195 324 195 341 l 195 319 q 207 307 195 314 m 215 372 l 218 372 q 229 383 222 372 l 229 394 q 218 406 229 399 l 215 406 q 195 391 200 406 q 215 372 199 372 m 218 437 l 220 437 q 232 448 225 437 l 232 459 q 220 470 232 463 l 218 470 q 198 450 198 470 q 218 437 203 437 m 212 501 l 215 501 q 235 521 235 501 q 215 535 231 535 l 212 535 q 201 524 208 535 l 201 512 q 212 501 201 508 m 240 341 l 249 341 q 263 355 252 341 q 249 374 257 372 l 246 374 q 229 358 229 374 l 229 352 q 240 341 229 348 m 249 406 l 252 406 q 263 417 256 406 l 263 428 q 252 439 263 432 l 249 439 q 229 420 229 439 q 249 406 233 406 m 243 470 l 254 470 q 266 481 258 470 l 266 484 q 254 504 266 500 l 252 504 q 232 484 232 504 l 232 481 q 243 470 232 477 m 271 374 l 283 374 q 294 386 287 374 l 294 397 q 279 408 292 403 q 263 400 263 406 l 263 383 q 271 374 263 379 m 274 439 l 286 439 q 296 450 290 439 l 296 453 q 277 473 296 473 q 263 453 263 469 l 263 450 q 274 439 263 446 m 277 504 l 288 504 q 299 524 299 509 q 279 538 295 538 q 266 518 266 533 l 266 515 q 277 504 266 511 m 302 344 l 316 344 q 328 358 320 344 q 313 378 322 376 q 291 361 298 378 q 302 344 296 344 m 305 408 l 316 408 q 328 420 320 408 l 328 431 q 313 442 326 437 q 294 422 294 442 q 305 408 299 410 m 308 473 l 319 473 q 330 484 323 473 l 330 487 q 311 507 330 507 q 296 496 298 501 l 296 484 q 308 473 296 480 m 342 374 q 358 386 358 380 l 358 400 q 345 411 358 404 q 325 391 330 411 q 342 374 325 383 m 345 439 q 361 453 355 444 l 361 456 q 345 476 361 471 q 328 456 328 476 q 345 439 328 448 m 347 504 q 364 518 358 508 l 364 526 q 347 541 358 537 q 330 529 330 535 l 330 524 q 347 504 330 508 m 375 408 q 392 420 392 414 l 392 433 q 384 442 392 438 l 370 442 q 358 425 364 442 q 375 408 358 417 m 378 473 q 395 487 389 477 l 395 490 q 378 507 395 507 q 361 490 361 507 q 378 473 361 479 m 384 538 q 397 551 387 538 q 387 571 397 567 l 372 571 q 364 563 368 571 l 364 549 q 384 538 368 538 m 409 378 q 423 389 422 383 l 423 394 q 406 411 423 411 l 400 411 q 389 397 396 411 q 409 378 395 378 m 412 442 q 426 453 425 448 l 426 465 q 414 476 426 469 l 404 476 q 392 456 392 471 q 412 442 396 442 m 414 507 q 429 529 429 513 q 417 541 429 533 l 412 541 q 395 524 395 541 l 395 518 q 414 507 399 507 m 443 411 l 446 411 q 456 422 450 411 l 456 428 q 439 445 456 445 q 423 431 427 445 q 443 411 423 411 m 446 476 q 459 496 459 480 l 459 498 q 448 509 459 503 l 446 509 q 426 490 426 509 q 446 476 430 476 m 448 541 q 463 560 463 549 q 451 574 456 572 l 446 574 q 429 557 429 574 l 429 551 q 448 541 433 541 m 468 445 l 479 445 q 490 456 484 445 l 490 467 q 479 479 490 471 l 476 479 q 456 459 456 479 q 468 445 463 446 m 471 509 l 482 509 q 493 529 493 514 q 473 543 489 543 q 459 524 459 539 l 459 521 q 471 509 459 517 m 473 574 l 482 574 q 496 591 492 580 q 476 608 492 608 q 463 591 463 608 l 463 585 q 473 574 463 581 m 498 414 l 510 414 q 522 425 514 414 l 522 437 q 510 448 522 441 l 507 448 q 488 428 488 448 q 498 414 493 416 m 502 479 l 513 479 q 524 490 517 479 l 524 492 q 505 512 524 512 q 490 492 490 508 l 490 490 q 502 479 490 486 m 505 543 l 515 543 q 527 560 527 549 q 513 577 523 572 q 493 557 493 577 l 493 555 q 505 543 493 550 m 513 608 l 515 608 q 527 619 519 608 l 527 630 q 496 625 501 625 l 496 616 q 513 608 498 608 m 532 448 l 544 448 q 555 459 548 448 l 555 462 q 541 481 555 477 q 522 462 522 481 q 532 448 527 449 m 535 512 l 547 512 q 557 532 557 517 q 544 546 555 540 q 524 526 524 546 l 524 524 q 535 512 524 519 m 544 577 l 549 577 q 561 593 555 577 q 547 610 556 606 q 524 593 531 610 q 544 577 528 577 m 564 417 l 569 417 q 586 433 586 417 q 569 450 586 446 q 552 431 552 444 q 564 417 557 418 m 566 481 l 577 481 q 589 501 589 486 q 574 515 589 504 q 555 496 555 513 l 555 492 q 566 481 555 488 m 566 546 l 581 546 q 591 563 591 551 q 572 580 585 580 q 557 560 557 576 q 566 546 559 546 m 574 608 q 591 619 591 613 l 591 633 q 583 642 591 637 l 569 642 q 557 627 565 642 q 574 608 557 615 m 600 448 q 619 467 619 451 q 603 484 619 479 q 586 465 586 478 q 600 448 586 460 m 606 512 q 623 532 623 519 q 608 549 623 538 q 589 529 589 547 q 606 512 589 517 m 600 580 l 614 580 q 625 593 619 581 q 614 610 619 610 l 600 610 q 591 593 591 608 l 591 588 q 600 580 591 584 m 600 644 q 608 642 603 644 q 625 652 625 647 l 625 656 q 600 650 612 650 l 600 644 m 633 481 q 653 501 653 481 q 636 518 653 508 q 619 504 625 514 l 619 501 q 633 481 619 486 m 639 546 q 656 563 648 546 q 645 580 650 580 l 631 580 q 623 571 627 580 l 623 557 q 639 546 628 546 m 642 610 q 656 622 654 616 l 656 636 q 639 644 653 644 q 623 627 627 644 q 642 610 629 610 m 660 484 q 650 473 656 482 l 650 470 q 660 452 650 456 l 660 439 l 653 437 l 650 437 q 633 450 650 450 l 628 450 q 616 437 616 445 l 619 422 q 603 417 614 422 q 594 420 597 420 q 557 406 594 414 l 555 406 q 535 417 543 417 q 518 397 518 410 q 522 394 522 397 q 493 383 499 387 l 485 383 l 488 397 q 471 414 488 414 l 465 414 q 454 397 459 414 q 468 378 454 393 l 459 372 l 456 372 q 437 380 446 380 q 420 361 423 380 l 389 349 l 387 349 l 389 355 l 389 369 q 380 378 389 373 l 367 378 q 358 369 363 378 l 358 355 l 367 344 l 367 341 l 353 338 q 342 347 353 341 q 313 324 334 347 l 299 321 l 294 321 q 279 344 294 337 q 260 324 260 344 l 263 310 l 257 307 q 240 310 255 307 q 201 290 221 291 q 198 288 201 288 q 184 307 191 306 l 178 307 q 161 290 161 307 q 170 273 161 284 q 156 268 161 268 q 151 273 156 273 l 145 273 q 114 254 137 273 q 100 251 105 254 q 77 273 94 273 q 64 262 65 268 l 64 245 l 60 245 q 52 268 52 248 q 66 293 66 275 q 52 307 64 293 l 52 330 q 69 352 69 347 q 55 369 65 364 l 58 389 l 58 391 l 55 397 q 69 417 69 403 l 69 422 l 52 439 q 55 442 52 442 l 52 448 q 72 479 52 456 l 72 484 q 58 501 72 488 l 58 504 q 66 509 66 504 l 69 509 l 86 496 q 106 515 106 501 q 103 524 103 521 l 109 526 l 123 524 q 145 535 123 527 l 145 532 l 136 521 l 136 509 q 156 498 140 498 q 170 512 159 498 l 170 521 q 153 532 165 532 l 153 538 q 173 541 161 538 q 190 532 176 532 q 227 557 202 544 l 229 557 q 246 535 241 535 l 249 535 q 269 551 269 535 q 266 563 266 557 l 266 566 l 283 566 q 305 571 302 571 l 305 568 q 299 551 299 559 q 316 538 299 538 l 322 538 q 333 555 328 538 q 319 568 328 568 l 319 574 l 322 574 q 358 571 323 574 q 378 588 363 588 l 397 591 q 417 571 397 571 q 431 585 420 571 l 429 600 l 429 605 l 451 605 q 459 613 455 605 l 459 616 q 387 644 459 629 q 269 692 319 667 l 187 718 q 128 734 187 724 l 97 751 q 58 768 74 758 l 60 779 q 52 816 52 811 q 55 824 55 821 q 52 836 52 829 l 55 836 l 52 841 q 60 866 56 866 q 58 869 60 869 l 60 888 q 58 920 58 913 l 60 925 q 58 937 58 930 l 64 939 l 60 945 q 66 962 60 949 q 60 967 60 962 l 92 996 l 94 996 q 136 987 99 989 q 165 976 136 982 q 224 959 167 970 q 257 942 224 946 l 257 939 l 263 942 q 355 911 335 925 q 471 878 385 911 l 471 871 l 476 875 q 660 808 486 875 l 660 663 q 656 661 658 662 q 660 652 657 656 l 660 610 q 656 605 656 608 l 656 591 q 660 585 656 588 l 660 546 q 653 538 657 543 l 653 526 q 660 518 655 521 l 660 484 z "},"?":{"ha":967,"x_min":34,"x_max":764,"o":"m 381 1272 l 384 1272 l 384 1270 l 376 1259 q 392 1237 376 1242 q 408 1256 408 1237 l 403 1272 l 406 1272 q 444 1261 444 1269 q 438 1256 438 1261 q 449 1237 438 1242 l 460 1237 q 471 1259 471 1237 l 479 1259 q 484 1251 484 1259 l 490 1253 l 495 1253 q 519 1234 507 1234 l 522 1234 l 536 1245 q 579 1232 562 1245 q 590 1234 584 1234 l 598 1229 l 595 1215 l 595 1213 q 612 1199 601 1203 q 631 1213 620 1200 l 633 1213 q 647 1202 647 1206 l 647 1199 q 628 1183 628 1199 l 628 1180 q 642 1166 628 1177 q 661 1191 661 1166 l 663 1191 q 682 1169 667 1191 l 677 1166 l 677 1169 q 661 1158 661 1164 l 661 1147 q 671 1137 661 1143 l 682 1137 q 690 1147 690 1137 l 696 1147 q 704 1137 700 1147 q 690 1120 699 1137 q 704 1104 694 1109 l 712 1104 l 718 1107 q 739 1042 739 1055 q 726 1023 726 1038 q 747 1004 726 1017 q 750 993 750 999 l 750 985 q 728 968 728 972 l 728 958 q 753 947 732 947 l 753 922 q 731 906 731 911 l 731 895 q 755 884 734 884 l 755 868 q 753 865 755 865 l 755 860 l 734 846 q 731 838 734 844 q 750 822 731 822 l 761 825 l 764 819 l 764 811 l 761 792 l 753 792 q 734 773 734 792 q 753 760 734 760 l 753 738 q 736 716 736 722 l 739 697 l 734 694 l 726 700 q 707 689 711 700 l 707 678 l 718 665 l 718 659 q 712 654 718 654 l 709 654 q 699 670 709 659 l 693 667 q 690 670 690 667 q 677 659 678 665 l 677 648 q 701 635 684 635 q 620 567 654 567 q 609 578 620 571 l 595 578 q 582 559 589 576 q 547 581 558 559 l 538 581 l 519 575 l 511 575 l 511 578 q 522 597 522 587 q 506 613 522 613 q 490 597 495 613 q 503 581 494 586 q 495 570 499 570 l 492 570 l 492 575 l 490 575 q 487 551 490 551 l 490 545 l 490 494 q 492 469 490 484 q 460 431 492 431 l 406 431 q 403 434 403 431 q 373 429 392 429 l 357 429 q 300 434 334 429 l 286 431 q 254 442 254 438 l 254 472 l 256 488 q 254 499 254 493 l 256 499 q 248 548 251 508 q 254 556 251 556 l 251 562 l 254 581 l 251 591 q 256 608 253 608 q 248 670 251 627 l 251 684 q 248 692 251 686 q 251 722 251 710 l 251 746 q 286 757 251 755 l 311 754 l 324 757 q 389 743 379 748 q 411 751 405 751 l 427 749 q 484 798 471 774 q 514 841 488 822 l 514 844 q 511 865 514 846 q 528 860 519 865 q 547 876 542 860 q 528 892 543 892 l 517 890 l 514 903 l 514 909 q 517 911 514 911 l 503 941 q 511 966 503 956 l 511 977 l 503 987 l 503 996 l 506 1012 l 503 1017 q 509 1034 509 1026 l 509 1039 q 492 1074 499 1068 q 509 1096 509 1090 q 490 1112 503 1112 l 476 1109 q 473 1118 473 1115 l 476 1128 q 454 1145 471 1145 q 441 1123 441 1137 q 406 1145 414 1123 l 389 1145 q 376 1126 386 1145 q 316 1058 316 1103 q 289 1036 289 1057 q 313 1020 300 1020 q 292 985 313 993 l 292 979 q 313 958 294 958 q 294 920 313 934 l 294 909 q 305 901 294 901 l 305 895 q 300 890 305 890 l 286 901 l 275 901 l 262 890 l 237 890 q 216 903 227 903 q 197 890 213 903 l 175 890 q 156 906 165 901 q 129 887 151 906 l 123 887 q 115 890 118 890 q 113 887 115 887 q 91 906 107 906 q 75 882 77 906 l 53 882 l 39 906 l 34 909 q 45 958 34 926 q 39 974 39 966 l 39 977 l 42 977 q 61 968 52 968 q 75 979 73 974 l 75 982 q 56 1001 75 1001 l 45 998 l 45 1004 q 47 1006 45 1006 l 45 1012 q 72 1042 47 1021 l 72 1047 q 61 1066 72 1057 q 66 1074 66 1066 l 72 1074 q 83 1061 72 1066 l 91 1061 q 104 1080 97 1061 q 94 1093 99 1092 l 88 1093 q 72 1080 72 1093 l 66 1080 l 66 1088 q 83 1123 72 1093 q 107 1153 100 1123 q 132 1166 125 1153 l 132 1169 l 129 1183 q 134 1188 134 1183 q 151 1183 145 1183 q 164 1213 161 1191 q 175 1215 165 1213 l 175 1213 l 221 1245 l 229 1245 q 221 1226 221 1235 q 240 1213 225 1213 l 243 1213 q 254 1223 247 1213 l 254 1234 q 240 1242 254 1242 l 240 1248 l 254 1251 q 262 1242 254 1246 l 273 1242 q 289 1264 277 1242 l 316 1267 l 313 1253 q 332 1240 317 1240 q 346 1251 345 1245 l 346 1261 l 340 1270 l 349 1270 q 351 1267 351 1270 q 381 1272 362 1272 m 283 1223 q 302 1210 288 1210 q 316 1221 315 1215 l 316 1232 q 305 1242 316 1236 l 302 1242 q 283 1223 283 1242 m 346 1229 l 346 1226 q 362 1207 346 1207 q 378 1226 378 1207 l 378 1229 q 368 1240 378 1233 l 357 1240 q 346 1229 353 1240 m 408 1226 q 419 1207 408 1212 l 425 1207 q 441 1223 441 1207 q 425 1240 441 1236 q 408 1226 414 1236 m 471 1218 q 481 1204 476 1206 l 492 1204 q 503 1215 496 1204 l 503 1226 q 484 1237 499 1237 q 471 1218 471 1233 m 533 1215 l 533 1213 q 552 1202 538 1202 q 566 1213 564 1207 l 566 1223 q 555 1234 566 1227 l 544 1234 q 533 1215 533 1230 m 191 1196 l 191 1194 q 202 1183 191 1190 l 213 1183 q 224 1194 217 1183 l 224 1202 q 208 1215 219 1212 q 191 1196 191 1215 m 254 1202 l 254 1199 q 273 1180 254 1180 l 275 1180 q 286 1191 279 1180 l 286 1202 q 267 1213 282 1213 q 254 1202 255 1207 m 316 1199 l 316 1188 q 335 1177 321 1177 q 349 1196 349 1181 l 349 1199 q 338 1210 349 1203 l 327 1210 q 316 1199 323 1210 m 378 1191 q 395 1177 378 1177 l 400 1177 q 411 1188 404 1177 l 411 1196 q 397 1210 411 1199 q 378 1191 378 1206 m 441 1196 l 441 1194 q 452 1175 441 1179 l 463 1175 q 473 1185 467 1175 l 473 1196 q 454 1207 473 1204 q 441 1196 442 1202 m 503 1194 l 503 1183 q 522 1172 508 1172 q 536 1191 536 1176 l 536 1194 q 525 1204 536 1198 l 522 1204 q 503 1194 508 1204 m 566 1191 l 566 1180 q 585 1169 566 1173 q 598 1188 598 1173 q 587 1202 593 1200 l 576 1202 q 566 1191 572 1202 m 161 1166 l 161 1164 q 172 1153 161 1160 l 183 1153 q 194 1164 187 1153 l 194 1172 q 180 1185 194 1175 q 161 1166 161 1182 m 224 1172 l 224 1161 q 235 1150 224 1157 l 245 1150 q 256 1169 256 1155 q 237 1183 248 1183 q 224 1172 225 1177 m 286 1169 l 286 1158 q 305 1147 291 1147 q 319 1166 319 1152 q 308 1180 313 1179 l 297 1180 q 286 1169 293 1180 m 349 1166 l 349 1156 q 368 1145 353 1145 q 381 1158 371 1145 l 381 1166 q 370 1177 381 1171 l 359 1177 q 349 1166 355 1177 m 411 1158 q 427 1145 411 1145 l 433 1145 q 444 1156 437 1145 l 444 1164 q 425 1177 435 1177 q 411 1158 411 1173 m 473 1164 l 473 1161 q 492 1142 473 1142 l 495 1142 q 506 1161 506 1147 q 487 1175 502 1175 q 473 1164 475 1169 m 536 1161 l 536 1150 q 555 1139 541 1139 q 568 1158 568 1143 l 568 1161 q 557 1172 568 1165 l 547 1172 q 536 1161 543 1172 m 598 1153 l 598 1147 q 614 1137 598 1143 q 631 1156 631 1141 q 620 1169 625 1168 l 614 1169 q 598 1153 598 1169 m 132 1137 q 148 1120 132 1126 q 164 1134 159 1124 q 153 1153 164 1149 l 148 1153 q 132 1137 132 1153 m 194 1142 l 194 1137 q 210 1120 194 1120 l 216 1120 q 227 1139 227 1125 q 213 1153 227 1143 q 194 1142 199 1153 m 256 1139 l 256 1128 q 275 1118 261 1118 q 289 1137 289 1122 q 275 1150 289 1140 l 267 1150 q 256 1139 263 1150 m 319 1131 l 319 1126 q 335 1115 324 1115 q 351 1128 347 1119 q 340 1147 348 1147 l 335 1147 q 319 1131 319 1147 m 506 1131 l 506 1120 q 525 1109 511 1109 q 538 1126 538 1115 q 519 1142 538 1142 l 517 1142 q 506 1131 513 1142 m 568 1123 l 568 1118 q 587 1107 573 1107 q 601 1120 595 1109 q 590 1139 601 1135 l 585 1139 q 568 1123 568 1139 m 631 1128 l 631 1115 q 639 1107 631 1111 l 652 1107 q 663 1118 656 1107 q 650 1139 663 1131 q 631 1128 631 1135 m 102 1115 l 102 1101 q 118 1090 102 1096 q 134 1109 134 1097 q 115 1123 130 1123 q 102 1115 102 1121 m 164 1112 l 164 1107 q 178 1088 164 1095 q 197 1104 190 1088 q 178 1123 197 1118 q 164 1112 165 1118 m 227 1109 l 227 1099 q 237 1088 227 1095 l 240 1088 q 259 1104 259 1088 q 245 1120 256 1116 q 227 1109 231 1120 m 286 1104 q 302 1085 286 1092 q 321 1101 317 1085 q 302 1118 317 1118 q 286 1104 294 1118 m 538 1101 l 538 1088 q 555 1077 544 1077 q 571 1093 563 1077 q 552 1109 571 1109 q 538 1101 538 1107 m 601 1099 l 601 1085 q 617 1074 601 1080 q 633 1093 633 1080 q 623 1107 628 1105 l 609 1107 q 601 1099 605 1107 m 661 1093 q 671 1074 665 1074 l 685 1074 q 696 1090 690 1074 q 680 1107 696 1099 q 661 1093 668 1104 m 134 1082 l 134 1069 q 142 1061 134 1065 l 156 1061 q 167 1077 161 1061 q 148 1090 163 1090 l 142 1090 q 134 1082 138 1090 m 194 1074 q 213 1058 198 1058 q 229 1072 223 1058 q 210 1090 229 1085 q 194 1074 203 1090 m 259 1077 l 259 1066 q 270 1055 259 1062 l 278 1055 q 289 1066 282 1055 l 289 1077 q 278 1088 289 1081 l 270 1088 q 259 1077 266 1088 m 506 1063 q 525 1047 506 1047 l 528 1047 q 541 1063 538 1053 q 528 1080 538 1075 l 525 1080 q 506 1063 511 1080 m 568 1063 q 587 1044 574 1044 q 601 1055 600 1050 l 601 1069 q 593 1077 601 1073 l 579 1077 q 568 1063 575 1077 m 631 1058 q 642 1044 636 1046 l 647 1044 q 663 1053 661 1044 l 663 1066 q 647 1077 658 1077 q 631 1058 631 1070 m 693 1058 q 712 1042 693 1042 l 715 1042 q 726 1053 719 1042 l 726 1063 q 707 1074 722 1074 q 693 1058 697 1069 m 102 1042 q 115 1028 102 1038 q 134 1039 130 1028 l 134 1053 q 126 1061 134 1057 l 113 1061 q 102 1042 102 1057 m 164 1044 q 175 1028 170 1028 l 180 1028 q 199 1047 199 1028 q 180 1061 189 1061 q 164 1044 172 1061 m 227 1042 q 245 1025 231 1025 l 248 1025 q 262 1039 251 1025 q 245 1058 262 1051 q 227 1042 231 1058 m 538 1028 q 557 1015 543 1015 l 560 1015 q 571 1025 564 1015 l 571 1036 q 560 1047 571 1040 l 549 1047 q 538 1028 538 1043 m 601 1028 q 617 1012 601 1020 q 633 1023 633 1017 l 633 1036 q 625 1044 633 1040 l 612 1044 q 601 1028 601 1039 m 663 1025 q 674 1012 669 1013 l 680 1012 q 696 1028 696 1012 l 696 1034 q 680 1044 690 1044 q 663 1025 663 1038 m 72 1012 q 85 998 72 1008 q 104 1009 100 998 l 104 1015 q 88 1031 104 1031 q 72 1012 72 1031 m 134 1009 q 151 998 137 998 l 159 998 q 167 1015 167 1001 l 167 1020 q 159 1028 167 1024 l 145 1028 q 134 1009 134 1024 m 197 1015 l 197 1006 q 208 996 197 1002 l 213 996 q 229 1012 229 996 q 210 1028 229 1028 q 197 1015 207 1028 m 259 1006 q 278 993 263 993 l 281 993 q 292 1004 285 993 l 292 1015 q 273 1025 288 1025 q 259 1006 259 1021 m 509 998 q 519 985 514 986 l 530 985 q 541 996 534 985 l 541 1006 q 530 1017 541 1010 l 528 1017 q 509 998 509 1017 m 571 996 q 587 982 576 982 q 604 1001 604 982 l 604 1004 q 593 1015 604 1008 l 582 1015 q 571 996 571 1010 m 633 1001 q 650 979 633 986 q 666 998 666 983 q 650 1015 666 1010 q 633 1001 639 1011 m 696 993 q 715 979 700 979 l 718 979 q 728 990 722 979 l 728 1001 q 709 1012 724 1012 q 696 993 696 1008 m 104 987 l 104 979 q 123 966 113 966 q 137 985 137 970 q 121 998 137 998 l 115 998 q 104 987 111 998 m 167 979 l 167 977 q 178 966 167 972 l 189 966 q 199 977 193 966 l 199 979 q 186 998 199 994 q 167 979 167 995 m 229 977 l 229 974 q 240 963 229 970 l 251 963 q 262 974 255 963 l 262 977 q 243 996 262 996 q 229 977 229 991 m 541 974 l 541 971 q 560 952 541 952 q 574 971 574 956 l 574 974 q 563 985 574 978 l 552 985 q 541 974 548 985 m 604 971 l 604 968 q 612 952 606 952 l 625 952 q 636 963 629 952 l 636 971 q 625 982 636 975 l 614 982 q 604 971 610 982 m 666 963 q 685 949 670 949 l 688 949 q 699 960 692 949 l 699 963 q 682 982 699 982 q 666 963 666 982 m 75 958 l 75 947 q 88 936 76 941 q 107 955 107 936 q 88 968 103 968 l 85 968 q 75 958 81 968 m 137 955 l 137 947 q 151 933 137 944 q 170 947 168 939 l 170 949 q 153 966 170 966 l 148 966 q 137 955 144 966 m 199 947 l 199 944 q 210 933 199 940 l 221 933 q 232 944 225 933 l 232 947 q 213 966 232 966 q 199 947 199 962 m 262 952 l 262 941 q 273 930 262 937 l 275 930 q 294 941 290 930 l 294 944 q 275 963 294 963 l 273 963 q 262 952 269 963 m 511 944 l 511 941 q 530 922 511 922 q 544 941 544 926 q 525 955 540 955 q 511 944 513 949 m 574 941 l 574 930 q 593 920 578 920 q 606 939 606 925 l 606 941 q 595 952 606 945 l 585 952 q 574 941 581 952 m 647 952 q 636 933 636 943 q 652 920 636 920 l 658 920 q 669 930 662 920 l 669 939 q 647 952 662 952 m 699 939 l 699 936 q 718 917 699 917 l 720 917 q 731 928 724 917 l 731 930 q 712 949 731 949 q 699 939 700 944 m 45 928 l 45 917 q 56 906 45 913 l 58 906 q 77 925 77 906 q 58 939 73 939 l 56 939 q 45 928 52 939 m 107 920 l 107 914 q 123 903 113 903 q 140 917 135 907 q 121 936 140 936 q 107 920 107 936 m 170 925 l 170 914 q 180 903 170 910 l 191 903 q 202 917 197 905 q 194 933 199 933 l 178 933 q 170 925 174 933 m 232 922 l 232 911 q 243 901 232 907 l 245 901 q 264 920 264 901 q 245 933 260 933 l 243 933 q 232 922 239 933 m 544 911 l 544 909 q 563 890 544 890 q 576 909 576 895 q 566 922 571 921 l 555 922 q 544 911 551 922 m 606 911 l 606 898 q 614 890 606 894 l 628 890 q 639 909 639 895 q 628 920 639 913 l 623 920 q 606 911 606 918 m 669 909 l 669 903 q 685 887 669 887 l 690 887 q 701 903 701 892 q 682 920 695 920 q 669 909 670 914 m 574 873 q 593 857 580 857 q 609 871 604 861 q 598 890 609 886 l 593 890 q 574 873 579 890 m 639 879 l 639 865 q 647 857 639 861 l 661 857 q 671 879 669 857 l 661 887 l 647 887 q 639 879 643 887 m 701 876 l 701 863 q 718 854 704 854 q 734 871 730 854 q 712 887 728 887 q 701 876 708 887 m 544 846 q 563 827 549 827 q 579 844 571 827 q 560 860 575 860 q 544 846 551 860 m 606 841 q 620 825 606 836 q 639 836 639 829 l 639 849 q 631 857 639 853 l 617 857 q 606 841 612 857 m 669 841 q 680 825 674 825 l 685 825 q 704 841 704 825 q 690 857 701 852 l 682 857 q 669 841 673 852 m 514 808 q 528 798 526 798 l 536 798 q 547 808 540 798 l 547 819 q 536 830 547 823 l 533 830 q 514 808 514 830 m 576 814 q 595 795 582 795 q 609 806 608 800 l 609 811 q 593 827 609 827 l 587 827 q 576 814 582 826 m 639 808 q 650 795 644 796 l 663 795 q 671 803 667 795 l 671 817 q 655 827 671 822 q 639 808 639 821 m 701 811 q 712 792 701 797 l 718 792 q 734 808 734 792 l 734 814 q 723 825 734 818 l 715 825 q 701 811 711 825 m 490 798 l 490 770 l 503 768 l 506 768 q 519 781 509 768 q 498 800 519 798 q 490 798 492 798 m 547 779 q 560 765 547 775 q 579 776 575 765 l 579 787 q 568 798 579 791 l 557 798 q 547 779 547 793 m 609 779 q 625 762 609 772 q 642 781 642 762 l 642 784 q 625 798 637 794 q 609 779 609 791 m 671 776 q 690 762 675 762 l 693 762 q 704 773 697 762 l 704 784 q 688 795 704 789 q 671 776 671 790 m 517 749 q 536 735 521 735 q 549 746 548 741 l 549 757 q 538 768 549 761 l 528 768 q 517 749 517 764 m 579 754 l 579 746 q 593 732 579 743 q 612 751 612 732 l 612 754 q 601 765 612 758 l 590 765 q 579 754 586 765 m 642 751 l 642 743 q 652 732 642 739 l 663 732 q 674 743 667 732 l 674 746 q 658 765 674 761 q 642 751 646 762 m 704 743 q 723 730 708 730 l 726 730 q 736 741 730 730 l 736 751 q 726 762 736 755 l 723 762 q 704 743 704 762 m 490 730 l 490 713 q 498 705 490 709 l 500 705 q 519 716 515 705 l 519 719 q 500 738 519 738 q 490 730 490 734 m 549 724 l 549 722 q 566 703 549 703 q 582 722 582 703 l 582 724 q 571 735 582 728 l 560 735 q 549 724 556 735 m 612 716 l 612 713 q 623 703 612 709 l 628 703 q 644 719 644 703 l 644 722 q 633 732 644 726 l 628 732 q 612 716 612 732 m 674 713 l 674 711 q 685 700 674 707 l 696 700 q 707 711 700 700 l 707 713 q 690 732 707 728 q 674 713 674 732 m 519 694 l 519 684 q 538 673 524 673 q 552 692 552 677 q 533 705 548 705 l 530 705 q 519 694 526 705 m 582 686 q 598 670 582 675 q 614 684 610 674 q 604 703 614 699 l 598 703 q 582 686 582 703 m 644 684 l 644 681 q 655 670 644 677 l 666 670 q 677 681 670 670 l 677 689 l 666 703 q 644 684 644 703 m 490 665 l 490 654 q 500 643 490 650 l 503 643 q 522 662 522 643 q 503 675 518 675 l 500 675 q 490 665 496 675 m 552 662 l 552 651 q 574 640 552 643 q 585 659 585 651 q 566 673 581 673 l 563 673 q 552 662 559 673 m 614 662 l 614 656 q 631 637 614 643 q 647 654 639 637 q 636 670 642 670 l 623 670 q 614 662 618 670 m 522 627 l 522 621 q 533 610 522 617 l 541 610 q 555 627 551 616 q 536 643 555 643 q 522 627 522 643 m 585 632 l 585 618 q 601 608 585 614 q 617 627 617 614 q 606 640 612 639 l 593 640 q 585 632 589 640 m 647 629 l 647 624 q 663 608 647 608 l 669 608 q 680 621 673 608 q 661 640 680 635 q 647 629 648 635 m 490 632 l 490 624 l 492 624 l 492 632 l 490 632 m 552 591 q 566 578 552 588 q 585 589 581 578 l 585 602 q 576 610 585 606 l 571 610 q 552 591 552 610 m 614 594 q 633 575 614 581 q 650 597 650 581 l 636 610 q 614 594 621 610 m 256 244 q 343 233 317 233 l 354 233 q 368 236 363 233 l 384 233 l 463 233 l 479 236 q 490 228 490 232 l 490 198 q 492 155 490 182 q 487 133 487 141 q 492 109 487 129 q 490 43 490 71 l 492 33 q 438 8 492 8 q 368 0 438 3 l 343 3 l 330 0 q 292 5 300 5 l 273 3 q 251 14 251 3 q 256 57 251 22 l 251 103 l 254 103 q 251 106 254 106 l 254 138 q 248 206 248 202 l 251 212 q 248 222 248 216 l 248 239 q 256 244 248 244 z "},"@":{"ha":1369,"x_min":0,"x_max":0,"o":""},"A":{"ha":1029,"x_min":34,"x_max":826,"o":"m 244 1282 l 275 1282 l 294 1278 l 294 1270 q 187 1160 294 1263 l 174 1160 q 178 1207 178 1194 l 178 1221 q 244 1282 236 1282 m 605 1282 l 618 1282 q 628 1283 628 1282 l 625 1282 l 631 1282 q 644 1259 644 1277 l 644 1251 q 324 929 326 929 l 324 937 l 380 937 l 648 1202 l 655 1187 l 655 1159 l 659 1137 l 446 927 l 435 935 q 430 910 437 935 q 402 652 414 652 q 384 515 397 583 q 366 465 384 465 l 106 465 q 94 482 94 465 q 113 627 98 490 q 126 725 113 635 l 126 754 q 134 766 126 766 l 134 778 q 161 937 140 787 q 159 949 159 941 q 256 1055 159 962 q 483 1276 475 1276 l 536 1276 l 536 1264 l 212 937 l 258 937 l 605 1282 m 353 1274 l 411 1274 l 411 1261 q 184 1035 304 1151 l 172 1035 q 175 1082 175 1069 l 175 1094 q 353 1274 176 1101 m 651 1081 l 665 1081 q 671 1031 671 1049 q 572 937 572 935 l 627 937 l 667 975 l 678 975 q 701 811 701 858 q 720 684 701 786 l 720 666 q 733 595 725 663 q 747 517 745 595 q 753 496 753 517 l 753 477 q 741 465 753 465 l 507 465 q 476 568 492 465 q 438 925 471 604 q 450 937 439 937 l 505 937 l 651 1081 m 98 425 l 750 425 q 764 401 764 420 l 764 398 l 761 384 q 766 362 766 376 l 755 357 l 79 357 q 98 425 85 425 m 80 316 l 765 316 q 783 275 775 316 l 783 260 q 770 248 783 248 l 75 248 l 63 254 l 66 285 l 66 301 q 80 316 66 309 m 71 210 l 349 210 l 360 205 q 326 -1 337 11 l 310 -4 l 271 -4 q 241 -1 259 -4 q 245 -5 245 -1 q 115 4 215 -1 q 71 1 99 1 l 47 1 q 34 24 34 6 l 34 28 q 56 185 39 52 q 71 210 60 210 m 522 210 l 779 210 q 799 172 793 210 l 799 161 q 812 80 803 161 q 826 -1 820 80 l 815 -7 l 581 -7 q 533 22 533 -7 q 511 205 533 34 l 522 210 z "},"B":{"ha":1005,"x_min":34,"x_max":802,"o":"m 102 1302 q 175 1297 168 1297 l 183 1297 q 186 1294 186 1297 l 191 1297 l 194 1297 q 197 1294 197 1297 l 202 1297 l 205 1297 q 218 1294 214 1297 q 227 1297 221 1294 q 332 1291 290 1291 q 365 1294 337 1291 q 753 901 753 905 l 755 876 l 753 876 q 755 868 755 871 q 753 836 753 840 l 750 836 l 338 1245 l 338 1199 l 430 1104 l 430 1101 l 419 1101 q 354 1112 391 1112 l 351 1112 l 338 1123 q 335 1104 338 1107 q 338 1074 338 1086 l 338 1039 q 346 1034 346 1039 q 343 1031 346 1031 q 346 1023 346 1025 q 338 990 346 1019 l 338 960 q 332 941 338 941 q 335 939 332 939 q 330 863 332 863 l 332 849 q 327 787 332 825 q 365 765 336 775 q 400 770 393 770 q 799 366 798 372 l 802 350 q 799 298 799 313 l 796 298 l 338 754 l 338 716 q 395 654 338 702 l 460 583 l 454 583 q 381 600 431 600 l 373 600 l 338 632 l 338 627 q 340 564 338 601 q 335 507 335 524 q 338 426 338 449 l 335 426 l 340 415 q 338 350 340 413 l 340 331 q 338 323 338 326 l 340 309 q 335 285 339 285 l 338 279 l 338 220 q 354 182 338 182 q 376 171 354 179 q 384 174 381 174 l 544 11 l 544 8 q 476 5 521 8 q 338 144 472 13 l 338 98 l 425 8 q 397 0 425 1 l 397 3 l 392 0 q 338 19 350 7 q 335 5 338 10 q 281 8 298 8 l 248 8 q 245 11 245 8 q 132 0 202 0 q 47 11 47 3 l 47 19 q 56 144 47 83 q 53 152 53 149 q 58 176 58 172 q 53 184 53 176 q 58 222 53 203 l 53 274 l 56 279 q 50 317 50 300 l 50 361 q 53 363 50 363 l 50 369 q 53 467 53 429 l 53 469 q 50 494 53 479 l 53 499 l 47 594 q 50 605 50 599 q 45 632 49 632 l 47 659 q 45 719 47 701 q 47 792 47 757 q 42 911 47 806 l 45 922 q 42 936 42 927 q 45 947 42 942 q 34 1055 40 963 l 37 1069 q 34 1172 34 1134 l 34 1202 q 39 1291 34 1217 q 72 1299 44 1296 q 80 1297 77 1297 q 102 1302 90 1302 m 435 1294 q 479 1286 470 1291 q 490 1289 484 1289 q 671 1109 496 1288 l 745 1036 q 755 1006 749 1036 l 753 996 l 755 979 l 753 979 l 755 974 l 755 971 q 753 968 755 968 l 755 963 l 755 955 l 753 955 q 419 1289 576 1128 l 419 1291 l 435 1294 m 557 1275 q 682 1210 637 1259 q 726 1123 726 1149 q 734 1099 731 1123 l 731 1099 q 557 1272 728 1099 l 557 1275 m 487 1047 q 736 798 623 915 l 736 795 q 704 762 736 792 l 701 762 l 490 971 q 492 993 490 974 q 487 1047 492 1004 m 487 922 l 490 922 q 669 743 594 821 l 669 738 q 623 719 643 723 l 620 719 q 479 860 612 724 q 487 922 479 868 m 471 819 q 617 670 599 693 q 715 575 623 670 q 777 496 777 520 q 793 423 793 441 q 435 781 662 551 l 435 784 q 463 819 463 811 l 471 819 m 495 548 l 498 548 q 796 247 796 251 l 796 241 q 783 187 791 187 q 509 467 509 462 q 495 548 506 520 m 509 412 l 511 412 l 780 146 q 764 90 780 113 q 506 345 758 90 l 506 385 l 509 412 m 509 296 l 739 62 q 693 33 714 33 q 495 231 576 146 l 503 269 l 503 290 q 509 296 504 296 m 479 201 l 658 19 q 614 14 646 14 l 593 14 l 427 176 q 430 182 427 182 q 479 201 474 201 z "}}}
